<svg width="273" height="26" viewBox="0 0 273 26" fill="none" xmlns="http://www.w3.org/2000/svg">
<path d="M0.304 25V1.16H9.168C10.7893 1.16 12.2187 1.45867 13.456 2.056C14.7147 2.632 15.696 3.48533 16.4 4.616C17.104 5.72533 17.456 7.08 17.456 8.68C17.456 10.3227 17.0613 11.72 16.272 12.872C15.504 14.024 14.4587 14.8773 13.136 15.432L18.608 25H13.68L7.824 14.536L10.64 16.2H4.656V25H0.304ZM4.656 12.36H9.232C10.0213 12.36 10.704 12.2107 11.28 11.912C11.856 11.592 12.304 11.1547 12.624 10.6C12.944 10.0453 13.104 9.40533 13.104 8.68C13.104 7.93333 12.944 7.29333 12.624 6.76C12.304 6.20533 11.856 5.77867 11.28 5.48C10.704 5.16 10.0213 5 9.232 5H4.656V12.36ZM28.3955 25.384C26.6035 25.384 25.0355 24.9787 23.6915 24.168C22.3475 23.3573 21.3022 22.2587 20.5555 20.872C19.8088 19.4853 19.4355 17.9493 19.4355 16.264C19.4355 14.5147 19.8088 12.968 20.5555 11.624C21.3235 10.2587 22.3582 9.18133 23.6595 8.392C24.9822 7.60267 26.4542 7.208 28.0755 7.208C29.4408 7.208 30.6355 7.432 31.6595 7.88C32.7048 8.328 33.5902 8.94667 34.3155 9.736C35.0408 10.5253 35.5955 11.432 35.9795 12.456C36.3635 13.4587 36.5555 14.5467 36.5555 15.72C36.5555 16.0187 36.5342 16.328 36.4915 16.648C36.4702 16.968 36.4168 17.2453 36.3315 17.48H22.8915V14.28H33.9635L31.9795 15.784C32.1715 14.8027 32.1182 13.928 31.8195 13.16C31.5422 12.392 31.0728 11.784 30.4115 11.336C29.7715 10.888 28.9928 10.664 28.0755 10.664C27.2008 10.664 26.4222 10.888 25.7395 11.336C25.0568 11.7627 24.5342 12.4027 24.1715 13.256C23.8302 14.088 23.7022 15.1013 23.7875 16.296C23.7022 17.3627 23.8408 18.312 24.2035 19.144C24.5875 19.9547 25.1422 20.584 25.8675 21.032C26.6142 21.48 27.4675 21.704 28.4275 21.704C29.3875 21.704 30.1982 21.5013 30.8595 21.096C31.5422 20.6907 32.0755 20.1467 32.4595 19.464L35.8515 21.128C35.5102 21.96 34.9768 22.696 34.2515 23.336C33.5262 23.976 32.6622 24.4773 31.6595 24.84C30.6782 25.2027 29.5902 25.384 28.3955 25.384ZM39.7332 25V7.592H43.6692V11.624L43.2212 10.952C43.5412 9.69333 44.1812 8.75467 45.1412 8.136C46.1012 7.51733 47.2319 7.208 48.5332 7.208C49.9626 7.208 51.2212 7.58133 52.3092 8.328C53.3972 9.07467 54.1012 10.056 54.4212 11.272L53.2372 11.368C53.7706 9.98133 54.5706 8.94667 55.6372 8.264C56.7039 7.56 57.9306 7.208 59.3172 7.208C60.5546 7.208 61.6532 7.48533 62.6132 8.04C63.5946 8.59467 64.3626 9.37333 64.9172 10.376C65.4719 11.3573 65.7492 12.4987 65.7492 13.8V25H61.5572V14.792C61.5572 14.024 61.4186 13.3627 61.1412 12.808C60.8639 12.2533 60.4799 11.8267 59.9892 11.528C59.4986 11.208 58.9012 11.048 58.1972 11.048C57.5359 11.048 56.9492 11.208 56.4372 11.528C55.9252 11.8267 55.5306 12.2533 55.2532 12.808C54.9759 13.3627 54.8372 14.024 54.8372 14.792V25H50.6452V14.792C50.6452 14.024 50.5066 13.3627 50.2292 12.808C49.9519 12.2533 49.5572 11.8267 49.0452 11.528C48.5546 11.208 47.9679 11.048 47.2852 11.048C46.6239 11.048 46.0372 11.208 45.5252 11.528C45.0132 11.8267 44.6186 12.2533 44.3412 12.808C44.0639 13.3627 43.9252 14.024 43.9252 14.792V25H39.7332ZM77.8077 25.384C76.1011 25.384 74.5437 24.9893 73.1357 24.2C71.7491 23.4107 70.6397 22.3333 69.8077 20.968C68.9971 19.6027 68.5917 18.0453 68.5917 16.296C68.5917 14.5467 68.9971 12.9893 69.8077 11.624C70.6397 10.2587 71.7491 9.18133 73.1357 8.392C74.5224 7.60267 76.0797 7.208 77.8077 7.208C79.5144 7.208 81.0611 7.60267 82.4477 8.392C83.8344 9.18133 84.9331 10.2587 85.7437 11.624C86.5757 12.968 86.9917 14.5253 86.9917 16.296C86.9917 18.0453 86.5757 19.6027 85.7437 20.968C84.9117 22.3333 83.8024 23.4107 82.4157 24.2C81.0291 24.9893 79.4931 25.384 77.8077 25.384ZM77.8077 21.544C78.7464 21.544 79.5677 21.32 80.2717 20.872C80.9971 20.424 81.5624 19.8053 81.9677 19.016C82.3944 18.2053 82.6077 17.2987 82.6077 16.296C82.6077 15.272 82.3944 14.376 81.9677 13.608C81.5624 12.8187 80.9971 12.2 80.2717 11.752C79.5677 11.2827 78.7464 11.048 77.8077 11.048C76.8477 11.048 76.0051 11.2827 75.2797 11.752C74.5544 12.2 73.9784 12.8187 73.5517 13.608C73.1464 14.376 72.9437 15.272 72.9437 16.296C72.9437 17.2987 73.1464 18.2053 73.5517 19.016C73.9784 19.8053 74.5544 20.424 75.2797 20.872C76.0051 21.32 76.8477 21.544 77.8077 21.544ZM97.7942 25.192C95.8316 25.192 94.3062 24.6587 93.2182 23.592C92.1516 22.504 91.6182 20.9787 91.6182 19.016V11.336H88.6102V7.592H88.9302C89.7836 7.592 90.4449 7.368 90.9142 6.92C91.3836 6.472 91.6182 5.82133 91.6182 4.968V3.624H95.8102V7.592H99.8102V11.336H95.8102V18.792C95.8102 19.368 95.9062 19.8587 96.0982 20.264C96.3116 20.6693 96.6316 20.9787 97.0582 21.192C97.5062 21.4053 98.0716 21.512 98.7542 21.512C98.9036 21.512 99.0742 21.5013 99.2662 21.48C99.4796 21.4587 99.6822 21.4373 99.8742 21.416V25C99.5756 25.0427 99.2342 25.0853 98.8502 25.128C98.4662 25.1707 98.1142 25.192 97.7942 25.192ZM111.177 25.384C109.385 25.384 107.817 24.9787 106.473 24.168C105.129 23.3573 104.083 22.2587 103.337 20.872C102.59 19.4853 102.217 17.9493 102.217 16.264C102.217 14.5147 102.59 12.968 103.337 11.624C104.105 10.2587 105.139 9.18133 106.441 8.392C107.763 7.60267 109.235 7.208 110.857 7.208C112.222 7.208 113.417 7.432 114.441 7.88C115.486 8.328 116.371 8.94667 117.097 9.736C117.822 10.5253 118.377 11.432 118.761 12.456C119.145 13.4587 119.337 14.5467 119.337 15.72C119.337 16.0187 119.315 16.328 119.273 16.648C119.251 16.968 119.198 17.2453 119.113 17.48H105.673V14.28H116.745L114.761 15.784C114.953 14.8027 114.899 13.928 114.601 13.16C114.323 12.392 113.854 11.784 113.193 11.336C112.553 10.888 111.774 10.664 110.857 10.664C109.982 10.664 109.203 10.888 108.521 11.336C107.838 11.7627 107.315 12.4027 106.953 13.256C106.611 14.088 106.483 15.1013 106.569 16.296C106.483 17.3627 106.622 18.312 106.985 19.144C107.369 19.9547 107.923 20.584 108.649 21.032C109.395 21.48 110.249 21.704 111.209 21.704C112.169 21.704 112.979 21.5013 113.641 21.096C114.323 20.6907 114.857 20.1467 115.241 19.464L118.633 21.128C118.291 21.96 117.758 22.696 117.033 23.336C116.307 23.976 115.443 24.4773 114.441 24.84C113.459 25.2027 112.371 25.384 111.177 25.384ZM133.002 25L126.602 1.16H131.274L136.298 21.48H135.082L140.33 1.16H144.842L150.058 21.48H148.842L153.866 1.16H158.538L152.138 25H147.146L141.866 5.224H143.274L137.994 25H133.002ZM168.308 25.384C166.601 25.384 165.044 24.9893 163.636 24.2C162.249 23.4107 161.14 22.3333 160.308 20.968C159.497 19.6027 159.092 18.0453 159.092 16.296C159.092 14.5467 159.497 12.9893 160.308 11.624C161.14 10.2587 162.249 9.18133 163.636 8.392C165.022 7.60267 166.58 7.208 168.308 7.208C170.014 7.208 171.561 7.60267 172.948 8.392C174.334 9.18133 175.433 10.2587 176.244 11.624C177.076 12.968 177.492 14.5253 177.492 16.296C177.492 18.0453 177.076 19.6027 176.244 20.968C175.412 22.3333 174.302 23.4107 172.916 24.2C171.529 24.9893 169.993 25.384 168.308 25.384ZM168.308 21.544C169.246 21.544 170.068 21.32 170.772 20.872C171.497 20.424 172.062 19.8053 172.468 19.016C172.894 18.2053 173.108 17.2987 173.108 16.296C173.108 15.272 172.894 14.376 172.468 13.608C172.062 12.8187 171.497 12.2 170.772 11.752C170.068 11.2827 169.246 11.048 168.308 11.048C167.348 11.048 166.505 11.2827 165.78 11.752C165.054 12.2 164.478 12.8187 164.052 13.608C163.646 14.376 163.444 15.272 163.444 16.296C163.444 17.2987 163.646 18.2053 164.052 19.016C164.478 19.8053 165.054 20.424 165.78 20.872C166.505 21.32 167.348 21.544 168.308 21.544ZM180.671 25V7.592H184.607V11.464L184.287 10.888C184.692 9.58667 185.321 8.68 186.175 8.168C187.049 7.656 188.095 7.4 189.311 7.4H190.335V11.112H188.831C187.636 11.112 186.676 11.4853 185.951 12.232C185.225 12.9573 184.863 13.9813 184.863 15.304V25H180.671ZM192.639 25V0.776001H196.831V16.648L195.231 16.168L203.423 7.592H208.639L202.207 14.6L208.767 25H203.967L198.271 15.976L200.767 15.464L195.519 21.096L196.831 18.536V25H192.639ZM211.46 25V1.16H215.812V11.56H225.956V1.16H230.34V25H225.956V15.4H215.812V25H211.46ZM234.929 25V1.16H250.769V5H239.281V11.112H250.129V14.952H239.281V21.16H250.769V25H234.929ZM253.96 25V1.16H262.824C264.446 1.16 265.875 1.45867 267.112 2.056C268.371 2.632 269.352 3.48533 270.056 4.616C270.76 5.72533 271.112 7.08 271.112 8.68C271.112 10.3227 270.718 11.72 269.928 12.872C269.16 14.024 268.115 14.8773 266.792 15.432L272.264 25H267.336L261.48 14.536L264.296 16.2H258.312V25H253.96ZM258.312 12.36H262.888C263.678 12.36 264.36 12.2107 264.936 11.912C265.512 11.592 265.96 11.1547 266.28 10.6C266.6 10.0453 266.76 9.40533 266.76 8.68C266.76 7.93333 266.6 7.29333 266.28 6.76C265.96 6.20533 265.512 5.77867 264.936 5.48C264.36 5.16 263.678 5 262.888 5H258.312V12.36Z" fill="#F963AB"/>
</svg>
