<svg width="238" height="23" viewBox="0 0 238 23" fill="none" xmlns="http://www.w3.org/2000/svg">
<path d="M0.0160001 22V1.14H7.772C9.19067 1.14 10.4413 1.40133 11.524 1.924C12.6253 2.428 13.484 3.17467 14.1 4.164C14.716 5.13467 15.024 6.32 15.024 7.72C15.024 9.15733 14.6787 10.38 13.988 11.388C13.316 12.396 12.4013 13.1427 11.244 13.628L16.032 22H11.72L6.596 12.844L9.06 14.3H3.824V22H0.0160001ZM3.824 10.94H7.828C8.51867 10.94 9.116 10.8093 9.62 10.548C10.124 10.268 10.516 9.88533 10.796 9.4C11.076 8.91467 11.216 8.35467 11.216 7.72C11.216 7.06667 11.076 6.50667 10.796 6.04C10.516 5.55467 10.124 5.18133 9.62 4.92C9.116 4.64 8.51867 4.5 7.828 4.5H3.824V10.94ZM24.5961 22.336C23.0281 22.336 21.6561 21.9813 20.4801 21.272C19.3041 20.5627 18.3894 19.6013 17.7361 18.388C17.0827 17.1747 16.7561 15.8307 16.7561 14.356C16.7561 12.8253 17.0827 11.472 17.7361 10.296C18.4081 9.10133 19.3134 8.15867 20.4521 7.468C21.6094 6.77733 22.8974 6.432 24.3161 6.432C25.5107 6.432 26.5561 6.628 27.4521 7.02C28.3667 7.412 29.1414 7.95333 29.7761 8.644C30.4107 9.33467 30.8961 10.128 31.2321 11.024C31.5681 11.9013 31.7361 12.8533 31.7361 13.88C31.7361 14.1413 31.7174 14.412 31.6801 14.692C31.6614 14.972 31.6147 15.2147 31.5401 15.42H19.7801V12.62H29.4681L27.7321 13.936C27.9001 13.0773 27.8534 12.312 27.5921 11.64C27.3494 10.968 26.9387 10.436 26.3601 10.044C25.8001 9.652 25.1187 9.456 24.3161 9.456C23.5507 9.456 22.8694 9.652 22.2721 10.044C21.6747 10.4173 21.2174 10.9773 20.9001 11.724C20.6014 12.452 20.4894 13.3387 20.5641 14.384C20.4894 15.3173 20.6107 16.148 20.9281 16.876C21.2641 17.5853 21.7494 18.136 22.3841 18.528C23.0374 18.92 23.7841 19.116 24.6241 19.116C25.4641 19.116 26.1734 18.9387 26.7521 18.584C27.3494 18.2293 27.8161 17.7533 28.1521 17.156L31.1201 18.612C30.8214 19.34 30.3547 19.984 29.7201 20.544C29.0854 21.104 28.3294 21.5427 27.4521 21.86C26.5934 22.1773 25.6414 22.336 24.5961 22.336ZM34.5166 22V6.768H37.9606V10.296L37.5686 9.708C37.8486 8.60667 38.4086 7.78533 39.2486 7.244C40.0886 6.70267 41.0779 6.432 42.2166 6.432C43.4673 6.432 44.5686 6.75867 45.5206 7.412C46.4726 8.06533 47.0886 8.924 47.3686 9.988L46.3326 10.072C46.7993 8.85867 47.4993 7.95333 48.4326 7.356C49.3659 6.74 50.4393 6.432 51.6526 6.432C52.7353 6.432 53.6966 6.67467 54.5366 7.16C55.3953 7.64533 56.0673 8.32667 56.5526 9.204C57.0379 10.0627 57.2806 11.0613 57.2806 12.2V22H53.6126V13.068C53.6126 12.396 53.4913 11.8173 53.2486 11.332C53.0059 10.8467 52.6699 10.4733 52.2406 10.212C51.8113 9.932 51.2886 9.792 50.6726 9.792C50.0939 9.792 49.5806 9.932 49.1326 10.212C48.6846 10.4733 48.3393 10.8467 48.0966 11.332C47.8539 11.8173 47.7326 12.396 47.7326 13.068V22H44.0646V13.068C44.0646 12.396 43.9433 11.8173 43.7006 11.332C43.4579 10.8467 43.1126 10.4733 42.6646 10.212C42.2353 9.932 41.7219 9.792 41.1246 9.792C40.5459 9.792 40.0326 9.932 39.5846 10.212C39.1366 10.4733 38.7913 10.8467 38.5486 11.332C38.3059 11.8173 38.1846 12.396 38.1846 13.068V22H34.5166ZM67.8318 22.336C66.3384 22.336 64.9758 21.9907 63.7438 21.3C62.5304 20.6093 61.5598 19.6667 60.8318 18.472C60.1224 17.2773 59.7678 15.9147 59.7678 14.384C59.7678 12.8533 60.1224 11.4907 60.8318 10.296C61.5598 9.10133 62.5304 8.15867 63.7438 7.468C64.9571 6.77733 66.3198 6.432 67.8318 6.432C69.3251 6.432 70.6784 6.77733 71.8918 7.468C73.1051 8.15867 74.0664 9.10133 74.7758 10.296C75.5038 11.472 75.8678 12.8347 75.8678 14.384C75.8678 15.9147 75.5038 17.2773 74.7758 18.472C74.0478 19.6667 73.0771 20.6093 71.8638 21.3C70.6504 21.9907 69.3064 22.336 67.8318 22.336ZM67.8318 18.976C68.6531 18.976 69.3718 18.78 69.9878 18.388C70.6224 17.996 71.1171 17.4547 71.4718 16.764C71.8451 16.0547 72.0318 15.2613 72.0318 14.384C72.0318 13.488 71.8451 12.704 71.4718 12.032C71.1171 11.3413 70.6224 10.8 69.9878 10.408C69.3718 9.99733 68.6531 9.792 67.8318 9.792C66.9918 9.792 66.2544 9.99733 65.6198 10.408C64.9851 10.8 64.4811 11.3413 64.1078 12.032C63.7531 12.704 63.5758 13.488 63.5758 14.384C63.5758 15.2613 63.7531 16.0547 64.1078 16.764C64.4811 17.4547 64.9851 17.996 65.6198 18.388C66.2544 18.78 66.9918 18.976 67.8318 18.976ZM85.32 22.168C83.6026 22.168 82.268 21.7013 81.316 20.768C80.3826 19.816 79.916 18.4813 79.916 16.764V10.044H77.284V6.768H77.564C78.3106 6.768 78.8893 6.572 79.3 6.18C79.7106 5.788 79.916 5.21867 79.916 4.472V3.296H83.584V6.768H87.084V10.044H83.584V16.568C83.584 17.072 83.668 17.5013 83.836 17.856C84.0226 18.2107 84.3026 18.4813 84.676 18.668C85.068 18.8547 85.5626 18.948 86.16 18.948C86.2906 18.948 86.44 18.9387 86.608 18.92C86.7946 18.9013 86.972 18.8827 87.14 18.864V22C86.8786 22.0373 86.58 22.0747 86.244 22.112C85.908 22.1493 85.6 22.168 85.32 22.168ZM97.0297 22.336C95.4617 22.336 94.0897 21.9813 92.9137 21.272C91.7377 20.5627 90.823 19.6013 90.1697 18.388C89.5163 17.1747 89.1897 15.8307 89.1897 14.356C89.1897 12.8253 89.5163 11.472 90.1697 10.296C90.8417 9.10133 91.747 8.15867 92.8857 7.468C94.043 6.77733 95.331 6.432 96.7497 6.432C97.9443 6.432 98.9897 6.628 99.8857 7.02C100.8 7.412 101.575 7.95333 102.21 8.644C102.844 9.33467 103.33 10.128 103.666 11.024C104.002 11.9013 104.17 12.8533 104.17 13.88C104.17 14.1413 104.151 14.412 104.114 14.692C104.095 14.972 104.048 15.2147 103.974 15.42H92.2137V12.62H101.902L100.166 13.936C100.334 13.0773 100.287 12.312 100.026 11.64C99.783 10.968 99.3723 10.436 98.7937 10.044C98.2337 9.652 97.5523 9.456 96.7497 9.456C95.9843 9.456 95.303 9.652 94.7057 10.044C94.1083 10.4173 93.651 10.9773 93.3337 11.724C93.035 12.452 92.923 13.3387 92.9977 14.384C92.923 15.3173 93.0443 16.148 93.3617 16.876C93.6977 17.5853 94.183 18.136 94.8177 18.528C95.471 18.92 96.2177 19.116 97.0577 19.116C97.8977 19.116 98.607 18.9387 99.1857 18.584C99.783 18.2293 100.25 17.7533 100.586 17.156L103.554 18.612C103.255 19.34 102.788 19.984 102.154 20.544C101.519 21.104 100.763 21.5427 99.8857 21.86C99.027 22.1773 98.075 22.336 97.0297 22.336ZM116.127 22L110.527 1.14H114.615L119.011 18.92H117.947L122.539 1.14H126.487L131.051 18.92H129.987L134.383 1.14H138.471L132.871 22H128.503L123.883 4.696H125.115L120.495 22H116.127ZM147.019 22.336C145.526 22.336 144.163 21.9907 142.931 21.3C141.718 20.6093 140.747 19.6667 140.019 18.472C139.31 17.2773 138.955 15.9147 138.955 14.384C138.955 12.8533 139.31 11.4907 140.019 10.296C140.747 9.10133 141.718 8.15867 142.931 7.468C144.145 6.77733 145.507 6.432 147.019 6.432C148.513 6.432 149.866 6.77733 151.079 7.468C152.293 8.15867 153.254 9.10133 153.963 10.296C154.691 11.472 155.055 12.8347 155.055 14.384C155.055 15.9147 154.691 17.2773 153.963 18.472C153.235 19.6667 152.265 20.6093 151.051 21.3C149.838 21.9907 148.494 22.336 147.019 22.336ZM147.019 18.976C147.841 18.976 148.559 18.78 149.175 18.388C149.81 17.996 150.305 17.4547 150.659 16.764C151.033 16.0547 151.219 15.2613 151.219 14.384C151.219 13.488 151.033 12.704 150.659 12.032C150.305 11.3413 149.81 10.8 149.175 10.408C148.559 9.99733 147.841 9.792 147.019 9.792C146.179 9.792 145.442 9.99733 144.807 10.408C144.173 10.8 143.669 11.3413 143.295 12.032C142.941 12.704 142.763 13.488 142.763 14.384C142.763 15.2613 142.941 16.0547 143.295 16.764C143.669 17.4547 144.173 17.996 144.807 18.388C145.442 18.78 146.179 18.976 147.019 18.976ZM157.837 22V6.768H161.281V10.156L161.001 9.652C161.356 8.51333 161.906 7.72 162.653 7.272C163.418 6.824 164.333 6.6 165.397 6.6H166.293V9.848H164.977C163.932 9.848 163.092 10.1747 162.457 10.828C161.822 11.4627 161.505 12.3587 161.505 13.516V22H157.837ZM168.31 22V0.803999H171.978V14.692L170.578 14.272L177.746 6.768H182.31L176.682 12.9L182.422 22H178.222L173.238 14.104L175.422 13.656L170.83 18.584L171.978 16.344V22H168.31ZM184.778 22V1.14H188.586V10.24H197.462V1.14H201.298V22H197.462V13.6H188.586V22H184.778ZM205.313 22V1.14H219.173V4.5H209.121V9.848H218.613V13.208H209.121V18.64H219.173V22H205.313ZM221.965 22V1.14H229.721C231.14 1.14 232.391 1.40133 233.473 1.924C234.575 2.428 235.433 3.17467 236.049 4.164C236.665 5.13467 236.973 6.32 236.973 7.72C236.973 9.15733 236.628 10.38 235.937 11.388C235.265 12.396 234.351 13.1427 233.193 13.628L237.981 22H233.669L228.545 12.844L231.009 14.3H225.773V22H221.965ZM225.773 10.94H229.777C230.468 10.94 231.065 10.8093 231.569 10.548C232.073 10.268 232.465 9.88533 232.745 9.4C233.025 8.91467 233.165 8.35467 233.165 7.72C233.165 7.06667 233.025 6.50667 232.745 6.04C232.465 5.55467 232.073 5.18133 231.569 4.92C231.065 4.64 230.468 4.5 229.777 4.5H225.773V10.94Z" fill="black"/>
</svg>
