<svg width="20" height="21" viewBox="0 0 20 21" fill="none" xmlns="http://www.w3.org/2000/svg">
<path d="M1.66602 10.3135L9.70121 14.3311C9.81053 14.3857 9.86518 14.4131 9.92252 14.4238C9.9733 14.4333 10.0254 14.4333 10.0762 14.4238C10.1335 14.4131 10.1882 14.3857 10.2975 14.3311L18.3327 10.3135M1.66602 14.4801L9.70121 18.4977C9.81053 18.5524 9.86518 18.5797 9.92252 18.5905C9.9733 18.6 10.0254 18.6 10.0762 18.5905C10.1335 18.5797 10.1882 18.5524 10.2975 18.4977L18.3327 14.4801M1.66602 6.14681L9.70121 2.12922C9.81053 2.07456 9.86518 2.04723 9.92252 2.03647C9.9733 2.02695 10.0254 2.02695 10.0762 2.03647C10.1335 2.04723 10.1882 2.07456 10.2975 2.12922L18.3327 6.14681L10.2975 10.1644C10.1882 10.2191 10.1335 10.2464 10.0762 10.2572C10.0254 10.2667 9.9733 10.2667 9.92252 10.2572C9.86518 10.2464 9.81053 10.2191 9.70121 10.1644L1.66602 6.14681Z" stroke="#344054" stroke-width="1.66667" stroke-linecap="round" stroke-linejoin="round"/>
</svg>
