<svg width="50" height="51" viewBox="0 0 50 51" fill="none" xmlns="http://www.w3.org/2000/svg">
<path d="M27.37 27.2485C24.3607 28.9849 21.3598 30.7605 18.33 32.4403C16.7355 33.321 15.1086 33.8106 14.1963 32.7414C13.2345 31.6169 14.0622 30.1196 15.4716 28.8277C20.579 24.1492 25.7645 19.5248 30.9374 14.8965C31.3586 14.5179 31.8922 14.2271 32.3939 13.9333C34.0879 12.9428 35.6869 12.5249 36.8974 13.2645C38.1582 14.033 38.3296 15.4763 37.1938 17.0126C35.4199 19.4126 33.37 21.7445 31.2493 23.9911C30.154 25.1555 28.6507 26.081 27.3292 27.1224C27.3406 27.166 27.3521 27.2096 27.37 27.2485Z" fill="#CC1C71"/>
<path d="M11.2349 24.0297C9.77405 25.0147 8.15848 26.3722 6.70097 25.4747C5.25535 24.5817 6.39358 22.9167 7.14509 21.528C8.69104 18.6545 10.2395 15.7725 11.9157 12.937C12.633 11.7169 13.5581 10.499 14.5984 9.45425C16.3919 7.64848 18.9204 7.09949 20.6011 7.94889C22.3326 8.82107 22.7886 10.7815 21.4791 12.9882C18.9388 17.2471 15.2777 20.7673 11.2349 24.0297Z" fill="#CC1C71"/>
<path d="M32.3503 43.355C31.766 43.465 30.7612 43.8838 29.7401 43.7906C25.9765 43.4378 22.2015 43.0183 18.4384 42.3909C17.2795 42.1966 16.0753 41.3781 15.0414 40.6041C14.0652 39.8803 14.0155 38.9849 15.1662 38.495C15.4611 38.3674 15.7596 38.204 16.0776 38.1596C20.3192 37.5807 24.5383 36.8681 28.829 36.5617C30.029 36.4772 31.6325 37.3346 32.7218 38.2269C34.3482 39.575 34.2106 41.9924 32.3503 43.355Z" fill="#CC1C71"/>
</svg>
