<svg width="418" height="25" viewBox="0 0 418 25" fill="none" xmlns="http://www.w3.org/2000/svg">
<path fill-rule="evenodd" clip-rule="evenodd" d="M138.52 2.62004C92.4437 2.12272 46.1794 3.94019 1.5812 11.5717C0.785489 11.7074 0.455164 11.9741 0.390061 12.0352C0.00908543 12.3968 -0.0319762 12.7811 0.0162485 13.0976C0.0451833 13.2897 0.240578 14.1013 1.30876 14.1849C2.04659 14.2414 7.28372 13.8458 9.30433 13.7441C18.8167 13.2671 28.3098 12.5867 37.798 11.8001C59.311 10.0233 80.7951 8.48612 102.342 7.08685C114.439 6.30019 126.541 5.64913 138.636 5.11565C167.732 5.43438 196.756 6.6777 225.238 7.96168C213.917 8.61497 203.515 9.2773 194.89 9.7068C180.345 10.4302 165.827 11.2846 151.312 12.4104C143.854 12.9868 136.405 13.613 128.962 14.3522C128.137 14.4358 126.259 14.5217 125.35 14.6235C124.964 14.6642 124.684 14.7297 124.559 14.7749C123.773 15.0598 123.674 15.6429 123.664 15.9368C123.66 16.1154 123.725 17.0897 125.051 17.2796C186.713 26.1906 251.045 15.8238 312.93 24.4862C313.655 24.5879 314.335 24.1177 314.444 23.435C314.552 22.7546 314.051 22.1171 313.323 22.0154C255.038 13.8571 194.581 22.5805 136.222 16.1764C141.322 15.713 146.424 15.2948 151.531 14.8992C166.02 13.7758 180.512 12.9235 195.032 12.2002C209.644 11.4745 229.397 10.0572 250.073 9.16427C267.818 10.0911 285.552 11.1309 303.299 12.0125C310.786 12.3833 318.275 12.6907 325.76 13.0682C328.836 13.2219 336.752 13.8662 337.9 13.6266C338.792 13.4389 339.007 12.8399 339.06 12.5393C339.115 12.2137 339.082 11.8091 338.677 11.4225C338.551 11.3005 338.175 11.0473 337.404 10.8393C316.534 5.23547 282.362 5.32363 250.358 6.67768C243.474 6.316 236.59 5.9724 229.703 5.66271C213.939 4.95064 198 4.2363 181.971 3.67343C227.145 2.6268 272.341 2.92746 317.549 3.68474C336.531 4.00348 387.695 5.92494 407.845 7.6226C407.599 7.85995 407.455 8.18999 407.472 8.54941C407.505 9.23661 408.13 9.7701 408.865 9.73845C413.022 9.55761 415.426 9.32704 416.379 9.08968C416.972 8.94275 417.295 8.70765 417.444 8.55394C417.811 8.18321 417.878 7.78534 417.806 7.40783C417.76 7.17274 417.647 6.91504 417.387 6.67768C417.213 6.51493 416.789 6.26628 416.065 6.09674C408.144 4.24988 340.198 1.56661 317.598 1.18684C257.874 0.187686 198.174 -0.0157418 138.52 2.62004ZM321.248 10.3465C309.578 8.86135 295.897 8.33918 281.624 8.37308C288.894 8.76868 296.167 9.15524 303.441 9.51693C309.375 9.81306 315.312 10.0662 321.248 10.3465ZM83.4764 5.84582C68.1651 6.90375 52.8706 8.04757 37.564 9.31347C35.7966 9.45815 34.0316 9.60056 32.2642 9.74072C49.191 7.79666 66.294 6.56015 83.4764 5.84582Z" fill="#F963AB"/>
</svg>
