<svg width="1246" height="296" viewBox="0 0 1246 296" fill="none" xmlns="http://www.w3.org/2000/svg">
<rect x="0.855469" y="218.5" width="208.288" height="75" rx="37.5" fill="white"/>
<rect x="0.855469" y="218.5" width="208.288" height="75" rx="37.5" stroke="#EAECF0"/>
<path fill-rule="evenodd" clip-rule="evenodd" d="M38.3555 278C50.5057 278 60.3555 268.15 60.3555 256C60.3555 243.85 50.5057 234 38.3555 234C26.2052 234 16.3555 243.85 16.3555 256C16.3555 268.15 26.2052 278 38.3555 278ZM45.2187 244.249C45.5528 243.062 44.4012 242.36 43.3495 243.109L28.6679 253.569C27.5273 254.381 27.7067 256 28.9374 256H32.8034V255.97H40.3382L34.1988 258.136L31.4923 267.752C31.1582 268.938 32.3097 269.64 33.3615 268.891L48.0431 258.432C49.1837 257.619 49.0041 256 47.7736 256H41.9108L45.2187 244.249Z" fill="#155EEF"/>
<path d="M73.3555 265.615V262.429H75.8829V249.571H73.3555V246.385H83.2456C84.4177 246.385 85.4342 246.586 86.295 246.989C87.1741 247.374 87.8518 247.932 88.328 248.665C88.8225 249.379 89.0698 250.24 89.0698 251.247V251.522C89.0698 252.401 88.9049 253.125 88.5752 253.692C88.2456 254.242 87.8518 254.672 87.3939 254.984C86.9544 255.277 86.5331 255.487 86.1302 255.615V256.11C86.5331 256.22 86.9727 256.43 87.4489 256.742C87.9251 257.035 88.328 257.465 88.6577 258.033C89.0057 258.601 89.1796 259.342 89.1796 260.258V260.533C89.1796 261.595 88.9324 262.511 88.4379 263.28C87.9434 264.031 87.2566 264.608 86.3774 265.011C85.5166 265.414 84.5093 265.615 83.3555 265.615H73.3555ZM79.5093 262.319H82.9159C83.7035 262.319 84.3353 262.126 84.8115 261.742C85.306 261.357 85.5533 260.808 85.5533 260.093V259.819C85.5533 259.104 85.3152 258.555 84.839 258.17C84.3628 257.786 83.7218 257.593 82.9159 257.593H79.5093V262.319ZM79.5093 254.297H82.861C83.6119 254.297 84.2254 254.104 84.7016 253.72C85.1961 253.335 85.4434 252.804 85.4434 252.126V251.852C85.4434 251.156 85.2053 250.625 84.7291 250.258C84.2529 249.874 83.6302 249.681 82.861 249.681H79.5093V254.297Z" fill="#101828"/>
<path d="M97.3682 266C96.0129 266 94.7949 265.725 93.7143 265.176C92.6337 264.626 91.7821 263.83 91.1594 262.786C90.5367 261.742 90.2253 260.487 90.2253 259.022V258.582C90.2253 257.117 90.5367 255.863 91.1594 254.819C91.7821 253.775 92.6337 252.978 93.7143 252.429C94.7949 251.879 96.0129 251.604 97.3682 251.604C98.7235 251.604 99.9414 251.879 101.022 252.429C102.103 252.978 102.954 253.775 103.577 254.819C104.2 255.863 104.511 257.117 104.511 258.582V259.022C104.511 260.487 104.2 261.742 103.577 262.786C102.954 263.83 102.103 264.626 101.022 265.176C99.9414 265.725 98.7235 266 97.3682 266ZM97.3682 262.923C98.4304 262.923 99.3096 262.584 100.006 261.907C100.702 261.211 101.049 260.222 101.049 258.94V258.665C101.049 257.383 100.702 256.403 100.006 255.725C99.3279 255.029 98.4488 254.681 97.3682 254.681C96.3059 254.681 95.4268 255.029 94.7308 255.725C94.0348 256.403 93.6869 257.383 93.6869 258.665V258.94C93.6869 260.222 94.0348 261.211 94.7308 261.907C95.4268 262.584 96.3059 262.923 97.3682 262.923Z" fill="#101828"/>
<path d="M106.333 265.615V246.385H109.794V265.615H106.333Z" fill="#101828"/>
<path d="M117.476 265.615C116.579 265.615 115.846 265.341 115.278 264.791C114.729 264.223 114.454 263.473 114.454 262.538V254.846H111.048V251.989H114.454V247.758H117.916V251.989H121.652V254.846H117.916V261.934C117.916 262.484 118.172 262.758 118.685 262.758H121.322V265.615H117.476Z" fill="#101828"/>
<path d="M129.071 266C127.294 266 125.838 265.615 124.703 264.846C123.567 264.077 122.881 262.978 122.642 261.549L125.829 260.725C125.957 261.366 126.168 261.87 126.461 262.236C126.773 262.603 127.148 262.868 127.588 263.033C128.045 263.179 128.54 263.253 129.071 263.253C129.877 263.253 130.472 263.115 130.857 262.841C131.241 262.548 131.434 262.19 131.434 261.769C131.434 261.348 131.251 261.027 130.884 260.808C130.518 260.57 129.932 260.377 129.126 260.231L128.357 260.093C127.404 259.91 126.534 259.663 125.747 259.352C124.959 259.022 124.327 258.573 123.851 258.005C123.375 257.438 123.137 256.705 123.137 255.808C123.137 254.452 123.631 253.418 124.62 252.703C125.61 251.971 126.91 251.604 128.522 251.604C130.042 251.604 131.305 251.943 132.313 252.621C133.32 253.299 133.979 254.187 134.291 255.286L131.077 256.275C130.93 255.579 130.628 255.084 130.17 254.791C129.73 254.498 129.181 254.352 128.522 254.352C127.862 254.352 127.359 254.471 127.011 254.709C126.663 254.929 126.489 255.24 126.489 255.643C126.489 256.082 126.672 256.412 127.038 256.632C127.404 256.833 127.899 256.989 128.522 257.099L129.291 257.236C130.316 257.419 131.241 257.667 132.066 257.978C132.908 258.271 133.567 258.701 134.044 259.269C134.538 259.819 134.785 260.57 134.785 261.522C134.785 262.951 134.263 264.059 133.219 264.846C132.194 265.615 130.811 266 129.071 266Z" fill="#101828"/>
<path d="M136.445 265.615V246.385H139.907V253.665H140.401C140.548 253.372 140.777 253.079 141.088 252.786C141.399 252.493 141.811 252.255 142.324 252.071C142.855 251.87 143.524 251.769 144.33 251.769C145.392 251.769 146.317 252.016 147.104 252.511C147.91 252.987 148.533 253.656 148.973 254.516C149.412 255.359 149.632 256.348 149.632 257.484V265.615H146.17V257.758C146.17 256.733 145.914 255.963 145.401 255.451C144.907 254.938 144.192 254.681 143.258 254.681C142.196 254.681 141.372 255.038 140.786 255.753C140.2 256.449 139.907 257.429 139.907 258.692V265.615H136.445Z" fill="#101828"/>
<path d="M152 265.615V251.989H155.462V265.615H152ZM153.731 250.396C153.108 250.396 152.577 250.194 152.138 249.791C151.716 249.388 151.506 248.857 151.506 248.198C151.506 247.538 151.716 247.007 152.138 246.604C152.577 246.201 153.108 246 153.731 246C154.372 246 154.903 246.201 155.324 246.604C155.746 247.007 155.956 247.538 155.956 248.198C155.956 248.857 155.746 249.388 155.324 249.791C154.903 250.194 154.372 250.396 153.731 250.396Z" fill="#101828"/>
<path d="M160.177 265.615V254.846H156.715V251.989H160.177V249.462C160.177 248.527 160.452 247.786 161.001 247.236C161.569 246.668 162.301 246.385 163.199 246.385H166.77V249.242H164.408C163.895 249.242 163.638 249.516 163.638 250.066V251.989H167.21V254.846H163.638V265.615H160.177Z" fill="#101828"/>
<path d="M173.468 265.615C172.57 265.615 171.837 265.341 171.27 264.791C170.72 264.223 170.446 263.473 170.446 262.538V254.846H167.039V251.989H170.446V247.758H173.907V251.989H177.643V254.846H173.907V261.934C173.907 262.484 174.163 262.758 174.676 262.758H177.314V265.615H173.468Z" fill="#101828"/>
<rect x="0.855469" y="108.5" width="214" height="79" rx="39.5" fill="white"/>
<rect x="0.855469" y="108.5" width="214" height="79" rx="39.5" stroke="#EAECF0"/>
<path fill-rule="evenodd" clip-rule="evenodd" d="M36.121 127.448C35.6159 127.344 35.095 127.344 34.59 127.448C34.0062 127.568 33.4844 127.86 33.0696 128.093L32.9565 128.156L18.897 135.967C18.8581 135.988 18.8181 136.01 18.777 136.033C18.3379 136.275 17.7858 136.579 17.3617 137.039C16.9951 137.437 16.7177 137.908 16.548 138.422C16.3517 139.016 16.354 139.646 16.3558 140.148C16.356 140.195 16.3562 140.24 16.3562 140.285V155.707C16.3562 155.751 16.356 155.797 16.3558 155.844C16.354 156.345 16.3517 156.976 16.548 157.57C16.7177 158.083 16.9951 158.555 17.3617 158.953C17.7858 159.413 18.3379 159.717 18.777 159.959C18.8181 159.981 18.8581 160.003 18.897 160.025L32.9565 167.836L33.0696 167.899C33.4844 168.131 34.0062 168.424 34.59 168.544C35.095 168.648 35.6159 168.648 36.121 168.544C36.7048 168.424 37.2266 168.131 37.6414 167.899L37.7545 167.836L51.8139 160.025C51.8311 160.015 51.8485 160.006 51.8662 159.996C51.8884 159.984 51.911 159.971 51.9339 159.959C52.373 159.717 52.9252 159.413 53.3492 158.953C53.7158 158.555 53.9932 158.083 54.1629 157.57C54.3592 156.976 54.3569 156.345 54.3551 155.844C54.3549 155.797 54.3548 155.751 54.3548 155.707V140.285C54.3548 140.24 54.3549 140.195 54.3551 140.148C54.3569 139.646 54.3592 139.016 54.1629 138.422C53.9932 137.908 53.7158 137.437 53.3492 137.039C52.9252 136.579 52.373 136.275 51.9339 136.033L51.9323 136.032C51.8918 136.01 51.8523 135.988 51.8139 135.967L37.7545 128.156L37.6414 128.093C37.2265 127.86 36.7048 127.568 36.121 127.448ZM34.8019 131.478C35.0898 131.318 35.2367 131.237 35.3464 131.184L35.3555 131.18L35.3646 131.184C35.4742 131.237 35.6212 131.318 35.9091 131.478L48.5426 138.496L35.3554 145.822L22.1683 138.496L34.8019 131.478ZM20.156 141.725L33.4555 149.114L33.4555 163.766L20.7424 156.703C20.4385 156.534 20.2833 156.447 20.1745 156.378L20.1653 156.372L20.1646 156.361C20.1568 156.232 20.156 156.054 20.156 155.707V141.725Z" fill="#101828"/>
<path d="M75.4178 154.095H81.0387V157.408H71.127V139.792H75.4178V154.095Z" fill="#101828"/>
<path d="M84.9924 141.95C84.2396 141.95 83.6206 141.733 83.1355 141.298C82.6671 140.846 82.4329 140.294 82.4329 139.642C82.4329 138.973 82.6671 138.421 83.1355 137.986C83.6206 137.534 84.2396 137.308 84.9924 137.308C85.7284 137.308 86.3307 137.534 86.7991 137.986C87.2842 138.421 87.5268 138.973 87.5268 139.642C87.5268 140.294 87.2842 140.846 86.7991 141.298C86.3307 141.733 85.7284 141.95 84.9924 141.95ZM87.1253 143.406V157.408H82.8344V143.406H87.1253Z" fill="#101828"/>
<path d="M95.3036 143.205C96.2906 143.205 97.1521 143.406 97.8882 143.807C98.641 144.209 99.2181 144.736 99.6196 145.388V143.406H103.91V157.382C103.91 158.671 103.651 159.833 103.133 160.87C102.631 161.924 101.853 162.761 100.799 163.38C99.7618 163.999 98.4653 164.308 96.9096 164.308C94.8352 164.308 93.154 163.815 91.8659 162.828C90.5778 161.857 89.8417 160.536 89.6577 158.863H93.8984C94.0322 159.398 94.3501 159.816 94.8519 160.118C95.3538 160.435 95.9727 160.594 96.7088 160.594C97.5954 160.594 98.298 160.335 98.8166 159.816C99.3519 159.315 99.6196 158.503 99.6196 157.382V155.4C99.2014 156.053 98.6242 156.588 97.8882 157.006C97.1521 157.408 96.2906 157.608 95.3036 157.608C94.1493 157.608 93.1038 157.316 92.167 156.73C91.2302 156.128 90.4858 155.283 89.9337 154.196C89.3984 153.092 89.1307 151.82 89.1307 150.382C89.1307 148.943 89.3984 147.68 89.9337 146.592C90.4858 145.505 91.2302 144.669 92.167 144.083C93.1038 143.498 94.1493 143.205 95.3036 143.205ZM99.6196 150.407C99.6196 149.336 99.3185 148.491 98.7162 147.872C98.1307 147.253 97.4114 146.944 96.5583 146.944C95.7051 146.944 94.9774 147.253 94.3752 147.872C93.7897 148.474 93.4969 149.311 93.4969 150.382C93.4969 151.452 93.7897 152.305 94.3752 152.941C94.9774 153.56 95.7051 153.869 96.5583 153.869C97.4114 153.869 98.1307 153.56 98.7162 152.941C99.3185 152.322 99.6196 151.477 99.6196 150.407Z" fill="#101828"/>
<path d="M115.371 143.255C116.977 143.255 118.265 143.79 119.235 144.861C120.205 145.915 120.69 147.37 120.69 149.227V157.408H116.425V149.804C116.425 148.868 116.182 148.14 115.697 147.621C115.212 147.103 114.559 146.843 113.74 146.843C112.92 146.843 112.268 147.103 111.782 147.621C111.297 148.14 111.055 148.868 111.055 149.804V157.408H106.764V138.839H111.055V145.288C111.49 144.669 112.084 144.175 112.836 143.807C113.589 143.439 114.434 143.255 115.371 143.255Z" fill="#101828"/>
<path d="M131.225 153.769V157.408H129.042C127.486 157.408 126.273 157.031 125.404 156.278C124.534 155.509 124.099 154.263 124.099 152.54V146.969H122.392V143.406H124.099V139.993H128.39V143.406H131.2V146.969H128.39V152.59C128.39 153.008 128.49 153.309 128.691 153.493C128.891 153.677 129.226 153.769 129.694 153.769H131.225Z" fill="#101828"/>
<path d="M137.655 145.388C138.057 144.736 138.634 144.209 139.387 143.807C140.139 143.406 141.001 143.205 141.971 143.205C143.125 143.205 144.171 143.498 145.108 144.083C146.045 144.669 146.781 145.505 147.316 146.592C147.868 147.68 148.144 148.943 148.144 150.382C148.144 151.82 147.868 153.092 147.316 154.196C146.781 155.283 146.045 156.128 145.108 156.73C144.171 157.316 143.125 157.608 141.971 157.608C140.984 157.608 140.123 157.416 139.387 157.031C138.651 156.63 138.073 156.103 137.655 155.45V157.408H133.364V138.839H137.655V145.388ZM143.778 150.382C143.778 149.311 143.477 148.474 142.875 147.872C142.289 147.253 141.561 146.944 140.691 146.944C139.838 146.944 139.111 147.253 138.508 147.872C137.923 148.491 137.63 149.336 137.63 150.407C137.63 151.477 137.923 152.322 138.508 152.941C139.111 153.56 139.838 153.869 140.691 153.869C141.545 153.869 142.272 153.56 142.875 152.941C143.477 152.305 143.778 151.452 143.778 150.382Z" fill="#101828"/>
<path d="M156.518 157.608C155.146 157.608 153.908 157.316 152.804 156.73C151.717 156.145 150.855 155.308 150.219 154.221C149.601 153.133 149.291 151.862 149.291 150.407C149.291 148.968 149.609 147.705 150.245 146.618C150.88 145.513 151.75 144.669 152.854 144.083C153.958 143.498 155.196 143.205 156.568 143.205C157.94 143.205 159.178 143.498 160.282 144.083C161.386 144.669 162.256 145.513 162.891 146.618C163.527 147.705 163.845 148.968 163.845 150.407C163.845 151.845 163.519 153.117 162.866 154.221C162.231 155.308 161.352 156.145 160.232 156.73C159.127 157.316 157.89 157.608 156.518 157.608ZM156.518 153.895C157.338 153.895 158.032 153.593 158.601 152.991C159.186 152.389 159.479 151.527 159.479 150.407C159.479 149.286 159.194 148.424 158.626 147.822C158.074 147.22 157.388 146.919 156.568 146.919C155.732 146.919 155.037 147.22 154.485 147.822C153.933 148.408 153.657 149.269 153.657 150.407C153.657 151.527 153.925 152.389 154.46 152.991C155.012 153.593 155.698 153.895 156.518 153.895Z" fill="#101828"/>
<path d="M174.151 157.408L171.466 153.518L169.208 157.408H164.566L169.183 150.256L164.44 143.406H169.258L171.943 147.27L174.201 143.406H178.843L174.151 150.457L178.969 157.408H174.151Z" fill="#101828"/>
<rect x="0.855469" y="0.5" width="208.288" height="75" rx="37.5" fill="white"/>
<rect x="0.855469" y="0.5" width="208.288" height="75" rx="37.5" stroke="#EAECF0"/>
<path fill-rule="evenodd" clip-rule="evenodd" d="M38.3555 60C50.5057 60 60.3555 50.1503 60.3555 38C60.3555 25.8497 50.5057 16 38.3555 16C26.2052 16 16.3555 25.8497 16.3555 38C16.3555 50.1503 26.2052 60 38.3555 60ZM45.2187 26.2485C45.5528 25.0619 44.4012 24.3601 43.3495 25.1094L28.6679 35.5685C27.5273 36.3811 27.7067 38 28.9374 38H32.8034V37.9701H40.3382L34.1988 40.1363L31.4923 49.7515C31.1582 50.9382 32.3097 51.6399 33.3615 50.8906L48.0431 40.4315C49.1837 39.619 49.0041 38 47.7736 38H41.9108L45.2187 26.2485Z" fill="#155EEF"/>
<path d="M73.3555 47.6154V44.4286H75.8829V31.5714H73.3555V28.3846H83.2456C84.4177 28.3846 85.4342 28.5861 86.295 28.989C87.1741 29.3736 87.8518 29.9322 88.328 30.6648C88.8225 31.3791 89.0698 32.2399 89.0698 33.2473V33.522C89.0698 34.4011 88.9049 35.1245 88.5752 35.6923C88.2456 36.2418 87.8518 36.6722 87.3939 36.9835C86.9544 37.2766 86.5331 37.4872 86.1302 37.6154V38.1099C86.5331 38.2198 86.9727 38.4304 87.4489 38.7418C87.9251 39.0348 88.328 39.4652 88.6577 40.033C89.0057 40.6007 89.1796 41.3425 89.1796 42.2582V42.533C89.1796 43.5952 88.9324 44.511 88.4379 45.2802C87.9434 46.0311 87.2566 46.6081 86.3774 47.011C85.5166 47.4139 84.5093 47.6154 83.3555 47.6154H73.3555ZM79.5093 44.3187H82.9159C83.7035 44.3187 84.3353 44.1264 84.8115 43.7418C85.306 43.3571 85.5533 42.8077 85.5533 42.0934V41.8187C85.5533 41.1044 85.3152 40.5549 84.839 40.1703C84.3628 39.7857 83.7218 39.5934 82.9159 39.5934H79.5093V44.3187ZM79.5093 36.2967H82.861C83.6119 36.2967 84.2254 36.1044 84.7016 35.7198C85.1961 35.3352 85.4434 34.804 85.4434 34.1264V33.8516C85.4434 33.1557 85.2053 32.6245 84.7291 32.2582C84.2529 31.8736 83.6302 31.6813 82.861 31.6813H79.5093V36.2967Z" fill="#101828"/>
<path d="M97.3682 48C96.0129 48 94.7949 47.7253 93.7143 47.1758C92.6337 46.6264 91.7821 45.8297 91.1594 44.7857C90.5367 43.7418 90.2253 42.4872 90.2253 41.022V40.5824C90.2253 39.1172 90.5367 37.8626 91.1594 36.8187C91.7821 35.7747 92.6337 34.978 93.7143 34.4286C94.7949 33.8791 96.0129 33.6044 97.3682 33.6044C98.7235 33.6044 99.9414 33.8791 101.022 34.4286C102.103 34.978 102.954 35.7747 103.577 36.8187C104.2 37.8626 104.511 39.1172 104.511 40.5824V41.022C104.511 42.4872 104.2 43.7418 103.577 44.7857C102.954 45.8297 102.103 46.6264 101.022 47.1758C99.9414 47.7253 98.7235 48 97.3682 48ZM97.3682 44.9231C98.4304 44.9231 99.3096 44.5842 100.006 43.9066C100.702 43.2106 101.049 42.2216 101.049 40.9396V40.6648C101.049 39.3828 100.702 38.4029 100.006 37.7253C99.3279 37.0293 98.4488 36.6813 97.3682 36.6813C96.3059 36.6813 95.4268 37.0293 94.7308 37.7253C94.0348 38.4029 93.6869 39.3828 93.6869 40.6648V40.9396C93.6869 42.2216 94.0348 43.2106 94.7308 43.9066C95.4268 44.5842 96.3059 44.9231 97.3682 44.9231Z" fill="#101828"/>
<path d="M106.333 47.6154V28.3846H109.794V47.6154H106.333Z" fill="#101828"/>
<path d="M117.476 47.6154C116.579 47.6154 115.846 47.3407 115.278 46.7912C114.729 46.2234 114.454 45.4725 114.454 44.5385V36.8462H111.048V33.989H114.454V29.7582H117.916V33.989H121.652V36.8462H117.916V43.9341C117.916 44.4835 118.172 44.7582 118.685 44.7582H121.322V47.6154H117.476Z" fill="#101828"/>
<path d="M129.071 48C127.294 48 125.838 47.6154 124.703 46.8462C123.567 46.0769 122.881 44.978 122.642 43.5494L125.829 42.7253C125.957 43.3663 126.168 43.87 126.461 44.2363C126.773 44.6026 127.148 44.8681 127.588 45.033C128.045 45.1795 128.54 45.2527 129.071 45.2527C129.877 45.2527 130.472 45.1154 130.857 44.8407C131.241 44.5476 131.434 44.1905 131.434 43.7692C131.434 43.348 131.251 43.0275 130.884 42.8077C130.518 42.5696 129.932 42.3773 129.126 42.2308L128.357 42.0934C127.404 41.9103 126.534 41.663 125.747 41.3516C124.959 41.022 124.327 40.5733 123.851 40.0055C123.375 39.4377 123.137 38.7051 123.137 37.8077C123.137 36.4524 123.631 35.4176 124.62 34.7033C125.61 33.9707 126.91 33.6044 128.522 33.6044C130.042 33.6044 131.305 33.9432 132.313 34.6209C133.32 35.2985 133.979 36.1868 134.291 37.2857L131.077 38.2747C130.93 37.5788 130.628 37.0842 130.17 36.7912C129.73 36.4982 129.181 36.3516 128.522 36.3516C127.862 36.3516 127.359 36.4707 127.011 36.7088C126.663 36.9286 126.489 37.2399 126.489 37.6429C126.489 38.0824 126.672 38.4121 127.038 38.6319C127.404 38.8333 127.899 38.989 128.522 39.0989L129.291 39.2363C130.316 39.4194 131.241 39.6667 132.066 39.978C132.908 40.2711 133.567 40.7015 134.044 41.2692C134.538 41.8187 134.785 42.5696 134.785 43.522C134.785 44.9506 134.263 46.0586 133.219 46.8462C132.194 47.6154 130.811 48 129.071 48Z" fill="#101828"/>
<path d="M136.445 47.6154V28.3846H139.907V35.6648H140.401C140.548 35.3718 140.777 35.0788 141.088 34.7857C141.399 34.4927 141.811 34.2546 142.324 34.0714C142.855 33.87 143.524 33.7692 144.33 33.7692C145.392 33.7692 146.317 34.0165 147.104 34.511C147.91 34.9872 148.533 35.6557 148.973 36.5165C149.412 37.359 149.632 38.348 149.632 39.4835V47.6154H146.17V39.7582C146.17 38.7326 145.914 37.9634 145.401 37.4506C144.907 36.9377 144.192 36.6813 143.258 36.6813C142.196 36.6813 141.372 37.0385 140.786 37.7527C140.2 38.4487 139.907 39.4286 139.907 40.6923V47.6154H136.445Z" fill="#101828"/>
<path d="M152 47.6154V33.989H155.462V47.6154H152ZM153.731 32.3956C153.108 32.3956 152.577 32.1941 152.138 31.7912C151.716 31.3883 151.506 30.8571 151.506 30.1978C151.506 29.5385 151.716 29.0073 152.138 28.6044C152.577 28.2015 153.108 28 153.731 28C154.372 28 154.903 28.2015 155.324 28.6044C155.746 29.0073 155.956 29.5385 155.956 30.1978C155.956 30.8571 155.746 31.3883 155.324 31.7912C154.903 32.1941 154.372 32.3956 153.731 32.3956Z" fill="#101828"/>
<path d="M160.177 47.6154V36.8462H156.715V33.989H160.177V31.4615C160.177 30.5275 160.452 29.7857 161.001 29.2363C161.569 28.6685 162.301 28.3846 163.199 28.3846H166.77V31.2418H164.408C163.895 31.2418 163.638 31.5165 163.638 32.0659V33.989H167.21V36.8462H163.638V47.6154H160.177Z" fill="#101828"/>
<path d="M173.468 47.6154C172.57 47.6154 171.837 47.3407 171.27 46.7912C170.72 46.2234 170.446 45.4725 170.446 44.5385V36.8462H167.039V33.989H170.446V29.7582H173.907V33.989H177.643V36.8462H173.907V43.9341C173.907 44.4835 174.163 44.7582 174.676 44.7582H177.314V47.6154H173.468Z" fill="#101828"/>
<rect x="235.43" y="141.345" width="208.288" height="75" rx="37.5" transform="rotate(-27.9637 235.43 141.345)" fill="white"/>
<rect x="235.43" y="141.345" width="208.288" height="75" rx="37.5" transform="rotate(-27.9637 235.43 141.345)" stroke="#EAECF0"/>
<path fill-rule="evenodd" clip-rule="evenodd" d="M296.452 176.314C307.184 170.616 311.265 157.298 305.568 146.566C299.87 135.834 286.552 131.753 275.82 137.451C265.088 143.148 261.007 156.467 266.705 167.198C272.402 177.93 285.72 182.011 296.452 176.314ZM286.688 143.285C286.426 142.08 285.08 142 284.503 143.155L276.439 159.277C275.813 160.53 276.731 161.875 277.818 161.298L281.232 159.486L281.218 159.459L287.873 155.926L283.466 160.718L285.585 170.48C285.846 171.685 287.192 171.764 287.77 170.609L295.833 154.487C296.459 153.235 295.541 151.889 294.455 152.466L289.276 155.215L286.688 143.285Z" fill="#155EEF"/>
<path d="M321.557 148.963L320.063 146.148L322.295 144.963L316.266 133.607L314.034 134.792L312.54 131.977L321.275 127.34C322.31 126.79 323.303 126.491 324.252 126.444C325.209 126.371 326.069 126.547 326.833 126.971C327.605 127.37 328.227 128.014 328.699 128.904L328.828 129.146C329.24 129.923 329.434 130.639 329.409 131.295C329.376 131.935 329.23 132.5 328.971 132.99C328.72 133.454 328.447 133.838 328.151 134.14L328.383 134.577C328.791 134.485 329.278 134.465 329.844 134.517C330.402 134.552 330.96 134.743 331.517 135.09C332.091 135.429 332.592 136.002 333.022 136.811L333.151 137.054C333.649 137.992 333.86 138.917 333.784 139.828C333.699 140.723 333.363 141.555 332.775 142.323C332.204 143.082 331.409 143.733 330.39 144.274L321.557 148.963ZM325.447 143.165L328.456 141.568C329.151 141.199 329.619 140.733 329.859 140.17C330.116 139.598 330.077 138.997 329.742 138.366L329.613 138.123C329.278 137.492 328.81 137.119 328.209 137.002C327.608 136.886 326.952 137.017 326.24 137.395L323.231 138.992L325.447 143.165ZM321.685 136.08L324.645 134.508C325.309 134.156 325.76 133.699 326.001 133.136C326.257 132.564 326.226 131.979 325.909 131.381L325.78 131.138C325.454 130.523 324.994 130.166 324.402 130.066C323.801 129.949 323.161 130.071 322.481 130.432L319.521 132.004L321.685 136.08Z" fill="#101828"/>
<path d="M342.947 138.043C341.75 138.678 340.545 139.007 339.333 139.028C338.121 139.05 336.995 138.745 335.956 138.115C334.916 137.485 334.053 136.523 333.366 135.229L333.16 134.841C332.473 133.546 332.159 132.292 332.22 131.078C332.28 129.864 332.659 128.761 333.356 127.769C334.052 126.777 334.999 125.963 336.196 125.328C337.394 124.692 338.598 124.364 339.81 124.343C341.022 124.321 342.148 124.625 343.188 125.256C344.227 125.886 345.09 126.848 345.777 128.142L345.984 128.53C346.671 129.824 346.984 131.078 346.923 132.292C346.863 133.506 346.484 134.609 345.787 135.601C345.091 136.593 344.144 137.407 342.947 138.043ZM341.504 135.325C342.442 134.827 343.06 134.115 343.357 133.191C343.645 132.25 343.489 131.213 342.887 130.08L342.759 129.838C342.158 128.705 341.391 128.003 340.458 127.731C339.533 127.434 338.594 127.539 337.639 128.046C336.701 128.544 336.088 129.263 335.799 130.204C335.502 131.129 335.654 132.158 336.256 133.29L336.384 133.533C336.986 134.665 337.757 135.376 338.698 135.664C339.63 135.936 340.566 135.823 341.504 135.325Z" fill="#101828"/>
<path d="M350.684 133.5L341.667 116.514L344.724 114.891L353.742 131.876L350.684 133.5Z" fill="#101828"/>
<path d="M360.527 128.274C359.734 128.695 358.958 128.796 358.199 128.577C357.447 128.333 356.853 127.799 356.415 126.974L352.808 120.179L349.799 121.777L348.459 119.253L351.468 117.656L349.484 113.919L352.541 112.296L354.525 116.033L357.825 114.281L359.165 116.804L355.865 118.556L359.189 124.817C359.446 125.302 359.802 125.424 360.255 125.184L362.584 123.947L363.924 126.471L360.527 128.274Z" fill="#101828"/>
<path d="M370.948 123.177C369.379 124.01 367.913 124.353 366.549 124.206C365.185 124.059 364.063 123.411 363.183 122.26L365.611 120.038C366.025 120.544 366.447 120.89 366.878 121.076C367.325 121.254 367.781 121.312 368.247 121.252C368.72 121.167 369.191 120.999 369.66 120.75C370.372 120.373 370.833 119.972 371.044 119.549C371.246 119.11 371.249 118.704 371.051 118.332C370.854 117.96 370.541 117.763 370.115 117.741C369.68 117.702 369.072 117.807 368.291 118.056L367.548 118.295C366.62 118.58 365.736 118.769 364.895 118.864C364.044 118.942 363.276 118.842 362.589 118.563C361.902 118.285 361.348 117.75 360.928 116.957C360.292 115.76 360.244 114.614 360.782 113.52C361.312 112.409 362.289 111.475 363.713 110.72C365.055 110.007 366.33 109.714 367.538 109.84C368.745 109.966 369.744 110.441 370.534 111.266L368.159 113.647C367.703 113.101 367.205 112.806 366.663 112.762C366.137 112.709 365.583 112.837 365.001 113.146C364.418 113.455 364.029 113.797 363.834 114.17C363.629 114.527 363.622 114.884 363.811 115.24C364.017 115.628 364.333 115.833 364.76 115.856C365.178 115.862 365.687 115.768 366.289 115.573L367.033 115.333C368.025 115.014 368.957 114.799 369.831 114.687C370.713 114.551 371.497 114.622 372.184 114.9C372.878 115.154 373.449 115.701 373.895 116.542C374.565 117.804 374.624 119.027 374.071 120.213C373.526 121.373 372.485 122.361 370.948 123.177Z" fill="#101828"/>
<path d="M377.281 119.379L368.263 102.394L371.321 100.771L374.734 107.201L375.171 106.969C375.163 106.642 375.228 106.275 375.366 105.871C375.503 105.466 375.756 105.062 376.123 104.66C376.497 104.233 377.04 103.831 377.752 103.453C378.69 102.955 379.623 102.739 380.551 102.807C381.486 102.849 382.349 103.148 383.141 103.702C383.925 104.24 384.582 105.011 385.115 106.014L388.928 113.196L385.871 114.819L382.186 107.879C381.705 106.973 381.118 106.414 380.425 106.202C379.748 105.981 378.996 106.089 378.171 106.527C377.233 107.025 376.673 107.727 376.49 108.633C376.299 109.522 376.499 110.525 377.092 111.642L380.338 117.756L377.281 119.379Z" fill="#101828"/>
<path d="M391.02 112.085L384.63 100.05L387.688 98.4268L394.077 110.462L391.02 112.085ZM385.412 97.831C384.862 98.123 384.298 98.1941 383.721 98.0444C383.16 97.886 382.725 97.5157 382.416 96.9333C382.107 96.3509 382.044 95.7831 382.227 95.2296C382.426 94.6676 382.801 94.2406 383.351 93.9486C383.917 93.6481 384.481 93.5769 385.042 93.7353C385.603 93.8937 386.038 94.264 386.347 94.8464C386.656 95.4287 386.719 95.9966 386.536 96.55C386.353 97.1035 385.978 97.5305 385.412 97.831Z" fill="#101828"/>
<path d="M398.242 108.251L393.192 98.7395L390.135 100.363L388.795 97.8391L391.852 96.2159L390.667 93.9835C390.229 93.1585 390.124 92.3746 390.352 91.6316C390.587 90.8639 391.101 90.2696 391.893 89.8488L395.048 88.1741L396.388 90.6977L394.301 91.8056C393.848 92.046 393.75 92.4089 394.008 92.8942L394.91 94.5928L398.064 92.9181L399.404 95.4416L396.249 97.1163L401.299 106.628L398.242 108.251Z" fill="#101828"/>
<path d="M409.981 102.019C409.188 102.44 408.412 102.541 407.653 102.322C406.902 102.078 406.307 101.544 405.869 100.719L402.262 93.9244L399.253 95.5218L397.913 92.9982L400.922 91.4008L398.938 87.664L401.996 86.0408L403.979 89.7776L407.279 88.0257L408.619 90.5492L405.319 92.3012L408.643 98.5616C408.9 99.0469 409.256 99.1693 409.709 98.9288L412.038 97.6921L413.378 100.216L409.981 102.019Z" fill="#101828"/>
<rect x="772.43" y="141.333" width="208.288" height="75" rx="37.5" transform="rotate(-27.96 772.43 141.333)" fill="white"/>
<rect x="772.43" y="141.333" width="208.288" height="75" rx="37.5" transform="rotate(-27.96 772.43 141.333)" stroke="#EAECF0"/>
<path fill-rule="evenodd" clip-rule="evenodd" d="M833.45 176.306C844.182 170.609 848.264 157.291 842.568 146.559C836.871 135.827 823.553 131.745 812.821 137.442C802.089 143.138 798.007 156.456 803.703 167.188C809.4 177.92 822.718 182.002 833.45 176.306ZM823.688 143.276C823.427 142.071 822.08 141.991 821.503 143.146L813.439 159.268C812.812 160.521 813.73 161.866 814.817 161.289L818.232 159.477L818.218 159.45L824.873 155.918L820.466 160.709L822.583 170.471C822.844 171.676 824.191 171.756 824.768 170.601L832.832 154.479C833.459 153.227 832.541 151.881 831.454 152.458L826.276 155.207L823.688 143.276Z" fill="#155EEF"/>
<path d="M858.558 148.957L857.064 146.142L859.296 144.957L853.268 133.601L851.036 134.786L849.542 131.971L858.277 127.334C859.313 126.784 860.305 126.486 861.254 126.438C862.211 126.365 863.072 126.541 863.836 126.965C864.607 127.364 865.229 128.008 865.702 128.898L865.83 129.141C866.243 129.917 866.436 130.634 866.411 131.29C866.378 131.93 866.232 132.494 865.973 132.984C865.722 133.449 865.449 133.832 865.153 134.135L865.385 134.571C865.792 134.48 866.279 134.46 866.846 134.511C867.404 134.547 867.962 134.738 868.519 135.085C869.093 135.423 869.594 135.997 870.023 136.806L870.152 137.048C870.65 137.987 870.861 138.912 870.785 139.823C870.7 140.718 870.364 141.55 869.777 142.318C869.205 143.077 868.41 143.727 867.391 144.268L858.558 148.957ZM862.448 143.16L865.457 141.563C866.153 141.193 866.62 140.727 866.861 140.164C867.117 139.593 867.078 138.991 866.743 138.36L866.614 138.118C866.279 137.487 865.811 137.113 865.211 136.997C864.61 136.88 863.953 137.011 863.241 137.389L860.232 138.986L862.448 143.16ZM858.687 136.074L861.647 134.503C862.311 134.151 862.762 133.693 863.003 133.13C863.259 132.559 863.228 131.973 862.911 131.375L862.782 131.132C862.456 130.518 861.996 130.16 861.404 130.06C860.803 129.943 860.163 130.065 859.483 130.426L856.523 131.997L858.687 136.074Z" fill="#101828"/>
<path d="M879.948 138.038C878.751 138.674 877.547 139.002 876.334 139.023C875.122 139.045 873.997 138.74 872.957 138.11C871.918 137.48 871.054 136.518 870.367 135.224L870.161 134.835C869.474 133.541 869.161 132.287 869.222 131.073C869.282 129.859 869.661 128.756 870.358 127.764C871.055 126.772 872.002 125.958 873.199 125.323C874.396 124.687 875.601 124.359 876.813 124.338C878.025 124.316 879.15 124.621 880.19 125.251C881.229 125.881 882.093 126.843 882.78 128.137L882.986 128.526C883.673 129.82 883.986 131.074 883.925 132.288C883.865 133.502 883.486 134.605 882.789 135.597C882.092 136.589 881.145 137.403 879.948 138.038ZM878.506 135.32C879.444 134.822 880.062 134.111 880.359 133.186C880.647 132.245 880.491 131.208 879.89 130.076L879.761 129.833C879.16 128.701 878.393 127.998 877.46 127.726C876.536 127.429 875.596 127.534 874.641 128.041C873.703 128.539 873.09 129.258 872.801 130.199C872.504 131.124 872.656 132.153 873.258 133.285L873.386 133.528C873.987 134.66 874.758 135.371 875.7 135.659C876.632 135.931 877.567 135.818 878.506 135.32Z" fill="#101828"/>
<path d="M887.686 133.495L878.67 116.509L881.727 114.886L890.743 131.872L887.686 133.495Z" fill="#101828"/>
<path d="M897.529 128.271C896.736 128.691 895.96 128.792 895.201 128.573C894.45 128.329 893.855 127.795 893.417 126.97L889.81 120.175L886.801 121.773L885.462 119.249L888.471 117.652L886.487 113.915L889.545 112.292L891.528 116.029L894.828 114.277L896.168 116.801L892.868 118.552L896.191 124.813C896.449 125.298 896.804 125.421 897.257 125.18L899.586 123.944L900.926 126.467L897.529 128.271Z" fill="#101828"/>
<path d="M907.951 123.174C906.381 124.007 904.915 124.35 903.551 124.203C902.188 124.056 901.066 123.407 900.186 122.257L902.614 120.035C903.028 120.541 903.45 120.887 903.881 121.073C904.327 121.251 904.784 121.309 905.249 121.249C905.722 121.164 906.193 120.997 906.663 120.748C907.374 120.37 907.836 119.969 908.047 119.546C908.249 119.107 908.251 118.701 908.054 118.329C907.856 117.957 907.544 117.76 907.118 117.738C906.683 117.699 906.075 117.804 905.294 118.053L904.55 118.292C903.623 118.577 902.739 118.766 901.897 118.86C901.047 118.938 900.279 118.838 899.592 118.56C898.905 118.282 898.351 117.746 897.93 116.954C897.295 115.757 897.247 114.611 897.785 113.516C898.315 112.405 899.292 111.472 900.716 110.716C902.059 110.004 903.334 109.71 904.541 109.837C905.749 109.963 906.747 110.438 907.538 111.263L905.162 113.644C904.707 113.098 904.208 112.803 903.666 112.758C903.14 112.706 902.586 112.834 902.004 113.143C901.422 113.452 901.032 113.793 900.837 114.167C900.632 114.524 900.625 114.881 900.814 115.237C901.02 115.625 901.336 115.83 901.763 115.853C902.181 115.859 902.69 115.764 903.292 115.57L904.036 115.33C905.028 115.011 905.96 114.796 906.834 114.684C907.716 114.548 908.5 114.619 909.187 114.898C909.881 115.151 910.452 115.698 910.898 116.54C911.568 117.801 911.627 119.025 911.074 120.21C910.528 121.37 909.487 122.358 907.951 123.174Z" fill="#101828"/>
<path d="M914.284 119.377L905.267 102.391L908.325 100.768L911.738 107.198L912.175 106.967C912.167 106.639 912.232 106.273 912.369 105.868C912.507 105.463 912.759 105.06 913.126 104.658C913.501 104.231 914.044 103.828 914.756 103.45C915.694 102.952 916.627 102.737 917.555 102.805C918.49 102.847 919.353 103.146 920.145 103.7C920.928 104.238 921.586 105.009 922.118 106.012L925.931 113.194L922.874 114.817L919.19 107.877C918.709 106.971 918.122 106.412 917.428 106.2C916.751 105.978 916 106.087 915.175 106.525C914.237 107.023 913.676 107.725 913.493 108.63C913.302 109.52 913.503 110.523 914.095 111.639L917.341 117.754L914.284 119.377Z" fill="#101828"/>
<path d="M928.023 112.084L921.634 100.048L924.692 98.4251L931.081 110.461L928.023 112.084ZM922.416 97.8291C921.866 98.1211 921.302 98.1922 920.725 98.0424C920.164 97.884 919.729 97.5136 919.42 96.9312C919.111 96.3488 919.048 95.7809 919.231 95.2275C919.43 94.6655 919.805 94.2386 920.355 93.9466C920.921 93.6461 921.485 93.575 922.046 93.7334C922.607 93.8918 923.042 94.2622 923.351 94.8445C923.66 95.4269 923.723 95.9948 923.54 96.5482C923.357 97.1016 922.982 97.5286 922.416 97.8291Z" fill="#101828"/>
<path d="M935.245 108.25L930.196 98.7381L927.139 100.361L925.799 97.8374L928.856 96.2144L927.671 93.982C927.233 93.1569 927.128 92.373 927.356 91.63C927.591 90.8623 928.105 90.2681 928.898 89.8473L932.053 88.1729L933.392 90.6965L931.305 91.8042C930.852 92.0447 930.755 92.4075 931.012 92.8929L931.914 94.5915L935.068 92.917L936.408 95.4406L933.254 97.1151L938.303 106.627L935.245 108.25Z" fill="#101828"/>
<path d="M946.985 102.019C946.192 102.44 945.416 102.54 944.657 102.321C943.905 102.077 943.311 101.543 942.873 100.718L939.266 93.9235L936.257 95.5207L934.918 92.9971L937.927 91.3999L935.943 87.663L939 86.04L940.984 89.7769L944.284 88.0252L945.624 90.5488L942.324 92.3006L945.647 98.5611C945.904 99.0465 946.26 99.1689 946.713 98.9285L949.042 97.6919L950.382 100.216L946.985 102.019Z" fill="#101828"/>
<rect x="240.855" y="216.5" width="244" height="79" rx="39.5" fill="white"/>
<rect x="240.855" y="216.5" width="244" height="79" rx="39.5" stroke="#EAECF0"/>
<path d="M286.784 234H269.927L256.355 247.571V264.429L269.927 278H286.784L300.355 264.429V247.571L286.784 234ZM272.259 264.641L263.565 255.947L272.259 247.253C275.546 243.966 280.953 243.966 284.24 247.253L292.934 255.947L284.24 264.641C280.953 267.928 275.652 267.928 272.259 264.641Z" fill="#444CE7"/>
<path d="M319.695 266.24C322.395 266.24 324.615 264.86 325.305 262.79V266H329.295V257.9C329.295 256.07 327.855 254.51 325.905 254.51H320.205V257.9H324.255C324.765 257.9 325.095 258.23 325.095 258.74C325.095 260.69 322.515 262.58 319.905 262.58C316.425 262.58 313.665 259.85 313.665 255.5C313.665 251.15 316.425 248.63 319.995 248.63C322.695 248.63 324.555 250.1 324.885 252.35H329.355C329.085 247.85 325.305 244.76 320.025 244.76C314.475 244.76 309.375 248.33 309.375 255.5C309.375 262.67 314.325 266.24 319.695 266.24Z" fill="#101828"/>
<path d="M331.008 266H335.178V244.31H331.008V266Z" fill="#101828"/>
<path d="M344.173 266.24C348.823 266.24 352.153 262.94 352.153 258.44C352.153 253.94 348.823 250.64 344.173 250.64C339.523 250.64 336.193 253.94 336.193 258.44C336.193 262.94 339.523 266.24 344.173 266.24ZM344.173 262.64C341.923 262.64 340.393 260.93 340.393 258.44C340.393 255.92 341.923 254.21 344.173 254.21C346.423 254.21 347.953 255.92 347.953 258.44C347.953 260.93 346.423 262.64 344.173 262.64Z" fill="#101828"/>
<path d="M361.484 266.24C365.954 266.24 368.624 263.15 368.624 258.44C368.624 253.73 365.954 250.64 361.544 250.64C359.654 250.64 358.184 251.36 357.344 252.47V244.31H353.174V266H357.344V264.35C358.184 265.52 359.744 266.24 361.484 266.24ZM360.824 262.64C358.574 262.64 357.104 260.96 357.104 258.44C357.104 255.89 358.574 254.21 360.824 254.21C363.014 254.21 364.514 255.89 364.514 258.44C364.514 260.96 363.014 262.64 360.824 262.64Z" fill="#101828"/>
<path d="M375.604 250.64C371.464 250.64 369.004 253.07 368.824 256.1H372.544C372.604 254.84 373.534 253.7 375.364 253.7C377.074 253.7 378.064 254.57 378.064 255.83C378.064 256.46 377.674 256.94 376.924 256.94H374.374C371.074 256.94 368.854 258.74 368.854 261.71C368.854 264.29 370.864 266.24 373.804 266.24C375.874 266.24 377.554 265.31 378.064 263.9V266H382.204V256.28C382.204 252.86 379.414 250.64 375.604 250.64ZM374.854 263.21C373.684 263.21 372.844 262.52 372.844 261.53C372.844 260.36 373.744 259.58 375.004 259.58H378.064V259.79C378.064 261.71 376.894 263.21 374.854 263.21Z" fill="#101828"/>
<path d="M383.807 266H387.977V244.31H383.807V266Z" fill="#101828"/>
<path d="M390.192 266H398.772C403.212 266 406.272 263.72 406.272 259.73C406.272 256.97 404.652 255.29 402.732 254.54C403.962 253.88 405.192 252.38 405.192 250.4C405.192 246.89 402.342 245 398.532 245H390.192V266ZM394.632 253.01V248.57H398.112C400.122 248.57 401.022 249.38 401.022 250.79C401.022 252.2 400.122 253.01 398.202 253.01H394.632ZM394.632 262.1V256.82H398.382C400.872 256.82 401.982 257.78 401.982 259.49C401.982 261.2 400.872 262.1 398.382 262.1H394.632Z" fill="#101828"/>
<path d="M413.526 250.64C409.386 250.64 406.926 253.07 406.746 256.1H410.466C410.526 254.84 411.456 253.7 413.286 253.7C414.996 253.7 415.986 254.57 415.986 255.83C415.986 256.46 415.596 256.94 414.846 256.94H412.296C408.996 256.94 406.776 258.74 406.776 261.71C406.776 264.29 408.786 266.24 411.726 266.24C413.796 266.24 415.476 265.31 415.986 263.9V266H420.126V256.28C420.126 252.86 417.336 250.64 413.526 250.64ZM412.776 263.21C411.606 263.21 410.766 262.52 410.766 261.53C410.766 260.36 411.666 259.58 412.926 259.58H415.986V259.79C415.986 261.71 414.816 263.21 412.776 263.21Z" fill="#101828"/>
<path d="M421.489 266H425.689V257.72C425.689 255.77 426.979 254.36 428.809 254.36C430.549 254.36 431.719 255.68 431.719 257.51V266H435.919V256.58C435.919 253.1 433.699 250.64 430.279 250.64C428.209 250.64 426.529 251.51 425.689 252.98V250.88H421.489V266Z" fill="#101828"/>
<path d="M447.889 266H452.929L446.419 256.82L452.449 250.88H447.169L441.919 256.04V244.31H437.719V266H441.919V261.26L443.599 259.61L447.889 266Z" fill="#101828"/>
<rect x="516.855" y="218.5" width="208.288" height="75" rx="37.5" fill="white"/>
<rect x="516.855" y="218.5" width="208.288" height="75" rx="37.5" stroke="#EAECF0"/>
<path fill-rule="evenodd" clip-rule="evenodd" d="M554.355 278C566.506 278 576.355 268.15 576.355 256C576.355 243.85 566.506 234 554.355 234C542.205 234 532.355 243.85 532.355 256C532.355 268.15 542.205 278 554.355 278ZM561.219 244.249C561.553 243.062 560.401 242.36 559.349 243.109L544.668 253.569C543.527 254.381 543.707 256 544.937 256H548.803V255.97H556.338L550.199 258.136L547.492 267.752C547.158 268.938 548.31 269.64 549.361 268.891L564.043 258.432C565.184 257.619 565.004 256 563.774 256H557.911L561.219 244.249Z" fill="#155EEF"/>
<path d="M589.355 265.615V262.429H591.883V249.571H589.355V246.385H599.246C600.418 246.385 601.434 246.586 602.295 246.989C603.174 247.374 603.852 247.932 604.328 248.665C604.823 249.379 605.07 250.24 605.07 251.247V251.522C605.07 252.401 604.905 253.125 604.575 253.692C604.246 254.242 603.852 254.672 603.394 254.984C602.954 255.277 602.533 255.487 602.13 255.615V256.11C602.533 256.22 602.973 256.43 603.449 256.742C603.925 257.035 604.328 257.465 604.658 258.033C605.006 258.601 605.18 259.342 605.18 260.258V260.533C605.18 261.595 604.932 262.511 604.438 263.28C603.943 264.031 603.257 264.608 602.377 265.011C601.517 265.414 600.509 265.615 599.355 265.615H589.355ZM595.509 262.319H598.916C599.703 262.319 600.335 262.126 600.812 261.742C601.306 261.357 601.553 260.808 601.553 260.093V259.819C601.553 259.104 601.315 258.555 600.839 258.17C600.363 257.786 599.722 257.593 598.916 257.593H595.509V262.319ZM595.509 254.297H598.861C599.612 254.297 600.225 254.104 600.702 253.72C601.196 253.335 601.443 252.804 601.443 252.126V251.852C601.443 251.156 601.205 250.625 600.729 250.258C600.253 249.874 599.63 249.681 598.861 249.681H595.509V254.297Z" fill="#101828"/>
<path d="M613.368 266C612.013 266 610.795 265.725 609.714 265.176C608.634 264.626 607.782 263.83 607.159 262.786C606.537 261.742 606.225 260.487 606.225 259.022V258.582C606.225 257.117 606.537 255.863 607.159 254.819C607.782 253.775 608.634 252.978 609.714 252.429C610.795 251.879 612.013 251.604 613.368 251.604C614.723 251.604 615.941 251.879 617.022 252.429C618.103 252.978 618.954 253.775 619.577 254.819C620.2 255.863 620.511 257.117 620.511 258.582V259.022C620.511 260.487 620.2 261.742 619.577 262.786C618.954 263.83 618.103 264.626 617.022 265.176C615.941 265.725 614.723 266 613.368 266ZM613.368 262.923C614.43 262.923 615.31 262.584 616.006 261.907C616.702 261.211 617.049 260.222 617.049 258.94V258.665C617.049 257.383 616.702 256.403 616.006 255.725C615.328 255.029 614.449 254.681 613.368 254.681C612.306 254.681 611.427 255.029 610.731 255.725C610.035 256.403 609.687 257.383 609.687 258.665V258.94C609.687 260.222 610.035 261.211 610.731 261.907C611.427 262.584 612.306 262.923 613.368 262.923Z" fill="#101828"/>
<path d="M622.333 265.615V246.385H625.794V265.615H622.333Z" fill="#101828"/>
<path d="M633.476 265.615C632.579 265.615 631.846 265.341 631.278 264.791C630.729 264.223 630.454 263.473 630.454 262.538V254.846H627.048V251.989H630.454V247.758H633.916V251.989H637.652V254.846H633.916V261.934C633.916 262.484 634.172 262.758 634.685 262.758H637.322V265.615H633.476Z" fill="#101828"/>
<path d="M645.071 266C643.294 266 641.838 265.615 640.703 264.846C639.567 264.077 638.881 262.978 638.642 261.549L641.829 260.725C641.957 261.366 642.168 261.87 642.461 262.236C642.773 262.603 643.148 262.868 643.588 263.033C644.045 263.179 644.54 263.253 645.071 263.253C645.877 263.253 646.472 263.115 646.857 262.841C647.241 262.548 647.434 262.19 647.434 261.769C647.434 261.348 647.251 261.027 646.884 260.808C646.518 260.57 645.932 260.377 645.126 260.231L644.357 260.093C643.404 259.91 642.534 259.663 641.747 259.352C640.959 259.022 640.327 258.573 639.851 258.005C639.375 257.438 639.137 256.705 639.137 255.808C639.137 254.452 639.631 253.418 640.62 252.703C641.61 251.971 642.91 251.604 644.522 251.604C646.042 251.604 647.305 251.943 648.313 252.621C649.32 253.299 649.979 254.187 650.291 255.286L647.077 256.275C646.93 255.579 646.628 255.084 646.17 254.791C645.73 254.498 645.181 254.352 644.522 254.352C643.862 254.352 643.359 254.471 643.011 254.709C642.663 254.929 642.489 255.24 642.489 255.643C642.489 256.082 642.672 256.412 643.038 256.632C643.404 256.833 643.899 256.989 644.522 257.099L645.291 257.236C646.316 257.419 647.241 257.667 648.066 257.978C648.908 258.271 649.567 258.701 650.044 259.269C650.538 259.819 650.785 260.57 650.785 261.522C650.785 262.951 650.263 264.059 649.219 264.846C648.194 265.615 646.811 266 645.071 266Z" fill="#101828"/>
<path d="M652.445 265.615V246.385H655.907V253.665H656.401C656.548 253.372 656.777 253.079 657.088 252.786C657.399 252.493 657.811 252.255 658.324 252.071C658.855 251.87 659.524 251.769 660.33 251.769C661.392 251.769 662.317 252.016 663.104 252.511C663.91 252.987 664.533 253.656 664.973 254.516C665.412 255.359 665.632 256.348 665.632 257.484V265.615H662.17V257.758C662.17 256.733 661.914 255.963 661.401 255.451C660.907 254.938 660.192 254.681 659.258 254.681C658.196 254.681 657.372 255.038 656.786 255.753C656.2 256.449 655.907 257.429 655.907 258.692V265.615H652.445Z" fill="#101828"/>
<path d="M668 265.615V251.989H671.462V265.615H668ZM669.731 250.396C669.108 250.396 668.577 250.194 668.138 249.791C667.716 249.388 667.506 248.857 667.506 248.198C667.506 247.538 667.716 247.007 668.138 246.604C668.577 246.201 669.108 246 669.731 246C670.372 246 670.903 246.201 671.324 246.604C671.746 247.007 671.956 247.538 671.956 248.198C671.956 248.857 671.746 249.388 671.324 249.791C670.903 250.194 670.372 250.396 669.731 250.396Z" fill="#101828"/>
<path d="M676.177 265.615V254.846H672.715V251.989H676.177V249.462C676.177 248.527 676.452 247.786 677.001 247.236C677.569 246.668 678.301 246.385 679.199 246.385H682.77V249.242H680.408C679.895 249.242 679.638 249.516 679.638 250.066V251.989H683.21V254.846H679.638V265.615H676.177Z" fill="#101828"/>
<path d="M689.468 265.615C688.57 265.615 687.837 265.341 687.27 264.791C686.72 264.223 686.446 263.473 686.446 262.538V254.846H683.039V251.989H686.446V247.758H689.907V251.989H693.643V254.846H689.907V261.934C689.907 262.484 690.163 262.758 690.676 262.758H693.314V265.615H689.468Z" fill="#101828"/>
<rect x="757.855" y="218.5" width="228.5" height="75" rx="37.5" fill="white"/>
<rect x="757.855" y="218.5" width="228.5" height="75" rx="37.5" stroke="#EAECF0"/>
<path d="M806.637 244.233C806.241 243.837 805.845 243.44 805.449 243.044C804.26 241.776 802.992 240.509 801.407 239.716C799.585 238.765 797.604 239.003 795.623 239.003C792.612 239.003 785.084 239.003 780.646 239.003L783.658 243.044C789.125 243.044 797.683 243.044 801.645 243.044C803.309 243.044 804.736 243.361 806.083 244.233C806.32 244.312 806.558 244.312 806.637 244.233Z" fill="#66C61C"/>
<path d="M809.964 250.731C809.567 250.334 809.171 249.938 808.775 249.542C807.586 248.274 806.318 247.006 804.734 246.214C802.911 245.263 800.93 245.501 798.949 245.501C796.334 245.501 790.074 245.501 785.637 245.501L788.648 249.542C794.036 249.542 801.406 249.542 805.051 249.542C806.715 249.542 808.141 249.859 809.488 250.731C809.647 250.81 809.805 250.81 809.964 250.731Z" fill="#4CA30D"/>
<path d="M813.688 257.07C813.292 256.674 812.896 256.277 812.5 255.881C811.311 254.613 810.043 253.345 808.458 252.553C806.636 251.602 804.655 251.84 802.674 251.84C800.217 251.84 794.829 251.84 790.471 251.84L793.482 255.881C798.712 255.881 805.368 255.881 808.696 255.881C810.36 255.881 811.786 256.198 813.133 257.07C813.371 257.149 813.53 257.228 813.688 257.07Z" fill="#3B7C0F"/>
<path d="M780.328 267.767C780.724 268.163 781.121 268.559 781.517 268.956C782.705 270.223 783.973 271.491 785.558 272.284C787.381 273.235 789.362 272.997 791.343 272.997H806.319L803.308 268.956C797.84 268.956 789.282 268.956 785.32 268.956C783.656 268.956 782.23 268.639 780.883 267.767C780.645 267.688 780.487 267.688 780.328 267.767Z" fill="#66C61C"/>
<path d="M777 261.27C777.396 261.666 777.792 262.062 778.189 262.458C779.377 263.726 780.645 264.994 782.23 265.786C784.052 266.737 786.033 266.5 788.014 266.5H801.327L798.316 262.458C792.927 262.458 785.558 262.458 781.913 262.458C780.249 262.458 778.823 262.141 777.475 261.27C777.317 261.19 777.158 261.19 777 261.27Z" fill="#4CA30D"/>
<path d="M773.355 254.851C773.752 255.247 774.148 255.643 774.544 256.04C775.733 257.307 777.001 258.575 778.585 259.368C780.408 260.319 782.389 260.081 784.37 260.081H796.573L793.562 256.04C788.332 256.04 781.676 256.04 778.348 256.04C776.684 256.04 775.257 255.723 773.91 254.851C773.672 254.772 773.514 254.772 773.355 254.851Z" fill="#3B7C0F"/>
<path d="M822.793 246.841V265.167H826.823V257.595H834.497V254.464H826.823V250.229H835.678V246.841H822.793Z" fill="#101828"/>
<path d="M845.784 257.107H839.855C839.873 256.851 839.924 256.56 840.009 256.235C840.112 255.91 840.275 255.602 840.497 255.311C840.737 255.02 841.045 254.78 841.421 254.592C841.815 254.387 842.302 254.284 842.884 254.284C843.774 254.284 844.433 254.524 844.86 255.003C845.305 255.482 845.613 256.183 845.784 257.107ZM839.855 259.417H849.429C849.498 258.391 849.412 257.407 849.172 256.466C848.933 255.525 848.539 254.686 847.992 253.95C847.461 253.215 846.777 252.633 845.938 252.205C845.1 251.76 844.116 251.538 842.987 251.538C841.977 251.538 841.053 251.717 840.215 252.077C839.393 252.436 838.683 252.932 838.084 253.565C837.486 254.181 837.024 254.917 836.698 255.773C836.373 256.628 836.211 257.552 836.211 258.545C836.211 259.571 836.365 260.513 836.673 261.368C836.998 262.224 837.451 262.959 838.033 263.575C838.615 264.191 839.325 264.671 840.163 265.013C841.002 265.338 841.943 265.5 842.987 265.5C844.493 265.5 845.776 265.158 846.837 264.474C847.898 263.789 848.685 262.651 849.198 261.06H845.99C845.87 261.471 845.545 261.864 845.014 262.241C844.484 262.6 843.851 262.78 843.115 262.78C842.088 262.78 841.301 262.515 840.754 261.984C840.206 261.454 839.907 260.598 839.855 259.417Z" fill="#101828"/>
<path d="M850.667 255.978C850.718 255.123 850.932 254.412 851.308 253.848C851.685 253.283 852.164 252.83 852.746 252.487C853.328 252.145 853.978 251.906 854.696 251.769C855.432 251.615 856.168 251.538 856.904 251.538C857.571 251.538 858.247 251.589 858.931 251.692C859.616 251.777 860.24 251.957 860.805 252.231C861.37 252.505 861.832 252.89 862.191 253.386C862.55 253.865 862.73 254.507 862.73 255.311V262.215C862.73 262.814 862.764 263.387 862.833 263.935C862.901 264.482 863.021 264.893 863.192 265.167H859.496C859.428 264.961 859.368 264.756 859.316 264.551C859.282 264.328 859.257 264.106 859.239 263.883C858.658 264.482 857.973 264.902 857.186 265.141C856.399 265.381 855.595 265.5 854.773 265.5C854.14 265.5 853.55 265.423 853.002 265.269C852.455 265.115 851.976 264.876 851.565 264.551C851.154 264.226 850.829 263.815 850.59 263.319C850.367 262.823 850.256 262.232 850.256 261.548C850.256 260.795 850.384 260.179 850.641 259.7C850.915 259.204 851.257 258.81 851.668 258.519C852.096 258.228 852.575 258.014 853.105 257.877C853.653 257.723 854.2 257.604 854.748 257.518C855.295 257.433 855.834 257.364 856.365 257.313C856.895 257.261 857.366 257.184 857.776 257.082C858.187 256.979 858.512 256.834 858.752 256.645C858.991 256.44 859.103 256.149 859.085 255.773C859.085 255.379 859.017 255.071 858.88 254.849C858.76 254.609 858.589 254.43 858.367 254.31C858.161 254.173 857.913 254.087 857.622 254.053C857.349 254.002 857.049 253.976 856.724 253.976C856.005 253.976 855.441 254.13 855.03 254.438C854.619 254.746 854.38 255.259 854.311 255.978H850.667ZM859.085 258.673C858.931 258.81 858.735 258.921 858.495 259.007C858.273 259.075 858.025 259.135 857.751 259.186C857.494 259.238 857.22 259.281 856.929 259.315C856.639 259.349 856.348 259.392 856.057 259.443C855.783 259.494 855.509 259.563 855.235 259.648C854.979 259.734 854.748 259.854 854.542 260.008C854.354 260.145 854.2 260.324 854.08 260.547C853.961 260.769 853.901 261.052 853.901 261.394C853.901 261.719 853.961 261.993 854.08 262.215C854.2 262.438 854.363 262.617 854.568 262.754C854.773 262.874 855.013 262.959 855.287 263.011C855.561 263.062 855.843 263.088 856.134 263.088C856.852 263.088 857.409 262.968 857.802 262.728C858.196 262.489 858.487 262.207 858.675 261.881C858.863 261.539 858.974 261.197 859.008 260.855C859.06 260.513 859.085 260.239 859.085 260.033V258.673Z" fill="#101828"/>
<path d="M869.409 251.897V247.919H865.764V251.897H863.557V254.335H865.764V262.164C865.764 262.831 865.876 263.37 866.098 263.781C866.32 264.191 866.62 264.508 866.996 264.73C867.39 264.953 867.835 265.098 868.331 265.167C868.844 265.252 869.383 265.295 869.948 265.295C870.307 265.295 870.675 265.287 871.052 265.269C871.428 265.252 871.77 265.218 872.078 265.167V262.343C871.907 262.378 871.728 262.403 871.539 262.42C871.351 262.438 871.154 262.446 870.949 262.446C870.333 262.446 869.922 262.343 869.717 262.138C869.512 261.933 869.409 261.522 869.409 260.906V254.335H872.078V251.897H869.409Z" fill="#101828"/>
<path d="M873.042 246.841V265.167H876.687V258.211C876.687 256.859 876.91 255.893 877.354 255.311C877.799 254.712 878.518 254.412 879.51 254.412C880.383 254.412 880.991 254.686 881.333 255.234C881.675 255.764 881.846 256.577 881.846 257.672V265.167H885.491V257.005C885.491 256.183 885.414 255.439 885.26 254.772C885.123 254.087 884.875 253.514 884.515 253.052C884.156 252.573 883.66 252.205 883.027 251.948C882.411 251.675 881.615 251.538 880.64 251.538C879.955 251.538 879.254 251.717 878.535 252.077C877.816 252.419 877.226 252.975 876.764 253.745H876.687V246.841H873.042Z" fill="#101828"/>
<path d="M896.419 257.107H890.49C890.507 256.851 890.558 256.56 890.644 256.235C890.747 255.91 890.909 255.602 891.132 255.311C891.371 255.02 891.679 254.78 892.056 254.592C892.449 254.387 892.937 254.284 893.519 254.284C894.408 254.284 895.067 254.524 895.495 255.003C895.94 255.482 896.248 256.183 896.419 257.107ZM890.49 259.417H900.064C900.132 258.391 900.047 257.407 899.807 256.466C899.567 255.525 899.174 254.686 898.626 253.95C898.096 253.215 897.411 252.633 896.573 252.205C895.735 251.76 894.751 251.538 893.621 251.538C892.612 251.538 891.688 251.717 890.849 252.077C890.028 252.436 889.318 252.932 888.719 253.565C888.12 254.181 887.658 254.917 887.333 255.773C887.008 256.628 886.845 257.552 886.845 258.545C886.845 259.571 886.999 260.513 887.307 261.368C887.632 262.224 888.086 262.959 888.668 263.575C889.249 264.191 889.96 264.671 890.798 265.013C891.636 265.338 892.578 265.5 893.621 265.5C895.127 265.5 896.41 265.158 897.471 264.474C898.532 263.789 899.319 262.651 899.833 261.06H896.624C896.505 261.471 896.179 261.864 895.649 262.241C895.119 262.6 894.485 262.78 893.75 262.78C892.723 262.78 891.936 262.515 891.388 261.984C890.841 261.454 890.541 260.598 890.49 259.417Z" fill="#101828"/>
<path d="M901.455 251.897V265.167H905.1V259.186C905.1 258.588 905.16 258.031 905.28 257.518C905.399 257.005 905.596 256.56 905.87 256.183C906.161 255.79 906.537 255.482 906.999 255.259C907.461 255.037 908.026 254.926 908.693 254.926C908.916 254.926 909.147 254.943 909.386 254.977C909.626 254.994 909.831 255.02 910.002 255.054V251.666C909.711 251.581 909.446 251.538 909.207 251.538C908.745 251.538 908.3 251.606 907.872 251.743C907.444 251.88 907.042 252.077 906.666 252.333C906.289 252.573 905.956 252.872 905.665 253.232C905.374 253.574 905.143 253.95 904.972 254.361H904.92V251.897H901.455Z" fill="#101828"/>
<path d="M915.076 261.779V250.229H917.951C918.943 250.229 919.773 250.374 920.44 250.665C921.125 250.939 921.672 251.341 922.083 251.871C922.494 252.402 922.784 253.044 922.956 253.796C923.144 254.532 923.238 255.362 923.238 256.286C923.238 257.296 923.11 258.151 922.853 258.853C922.596 259.554 922.254 260.128 921.826 260.572C921.398 261 920.911 261.308 920.363 261.496C919.816 261.685 919.251 261.779 918.669 261.779H915.076ZM911.046 246.841V265.167H918.952C920.355 265.167 921.57 264.936 922.596 264.474C923.64 263.995 924.504 263.344 925.189 262.523C925.89 261.702 926.412 260.726 926.754 259.597C927.096 258.468 927.268 257.236 927.268 255.901C927.268 254.378 927.054 253.052 926.626 251.923C926.215 250.793 925.633 249.852 924.881 249.099C924.145 248.347 923.264 247.782 922.237 247.405C921.227 247.029 920.132 246.841 918.952 246.841H911.046Z" fill="#101828"/>
<path d="M937.848 257.107H931.919C931.936 256.851 931.987 256.56 932.073 256.235C932.175 255.91 932.338 255.602 932.56 255.311C932.8 255.02 933.108 254.78 933.484 254.592C933.878 254.387 934.366 254.284 934.947 254.284C935.837 254.284 936.496 254.524 936.924 255.003C937.368 255.482 937.676 256.183 937.848 257.107ZM931.919 259.417H941.492C941.561 258.391 941.475 257.407 941.236 256.466C940.996 255.525 940.602 254.686 940.055 253.95C939.524 253.215 938.84 252.633 938.002 252.205C937.163 251.76 936.179 251.538 935.05 251.538C934.04 251.538 933.116 251.717 932.278 252.077C931.457 252.436 930.746 252.932 930.148 253.565C929.549 254.181 929.087 254.917 928.762 255.773C928.437 256.628 928.274 257.552 928.274 258.545C928.274 259.571 928.428 260.513 928.736 261.368C929.061 262.224 929.514 262.959 930.096 263.575C930.678 264.191 931.388 264.671 932.227 265.013C933.065 265.338 934.006 265.5 935.05 265.5C936.556 265.5 937.839 265.158 938.9 264.474C939.961 263.789 940.748 262.651 941.261 261.06H938.053C937.933 261.471 937.608 261.864 937.078 262.241C936.547 262.6 935.914 262.78 935.178 262.78C934.152 262.78 933.364 262.515 932.817 261.984C932.269 261.454 931.97 260.598 931.919 259.417Z" fill="#101828"/>
<path d="M950.225 265.167L954.716 251.897H951.097L948.3 260.957H948.248L945.451 251.897H941.626L946.169 265.167H950.225Z" fill="#101828"/>
<rect x="1016.86" y="216.5" width="228.288" height="79" rx="39.5" fill="white"/>
<rect x="1016.86" y="216.5" width="228.288" height="79" rx="39.5" stroke="#EAECF0"/>
<circle cx="1054.36" cy="256.25" r="20.5" stroke="#6927DA" stroke-width="3"/>
<path d="M1062.49 264.382C1058.35 268.521 1053.66 271.223 1049.48 272.297C1045.27 273.381 1041.87 272.757 1039.86 270.746C1037.85 268.734 1037.22 265.338 1038.31 261.124C1039.38 256.947 1042.08 252.258 1046.22 248.118C1050.36 243.979 1055.05 241.277 1059.23 240.203C1063.44 239.119 1066.84 239.743 1068.85 241.754C1070.86 243.766 1071.49 247.162 1070.4 251.376C1069.33 255.553 1066.63 260.242 1062.49 264.382Z" stroke="#6927DA" stroke-width="3"/>
<path d="M1062.49 248.118C1066.63 252.258 1069.33 256.947 1070.4 261.124C1071.49 265.338 1070.86 268.734 1068.85 270.746C1066.84 272.757 1063.44 273.381 1059.23 272.297C1055.05 271.223 1050.36 268.521 1046.22 264.382C1042.09 260.242 1039.38 255.553 1038.31 251.376C1037.23 247.162 1037.85 243.766 1039.86 241.754C1041.87 239.743 1045.27 239.119 1049.48 240.203C1053.66 241.277 1058.35 243.979 1062.49 248.118Z" stroke="#6927DA" stroke-width="3"/>
<path d="M1095.21 266.24C1099.92 266.24 1103.1 263.78 1103.1 259.85C1103.1 251.54 1092.06 255.08 1092.06 250.7C1092.06 249.47 1093.17 248.63 1094.94 248.63C1096.95 248.63 1098.21 249.71 1098.36 251.36H1102.65C1102.53 247.37 1099.47 244.76 1094.94 244.76C1090.68 244.76 1087.68 247.22 1087.68 250.7C1087.68 258.95 1098.57 255.8 1098.57 259.91C1098.57 261.5 1097.22 262.34 1095.21 262.34C1092.99 262.34 1091.58 260.99 1091.4 258.86H1087.08C1087.26 263.33 1090.44 266.24 1095.21 266.24Z" fill="#101828"/>
<path d="M1104.12 272.12H1108.29V264.65C1109.1 265.67 1110.57 266.24 1112.28 266.24C1116.63 266.24 1119.57 263.15 1119.57 258.44C1119.57 253.73 1116.87 250.64 1112.64 250.64C1110.69 250.64 1109.19 251.36 1108.29 252.53V250.88H1104.12V272.12ZM1111.77 262.64C1109.52 262.64 1108.05 260.96 1108.05 258.44C1108.05 255.89 1109.52 254.21 1111.77 254.21C1113.96 254.21 1115.46 255.89 1115.46 258.44C1115.46 260.96 1113.96 262.64 1111.77 262.64Z" fill="#101828"/>
<path d="M1120.58 266H1124.75V257.72C1124.75 255.77 1126.04 254.36 1127.87 254.36C1129.61 254.36 1130.81 255.68 1130.81 257.51V266H1134.98V256.58C1134.98 253.1 1132.76 250.64 1129.37 250.64C1127.27 250.64 1125.62 251.51 1124.75 252.98V244.31H1120.58V266Z" fill="#101828"/>
<path d="M1146.64 260.87C1146.31 262.16 1145.2 262.82 1143.52 262.82C1141.42 262.82 1140.07 261.5 1139.77 259.37H1150.63C1150.66 259.04 1150.69 258.59 1150.69 258.02C1150.69 254.57 1148.56 250.64 1143.22 250.64C1138.09 250.64 1135.75 254.57 1135.75 258.41C1135.75 262.22 1138.39 266.24 1143.52 266.24C1147.24 266.24 1150.12 264.14 1150.72 260.87H1146.64ZM1143.22 253.7C1145.23 253.7 1146.4 255.05 1146.52 256.73H1139.83C1140.19 254.63 1141.33 253.7 1143.22 253.7Z" fill="#101828"/>
<path d="M1161.63 254.36V250.88H1159.48C1157.65 250.88 1156.51 251.51 1155.7 253.4V250.88H1151.5V266H1155.7V258.65C1155.7 256.07 1156.63 254.36 1158.7 254.36H1161.63Z" fill="#101828"/>
<path d="M1176.03 250.88H1171.83V259.16C1171.83 261.08 1170.54 262.52 1168.71 262.52C1167 262.52 1165.8 261.2 1165.8 259.37V250.88H1161.63V260.3C1161.63 263.75 1163.85 266.24 1167.24 266.24C1169.31 266.24 1170.99 265.34 1171.83 263.9V266H1176.03V250.88Z" fill="#101828"/>
<path d="M1177.83 266H1182V244.31H1177.83V266Z" fill="#101828"/>
<path d="M1193.9 260.87C1193.57 262.16 1192.46 262.82 1190.78 262.82C1188.68 262.82 1187.33 261.5 1187.03 259.37H1197.89C1197.92 259.04 1197.95 258.59 1197.95 258.02C1197.95 254.57 1195.82 250.64 1190.48 250.64C1185.35 250.64 1183.01 254.57 1183.01 258.41C1183.01 262.22 1185.65 266.24 1190.78 266.24C1194.5 266.24 1197.38 264.14 1197.98 260.87H1193.9ZM1190.48 253.7C1192.49 253.7 1193.66 255.05 1193.78 256.73H1187.09C1187.45 254.63 1188.59 253.7 1190.48 253.7Z" fill="#101828"/>
<rect x="1036.86" y="108.5" width="208.288" height="75" rx="37.5" fill="white"/>
<rect x="1036.86" y="108.5" width="208.288" height="75" rx="37.5" stroke="#EAECF0"/>
<path fill-rule="evenodd" clip-rule="evenodd" d="M1074.36 168C1086.51 168 1096.36 158.15 1096.36 146C1096.36 133.85 1086.51 124 1074.36 124C1062.21 124 1052.36 133.85 1052.36 146C1052.36 158.15 1062.21 168 1074.36 168ZM1081.22 134.249C1081.55 133.062 1080.4 132.36 1079.35 133.109L1064.67 143.569C1063.53 144.381 1063.71 146 1064.94 146H1068.8V145.97H1076.34L1070.2 148.136L1067.49 157.752C1067.16 158.938 1068.31 159.64 1069.36 158.891L1084.04 148.432C1085.18 147.619 1085 146 1083.77 146H1077.91L1081.22 134.249Z" fill="#155EEF"/>
<path d="M1109.36 155.615V152.429H1111.88V139.571H1109.36V136.385H1119.25C1120.42 136.385 1121.43 136.586 1122.3 136.989C1123.17 137.374 1123.85 137.932 1124.33 138.665C1124.82 139.379 1125.07 140.24 1125.07 141.247V141.522C1125.07 142.401 1124.9 143.125 1124.58 143.692C1124.25 144.242 1123.85 144.672 1123.39 144.984C1122.95 145.277 1122.53 145.487 1122.13 145.615V146.11C1122.53 146.22 1122.97 146.43 1123.45 146.742C1123.93 147.035 1124.33 147.465 1124.66 148.033C1125.01 148.601 1125.18 149.342 1125.18 150.258V150.533C1125.18 151.595 1124.93 152.511 1124.44 153.28C1123.94 154.031 1123.26 154.608 1122.38 155.011C1121.52 155.414 1120.51 155.615 1119.36 155.615H1109.36ZM1115.51 152.319H1118.92C1119.7 152.319 1120.34 152.126 1120.81 151.742C1121.31 151.357 1121.55 150.808 1121.55 150.093V149.819C1121.55 149.104 1121.32 148.555 1120.84 148.17C1120.36 147.786 1119.72 147.593 1118.92 147.593H1115.51V152.319ZM1115.51 144.297H1118.86C1119.61 144.297 1120.23 144.104 1120.7 143.72C1121.2 143.335 1121.44 142.804 1121.44 142.126V141.852C1121.44 141.156 1121.21 140.625 1120.73 140.258C1120.25 139.874 1119.63 139.681 1118.86 139.681H1115.51V144.297Z" fill="#101828"/>
<path d="M1133.37 156C1132.01 156 1130.79 155.725 1129.71 155.176C1128.63 154.626 1127.78 153.83 1127.16 152.786C1126.54 151.742 1126.23 150.487 1126.23 149.022V148.582C1126.23 147.117 1126.54 145.863 1127.16 144.819C1127.78 143.775 1128.63 142.978 1129.71 142.429C1130.79 141.879 1132.01 141.604 1133.37 141.604C1134.72 141.604 1135.94 141.879 1137.02 142.429C1138.1 142.978 1138.95 143.775 1139.58 144.819C1140.2 145.863 1140.51 147.117 1140.51 148.582V149.022C1140.51 150.487 1140.2 151.742 1139.58 152.786C1138.95 153.83 1138.1 154.626 1137.02 155.176C1135.94 155.725 1134.72 156 1133.37 156ZM1133.37 152.923C1134.43 152.923 1135.31 152.584 1136.01 151.907C1136.7 151.211 1137.05 150.222 1137.05 148.94V148.665C1137.05 147.383 1136.7 146.403 1136.01 145.725C1135.33 145.029 1134.45 144.681 1133.37 144.681C1132.31 144.681 1131.43 145.029 1130.73 145.725C1130.03 146.403 1129.69 147.383 1129.69 148.665V148.94C1129.69 150.222 1130.03 151.211 1130.73 151.907C1131.43 152.584 1132.31 152.923 1133.37 152.923Z" fill="#101828"/>
<path d="M1142.33 155.615V136.385H1145.79V155.615H1142.33Z" fill="#101828"/>
<path d="M1153.48 155.615C1152.58 155.615 1151.85 155.341 1151.28 154.791C1150.73 154.223 1150.45 153.473 1150.45 152.538V144.846H1147.05V141.989H1150.45V137.758H1153.92V141.989H1157.65V144.846H1153.92V151.934C1153.92 152.484 1154.17 152.758 1154.68 152.758H1157.32V155.615H1153.48Z" fill="#101828"/>
<path d="M1165.07 156C1163.29 156 1161.84 155.615 1160.7 154.846C1159.57 154.077 1158.88 152.978 1158.64 151.549L1161.83 150.725C1161.96 151.366 1162.17 151.87 1162.46 152.236C1162.77 152.603 1163.15 152.868 1163.59 153.033C1164.05 153.179 1164.54 153.253 1165.07 153.253C1165.88 153.253 1166.47 153.115 1166.86 152.841C1167.24 152.548 1167.43 152.19 1167.43 151.769C1167.43 151.348 1167.25 151.027 1166.88 150.808C1166.52 150.57 1165.93 150.377 1165.13 150.231L1164.36 150.093C1163.4 149.91 1162.53 149.663 1161.75 149.352C1160.96 149.022 1160.33 148.573 1159.85 148.005C1159.38 147.438 1159.14 146.705 1159.14 145.808C1159.14 144.452 1159.63 143.418 1160.62 142.703C1161.61 141.971 1162.91 141.604 1164.52 141.604C1166.04 141.604 1167.31 141.943 1168.31 142.621C1169.32 143.299 1169.98 144.187 1170.29 145.286L1167.08 146.275C1166.93 145.579 1166.63 145.084 1166.17 144.791C1165.73 144.498 1165.18 144.352 1164.52 144.352C1163.86 144.352 1163.36 144.471 1163.01 144.709C1162.66 144.929 1162.49 145.24 1162.49 145.643C1162.49 146.082 1162.67 146.412 1163.04 146.632C1163.4 146.833 1163.9 146.989 1164.52 147.099L1165.29 147.236C1166.32 147.419 1167.24 147.667 1168.07 147.978C1168.91 148.271 1169.57 148.701 1170.04 149.269C1170.54 149.819 1170.79 150.57 1170.79 151.522C1170.79 152.951 1170.26 154.059 1169.22 154.846C1168.19 155.615 1166.81 156 1165.07 156Z" fill="#101828"/>
<path d="M1172.45 155.615V136.385H1175.91V143.665H1176.4C1176.55 143.372 1176.78 143.079 1177.09 142.786C1177.4 142.493 1177.81 142.255 1178.32 142.071C1178.86 141.87 1179.52 141.769 1180.33 141.769C1181.39 141.769 1182.32 142.016 1183.1 142.511C1183.91 142.987 1184.53 143.656 1184.97 144.516C1185.41 145.359 1185.63 146.348 1185.63 147.484V155.615H1182.17V147.758C1182.17 146.733 1181.91 145.963 1181.4 145.451C1180.91 144.938 1180.19 144.681 1179.26 144.681C1178.2 144.681 1177.37 145.038 1176.79 145.753C1176.2 146.449 1175.91 147.429 1175.91 148.692V155.615H1172.45Z" fill="#101828"/>
<path d="M1188 155.615V141.989H1191.46V155.615H1188ZM1189.73 140.396C1189.11 140.396 1188.58 140.194 1188.14 139.791C1187.72 139.388 1187.51 138.857 1187.51 138.198C1187.51 137.538 1187.72 137.007 1188.14 136.604C1188.58 136.201 1189.11 136 1189.73 136C1190.37 136 1190.9 136.201 1191.32 136.604C1191.75 137.007 1191.96 137.538 1191.96 138.198C1191.96 138.857 1191.75 139.388 1191.32 139.791C1190.9 140.194 1190.37 140.396 1189.73 140.396Z" fill="#101828"/>
<path d="M1196.18 155.615V144.846H1192.72V141.989H1196.18V139.462C1196.18 138.527 1196.45 137.786 1197 137.236C1197.57 136.668 1198.3 136.385 1199.2 136.385H1202.77V139.242H1200.41C1199.89 139.242 1199.64 139.516 1199.64 140.066V141.989H1203.21V144.846H1199.64V155.615H1196.18Z" fill="#101828"/>
<path d="M1209.47 155.615C1208.57 155.615 1207.84 155.341 1207.27 154.791C1206.72 154.223 1206.45 153.473 1206.45 152.538V144.846H1203.04V141.989H1206.45V137.758H1209.91V141.989H1213.64V144.846H1209.91V151.934C1209.91 152.484 1210.16 152.758 1210.68 152.758H1213.31V155.615H1209.47Z" fill="#101828"/>
<rect x="1036.86" y="0.5" width="208.288" height="75" rx="37.5" fill="white"/>
<rect x="1036.86" y="0.5" width="208.288" height="75" rx="37.5" stroke="#EAECF0"/>
<path fill-rule="evenodd" clip-rule="evenodd" d="M1074.36 60C1086.51 60 1096.36 50.1503 1096.36 38C1096.36 25.8497 1086.51 16 1074.36 16C1062.21 16 1052.36 25.8497 1052.36 38C1052.36 50.1503 1062.21 60 1074.36 60ZM1081.22 26.2485C1081.55 25.0619 1080.4 24.3601 1079.35 25.1094L1064.67 35.5685C1063.53 36.3811 1063.71 38 1064.94 38H1068.8V37.9701H1076.34L1070.2 40.1363L1067.49 49.7515C1067.16 50.9382 1068.31 51.6399 1069.36 50.8906L1084.04 40.4315C1085.18 39.619 1085 38 1083.77 38H1077.91L1081.22 26.2485Z" fill="#155EEF"/>
<path d="M1109.36 47.6154V44.4286H1111.88V31.5714H1109.36V28.3846H1119.25C1120.42 28.3846 1121.43 28.5861 1122.3 28.989C1123.17 29.3736 1123.85 29.9322 1124.33 30.6648C1124.82 31.3791 1125.07 32.2399 1125.07 33.2473V33.522C1125.07 34.4011 1124.9 35.1245 1124.58 35.6923C1124.25 36.2418 1123.85 36.6722 1123.39 36.9835C1122.95 37.2766 1122.53 37.4872 1122.13 37.6154V38.1099C1122.53 38.2198 1122.97 38.4304 1123.45 38.7418C1123.93 39.0348 1124.33 39.4652 1124.66 40.033C1125.01 40.6007 1125.18 41.3425 1125.18 42.2582V42.533C1125.18 43.5952 1124.93 44.511 1124.44 45.2802C1123.94 46.0311 1123.26 46.6081 1122.38 47.011C1121.52 47.4139 1120.51 47.6154 1119.36 47.6154H1109.36ZM1115.51 44.3187H1118.92C1119.7 44.3187 1120.34 44.1264 1120.81 43.7418C1121.31 43.3571 1121.55 42.8077 1121.55 42.0934V41.8187C1121.55 41.1044 1121.32 40.5549 1120.84 40.1703C1120.36 39.7857 1119.72 39.5934 1118.92 39.5934H1115.51V44.3187ZM1115.51 36.2967H1118.86C1119.61 36.2967 1120.23 36.1044 1120.7 35.7198C1121.2 35.3352 1121.44 34.804 1121.44 34.1264V33.8516C1121.44 33.1557 1121.21 32.6245 1120.73 32.2582C1120.25 31.8736 1119.63 31.6813 1118.86 31.6813H1115.51V36.2967Z" fill="#101828"/>
<path d="M1133.37 48C1132.01 48 1130.79 47.7253 1129.71 47.1758C1128.63 46.6264 1127.78 45.8297 1127.16 44.7857C1126.54 43.7418 1126.23 42.4872 1126.23 41.022V40.5824C1126.23 39.1172 1126.54 37.8626 1127.16 36.8187C1127.78 35.7747 1128.63 34.978 1129.71 34.4286C1130.79 33.8791 1132.01 33.6044 1133.37 33.6044C1134.72 33.6044 1135.94 33.8791 1137.02 34.4286C1138.1 34.978 1138.95 35.7747 1139.58 36.8187C1140.2 37.8626 1140.51 39.1172 1140.51 40.5824V41.022C1140.51 42.4872 1140.2 43.7418 1139.58 44.7857C1138.95 45.8297 1138.1 46.6264 1137.02 47.1758C1135.94 47.7253 1134.72 48 1133.37 48ZM1133.37 44.9231C1134.43 44.9231 1135.31 44.5842 1136.01 43.9066C1136.7 43.2106 1137.05 42.2216 1137.05 40.9396V40.6648C1137.05 39.3828 1136.7 38.4029 1136.01 37.7253C1135.33 37.0293 1134.45 36.6813 1133.37 36.6813C1132.31 36.6813 1131.43 37.0293 1130.73 37.7253C1130.03 38.4029 1129.69 39.3828 1129.69 40.6648V40.9396C1129.69 42.2216 1130.03 43.2106 1130.73 43.9066C1131.43 44.5842 1132.31 44.9231 1133.37 44.9231Z" fill="#101828"/>
<path d="M1142.33 47.6154V28.3846H1145.79V47.6154H1142.33Z" fill="#101828"/>
<path d="M1153.48 47.6154C1152.58 47.6154 1151.85 47.3407 1151.28 46.7912C1150.73 46.2234 1150.45 45.4725 1150.45 44.5385V36.8462H1147.05V33.989H1150.45V29.7582H1153.92V33.989H1157.65V36.8462H1153.92V43.9341C1153.92 44.4835 1154.17 44.7582 1154.68 44.7582H1157.32V47.6154H1153.48Z" fill="#101828"/>
<path d="M1165.07 48C1163.29 48 1161.84 47.6154 1160.7 46.8462C1159.57 46.0769 1158.88 44.978 1158.64 43.5494L1161.83 42.7253C1161.96 43.3663 1162.17 43.87 1162.46 44.2363C1162.77 44.6026 1163.15 44.8681 1163.59 45.033C1164.05 45.1795 1164.54 45.2527 1165.07 45.2527C1165.88 45.2527 1166.47 45.1154 1166.86 44.8407C1167.24 44.5476 1167.43 44.1905 1167.43 43.7692C1167.43 43.348 1167.25 43.0275 1166.88 42.8077C1166.52 42.5696 1165.93 42.3773 1165.13 42.2308L1164.36 42.0934C1163.4 41.9103 1162.53 41.663 1161.75 41.3516C1160.96 41.022 1160.33 40.5733 1159.85 40.0055C1159.38 39.4377 1159.14 38.7051 1159.14 37.8077C1159.14 36.4524 1159.63 35.4176 1160.62 34.7033C1161.61 33.9707 1162.91 33.6044 1164.52 33.6044C1166.04 33.6044 1167.31 33.9432 1168.31 34.6209C1169.32 35.2985 1169.98 36.1868 1170.29 37.2857L1167.08 38.2747C1166.93 37.5788 1166.63 37.0842 1166.17 36.7912C1165.73 36.4982 1165.18 36.3516 1164.52 36.3516C1163.86 36.3516 1163.36 36.4707 1163.01 36.7088C1162.66 36.9286 1162.49 37.2399 1162.49 37.6429C1162.49 38.0824 1162.67 38.4121 1163.04 38.6319C1163.4 38.8333 1163.9 38.989 1164.52 39.0989L1165.29 39.2363C1166.32 39.4194 1167.24 39.6667 1168.07 39.978C1168.91 40.2711 1169.57 40.7015 1170.04 41.2692C1170.54 41.8187 1170.79 42.5696 1170.79 43.522C1170.79 44.9506 1170.26 46.0586 1169.22 46.8462C1168.19 47.6154 1166.81 48 1165.07 48Z" fill="#101828"/>
<path d="M1172.45 47.6154V28.3846H1175.91V35.6648H1176.4C1176.55 35.3718 1176.78 35.0788 1177.09 34.7857C1177.4 34.4927 1177.81 34.2546 1178.32 34.0714C1178.86 33.87 1179.52 33.7692 1180.33 33.7692C1181.39 33.7692 1182.32 34.0165 1183.1 34.511C1183.91 34.9872 1184.53 35.6557 1184.97 36.5165C1185.41 37.359 1185.63 38.348 1185.63 39.4835V47.6154H1182.17V39.7582C1182.17 38.7326 1181.91 37.9634 1181.4 37.4506C1180.91 36.9377 1180.19 36.6813 1179.26 36.6813C1178.2 36.6813 1177.37 37.0385 1176.79 37.7527C1176.2 38.4487 1175.91 39.4286 1175.91 40.6923V47.6154H1172.45Z" fill="#101828"/>
<path d="M1188 47.6154V33.989H1191.46V47.6154H1188ZM1189.73 32.3956C1189.11 32.3956 1188.58 32.1941 1188.14 31.7912C1187.72 31.3883 1187.51 30.8571 1187.51 30.1978C1187.51 29.5385 1187.72 29.0073 1188.14 28.6044C1188.58 28.2015 1189.11 28 1189.73 28C1190.37 28 1190.9 28.2015 1191.32 28.6044C1191.75 29.0073 1191.96 29.5385 1191.96 30.1978C1191.96 30.8571 1191.75 31.3883 1191.32 31.7912C1190.9 32.1941 1190.37 32.3956 1189.73 32.3956Z" fill="#101828"/>
<path d="M1196.18 47.6154V36.8462H1192.72V33.989H1196.18V31.4615C1196.18 30.5275 1196.45 29.7857 1197 29.2363C1197.57 28.6685 1198.3 28.3846 1199.2 28.3846H1202.77V31.2418H1200.41C1199.89 31.2418 1199.64 31.5165 1199.64 32.0659V33.989H1203.21V36.8462H1199.64V47.6154H1196.18Z" fill="#101828"/>
<path d="M1209.47 47.6154C1208.57 47.6154 1207.84 47.3407 1207.27 46.7912C1206.72 46.2234 1206.45 45.4725 1206.45 44.5385V36.8462H1203.04V33.989H1206.45V29.7582H1209.91V33.989H1213.64V36.8462H1209.91V43.9341C1209.91 44.4835 1210.16 44.7582 1210.68 44.7582H1213.31V47.6154H1209.47Z" fill="#101828"/>
</svg>
