<svg width="100" height="133" viewBox="0 0 100 133" fill="none" xmlns="http://www.w3.org/2000/svg">
<path d="M47.6275 5.47356L47.5089 10.693H45.1957C42.8232 10.693 42.8232 10.693 42.586 8.14259L42.3488 5.65149L42.2894 8.14259L42.1708 10.693H39.8577C37.4852 10.693 37.4852 10.693 37.2479 8.14259L37.0107 5.65149L36.9514 8.14259L36.8327 10.693H34.1637H31.4947V13.362V16.0311H29.1815C26.809 16.0311 26.809 16.0311 26.5718 13.4807C26.4531 12.1165 26.3345 13.3027 26.2752 16.1497L26.1566 21.3692L20.9964 21.4878C18.0902 21.5471 16.9039 21.6657 18.3274 21.7843C20.8185 22.0216 20.8185 22.0216 20.8185 24.3941V26.7072H18.1495H15.4804V29.317V31.986L12.9893 32.2233L10.4389 32.4605L12.9893 32.5198L15.4804 32.6384V35.0109V37.3834L10.3203 37.502C7.414 37.5613 6.22776 37.68 7.65125 37.7986C10.1423 38.0358 10.1423 38.0951 10.1423 40.349C10.1423 42.6028 10.1423 42.6622 7.65125 42.8994L5.10083 43.1367L7.65125 43.196C10.083 43.3146 10.1423 43.3739 10.1423 45.3312C10.1423 47.3478 10.083 47.4071 7.65125 47.5851C5.10083 47.763 5.10083 47.763 4.92289 50.2541C4.74496 52.7452 4.68565 52.8045 2.72835 52.8045C0.771056 52.8045 0.711744 52.6859 0.474496 50.2541C0.237248 47.6444 0 65.9718 0 85.1295C0 105.77 0.237248 127.241 0.474496 124.691C0.711744 122.318 0.771056 122.2 2.72835 122.2C4.68565 122.2 4.74496 122.259 4.92289 124.691C5.10083 127.241 5.10083 127.241 7.59193 127.419C9.96441 127.597 10.083 127.716 10.3203 129.791L10.5575 131.986L10.6168 129.732C10.7355 127.597 10.7948 127.538 13.0486 127.538C15.4211 127.538 15.4211 127.538 15.6584 130.029L15.8956 132.579L15.9549 130.029L16.0735 127.538H18.3867C20.6999 127.538 20.7592 127.597 20.9964 129.732L21.2337 131.986L21.293 129.791C21.4116 127.656 21.4709 127.597 23.962 127.419C26.4531 127.241 26.4531 127.241 26.6311 124.691C26.809 122.2 26.809 122.2 29.1222 122.2C31.376 122.2 31.4354 122.2 31.6726 124.691L31.9098 127.241L31.9692 124.75C32.0878 122.259 32.0878 122.259 34.6382 122.081C37.1293 121.903 37.1293 121.903 37.3072 119.353C37.4852 116.861 37.4852 116.861 39.7983 116.861C42.0522 116.861 42.1115 116.861 42.3488 119.412L42.586 121.903L42.6453 119.412C42.7639 116.98 42.8232 116.921 45.0178 116.683L47.2123 116.446L45.0178 116.387C42.8232 116.268 42.7639 116.209 42.7639 113.896V111.583L47.6868 111.405L52.5504 111.227L52.7284 108.736C52.9063 106.245 52.9063 106.245 55.3974 106.067C57.8885 105.889 57.8885 105.889 58.0664 103.398C58.2444 100.966 58.3037 100.907 60.7355 100.669L63.2266 100.432L60.7355 100.373C58.2444 100.254 58.1851 100.195 58.1851 98.2375C58.1851 96.2209 58.2444 96.1616 60.7355 95.9836C63.2266 95.8057 63.2266 95.8057 63.4045 93.3146C63.5824 90.8235 63.5824 90.8235 66.0735 90.6455C68.5647 90.4676 68.5647 90.4676 68.7426 87.9765C68.9205 85.5447 68.9798 85.4854 71.4116 85.2481L73.9027 85.0109L71.4116 84.9516L68.8612 84.833V82.4605C68.8612 80.088 68.8612 80.088 71.1744 80.088C73.4875 80.088 73.5469 80.1473 73.7841 82.2826L74.0214 84.5364L74.0807 82.3419C74.1993 80.2659 74.3179 80.1473 76.4531 79.9101L78.6477 79.6728L76.4531 79.6135C74.2586 79.4949 74.1993 79.4356 74.1993 77.1817C74.1993 74.8092 74.1993 74.8092 76.7497 74.6313C79.2408 74.4534 79.2408 74.4534 79.4187 71.9623C79.5967 69.5898 79.7153 69.4712 81.7912 69.2339L83.9858 68.9967L81.7912 68.9374C79.5967 68.8187 79.5374 68.7594 79.5374 66.4463C79.5374 64.0738 79.5374 64.0738 81.8505 64.0738C84.223 64.0738 84.223 64.0738 84.4603 66.5649L84.6975 69.1153L84.7568 66.6242C84.8755 64.1924 84.9348 64.1331 87.1293 63.8958L89.3238 63.6586L87.1293 63.5993C84.9348 63.4807 84.8755 63.4213 84.8755 61.1675C84.8755 58.795 84.8755 58.795 87.4259 58.6171C89.917 58.4391 89.917 58.4391 90.0949 55.948C90.2728 53.5756 90.3915 53.4569 92.4674 53.2197L94.6619 52.9824L92.4674 52.9231C90.2728 52.8045 90.2135 52.7452 90.2135 50.4913C90.2135 48.1189 90.2135 48.1189 92.7639 47.8816L95.255 47.6444L92.7639 47.5851C90.2728 47.4664 90.2135 47.4071 90.2135 45.4498C90.2135 43.4332 90.2728 43.3739 92.7639 43.1367L95.255 42.8994L92.7639 42.8401L90.2135 42.7215V40.349C90.2135 37.9765 90.2135 37.9765 92.5267 37.9765C94.8399 37.9765 94.8992 38.0358 95.1364 40.1711L95.3737 42.4249L95.433 40.2304C95.5516 38.1544 95.6702 38.0358 97.8055 37.7986L100 37.5613L97.8055 37.502C95.6109 37.3834 95.5516 37.3241 95.5516 35.0109C95.5516 32.6977 95.6109 32.6384 97.7461 32.6384C98.9324 32.6384 99.7628 32.4605 99.5848 32.2826C99.3476 32.1046 97.2123 31.986 94.7212 31.986H90.2135V29.6728C90.2135 27.419 90.2135 27.3597 92.7639 27.1224L95.255 26.8852L92.7639 26.8259L90.2135 26.7072V24.3941C90.2135 22.0216 90.2135 22.0216 92.7639 21.7843L95.255 21.5471L92.7639 21.4878L90.2135 21.3692V19.056C90.2135 16.7428 90.2728 16.6835 92.4674 16.4463L94.6619 16.209L92.4674 16.1497C90.3321 16.0311 90.2728 15.9718 90.0356 13.4807L89.7983 10.9896L89.739 13.4807L89.6204 16.0311H87.2479C84.8755 16.0311 84.8755 16.0311 84.8755 13.7179C84.8755 11.4048 84.9348 11.3454 87.1293 11.1082C88.3155 10.9896 87.1293 10.8709 84.4603 10.8116L79.5967 10.693L79.4187 8.14259L79.2408 5.65149L74.0807 5.47356L68.9205 5.29562L68.6833 2.80452L68.446 0.313416L68.3867 2.80452L68.2681 5.35493H65.9549C63.5824 5.35493 63.5824 5.35493 63.3452 2.80452L63.1079 0.313416L63.0486 2.80452L62.93 5.35493H60.6168C58.2444 5.35493 58.2444 5.35493 58.0071 2.80452L57.7699 0.313416L57.7106 2.80452L57.5919 5.35493H55.2788C52.9063 5.35493 52.9063 5.35493 52.669 2.80452L52.4318 0.313416L52.3725 2.80452C52.2539 5.29562 52.1945 5.35493 50.2372 5.35493C48.2206 5.35493 48.1613 5.29562 47.9241 2.80452C47.8055 1.44034 47.6868 2.62659 47.6275 5.47356ZM52.2539 8.32053C52.2539 10.6337 52.1945 10.693 50.1779 10.693C48.1613 10.693 48.102 10.6337 48.102 8.32053C48.102 6.00736 48.1613 5.94805 50.1779 5.94805C52.1945 5.94805 52.2539 6.00736 52.2539 8.32053ZM57.5919 8.32053V10.693H55.2195H52.847V8.32053V5.94805H55.2195H57.5919V8.32053ZM62.93 8.32053V10.693H60.5575H58.1851V8.32053V5.94805H60.5575H62.93V8.32053ZM68.2681 8.32053V10.693H65.8956H63.5231V8.32053V5.94805H65.8956H68.2681V8.32053ZM73.6062 8.32053V10.693H71.2337H68.8612V8.32053V5.94805H71.2337H73.6062V8.32053ZM78.9443 8.32053V10.693H76.5718H74.1993V8.32053V5.94805H76.5718H78.9443V8.32053ZM36.8327 13.6586V16.0311H34.4603H32.0878V13.6586V11.2861H34.4603H36.8327V13.6586ZM42.2894 13.7772L42.3488 16.3276L42.586 13.7772C42.8232 11.2861 42.8232 11.2861 45.1957 11.2861H47.5089L47.6275 13.7772L47.6868 16.3276L47.9241 13.7772C48.1613 11.3454 48.2206 11.2861 50.2372 11.2861C52.1945 11.2861 52.2539 11.3454 52.3725 13.7772L52.4318 16.3276L52.669 13.7772C52.9063 11.2861 52.9063 11.2861 55.2788 11.2861H57.5919L57.7106 13.7772L57.7699 16.3276L58.0071 13.7772C58.2444 11.2861 58.2444 11.2861 60.6168 11.2861H62.93L63.0486 13.7772L63.1079 16.3276L63.3452 13.7772C63.5824 11.2861 63.6418 11.2861 65.8956 11.2861C68.2088 11.2861 68.2088 11.2861 68.3867 13.7772C68.5647 16.3276 68.5647 16.3276 71.1151 16.5056L73.6062 16.6835L73.7248 21.8437C73.7841 24.6906 73.9027 25.8769 74.0214 24.4534C74.2586 21.9623 74.2586 21.9623 76.6311 21.9623H78.9443V34.7144L78.8849 47.4664H76.2159H73.6062V52.7452V58.0833L71.1151 58.2612L68.5647 58.4391L68.3867 63.5993L68.2088 68.8187H65.5991H62.93V71.4878V74.1568L60.4389 74.2754L57.8885 74.3348L60.4389 74.572C62.93 74.8092 62.93 74.8092 62.93 77.1817V79.4949L57.7699 79.6135C54.8636 79.6728 53.6773 79.7915 55.1008 79.9101C57.5919 80.1473 57.5919 80.1473 57.5919 82.5198V84.833H52.5504H47.5089L47.4496 87.6206C47.4496 89.2221 47.4496 91.6538 47.5089 93.0773L47.6275 95.6277L44.8992 95.4498L42.1708 95.2126L42.1115 97.8816C42.1115 99.3644 42.1115 101.678 42.1708 103.042L42.2894 105.592H39.8577H37.4259L37.3072 103.042L37.2479 100.551L37.0107 103.042L36.7734 105.592H34.1044H31.4947V108.261V110.93H23.7841H16.0735V108.558V106.185L18.624 106.067L21.1151 106.007L18.624 105.77C16.0735 105.533 16.0735 105.533 16.0735 103.16V100.847L18.624 100.729L21.1151 100.669L18.624 100.432C16.1329 100.195 16.0735 100.135 16.0735 98.1188C16.0735 96.1616 16.1329 96.1022 18.624 95.9836L21.1151 95.9243L18.624 95.6871C16.0735 95.4498 16.0735 95.4498 16.0735 93.0773V90.7642L18.624 90.6455L21.1151 90.5862L18.624 90.349C16.0735 90.1117 16.0735 90.1117 16.0735 87.7393V85.4261L18.624 85.3075L21.1151 85.2481L18.624 85.0109C16.0735 84.7737 16.0735 84.7737 16.0735 82.4012V80.088L18.624 79.9694L21.1151 79.9101L18.624 79.6728C16.0735 79.4356 16.0735 79.4356 16.0735 77.0631V74.7499L18.624 74.6313L21.1151 74.572L18.624 74.3348C16.0735 74.0975 16.0735 74.0975 16.0735 71.725V69.4119L18.624 69.2932L21.1151 69.2339L18.624 68.9967C16.0735 68.7594 16.0735 68.7001 16.0735 66.4463C16.0735 64.1331 16.0735 64.1331 18.624 63.9552C21.1151 63.7772 21.1151 63.7772 21.293 61.2268C21.4709 58.7357 21.4709 58.7357 23.962 58.6171L26.4531 58.5578L23.962 58.3205C21.4116 58.0833 21.4116 58.0833 21.4116 55.7108V53.3976L23.962 53.279L26.4531 53.2197L23.962 52.9824C21.4116 52.7452 21.4116 52.7452 21.4116 50.3727V48.0595L23.962 47.9409L26.4531 47.8816L23.962 47.6444C21.5302 47.4071 21.4116 47.3478 21.4116 45.3905C21.4116 43.4332 21.4709 43.3739 23.962 43.196C26.4531 43.018 26.4531 43.018 26.6311 40.4676C26.809 38.0358 26.8683 37.9765 29.0036 37.8579L31.1981 37.7986L29.0036 37.5613C26.809 37.3241 26.7497 37.2648 26.7497 34.9516V32.6384L29.3001 32.5198L31.7912 32.4605L29.3001 32.2233C26.7497 31.986 26.7497 31.986 26.7497 29.6135C26.7497 27.3004 26.7497 27.3004 29.1222 27.3004C31.4354 27.3004 31.4947 27.3597 31.6133 29.4949L31.6726 31.7488L31.9098 29.4949C32.1471 27.419 32.2657 27.3004 34.3416 27.1817L36.5362 27.1224L34.3416 26.8852C32.1471 26.6479 32.0878 26.5886 32.0878 24.2755C32.0878 22.0216 32.1471 21.9623 34.3416 21.8437L36.5362 21.7843L34.3416 21.5471C32.1471 21.3099 32.0878 21.2505 32.0878 18.9374C32.0878 16.6242 32.0878 16.6242 34.4603 16.6242H36.8327L36.9514 19.1153L37.0107 21.6657L37.2479 19.1153C37.4852 16.6835 37.5445 16.6242 39.6797 16.5056L41.8743 16.4463L39.6797 16.209C37.4852 15.9718 37.4259 15.9125 37.4259 13.5993C37.4259 11.2861 37.4259 11.2861 39.7983 11.2861H42.1708L42.2894 13.7772ZM73.6062 13.6586V16.0311H71.2337H68.8612V13.6586V11.2861H71.2337H73.6062V13.6586ZM78.9443 13.6586V16.0311H76.5718H74.1993V13.6586V11.2861H76.5718H78.9443V13.6586ZM84.2823 13.6586V16.0311H81.9099H79.5374V13.6586V11.2861H81.9099H84.2823V13.6586ZM31.4947 18.9967V21.3692H29.1222H26.7497V18.9967V16.6242H29.1222H31.4947V18.9967ZM78.9443 18.9967V21.3692H76.5718H74.1993V18.9967V16.6242H76.5718H78.9443V18.9967ZM84.2823 18.9967V21.3692H81.9099H79.5374V18.9967V16.6242H81.9099H84.2823V18.9967ZM89.6204 18.9967V21.3692H87.2479H84.8755V18.9967V16.6242H87.2479H89.6204V18.9967ZM26.1566 24.3348V26.7072H23.7841H21.4116V24.3348V21.9623H23.7841H26.1566V24.3348ZM31.4947 24.3348V26.7072H29.1222H26.7497V24.3348V21.9623H29.1222H31.4947V24.3348ZM84.2823 24.3348V26.7072H81.9099H79.5374V24.3348V21.9623H81.9099H84.2823V24.3348ZM89.6204 24.3348V26.7072H87.2479H84.8755V24.3348V21.9623H87.2479H89.6204V24.3348ZM20.8185 29.6728V32.0453H18.446H16.0735V29.6728V27.3004H18.446H20.8185V29.6728ZM26.1566 29.6728V32.0453H23.7841H21.4116V29.6728V27.3004H23.7841H26.1566V29.6728ZM84.2823 29.6728V32.0453H81.9099H79.5374V29.6728V27.3004H81.9099H84.2823V29.6728ZM89.6204 29.6728V32.0453H87.2479H84.8755V29.6728V27.3004H87.2479H89.6204V29.6728ZM20.8185 35.0109V37.3834H18.446H16.0735V35.0109V32.6384H18.446H20.8185V35.0109ZM26.1566 35.0109V37.3834H23.7841H21.4116V35.0109V32.6384H23.7841H26.1566V35.0109ZM84.2823 35.0109V37.3834H81.9099H79.5374V35.0109V32.6384H81.9099H84.2823V35.0109ZM89.6204 35.0109V37.3834H87.2479H84.8755V35.0109V32.6384H87.2479H89.6204V35.0109ZM94.9585 35.0109V37.3834H92.586H90.2135V35.0109V32.6384H92.586H94.9585V35.0109ZM15.4804 40.349V42.7215H13.1079H10.7355V40.349V37.9765H13.1079H15.4804V40.349ZM20.8185 40.349V42.7215H18.446H16.0735V40.349V37.9765H18.446H20.8185V40.349ZM26.1566 40.349V42.7215H23.7841H21.4116V40.349V37.9765H23.7841H26.1566V40.349ZM84.2823 40.349V42.7215H81.9099H79.5374V40.349V37.9765H81.9099H84.2823V40.349ZM89.6204 40.349V42.7215H87.2479H84.8755V40.349V37.9765H87.2479H89.6204V40.349ZM15.4804 45.3905C15.4804 47.4071 15.4211 47.4664 13.1079 47.4664C10.7948 47.4664 10.7355 47.4071 10.7355 45.3905C10.7355 43.3739 10.7948 43.3146 13.1079 43.3146C15.4211 43.3146 15.4804 43.3739 15.4804 45.3905ZM20.8185 45.3905C20.8185 47.4071 20.7592 47.4664 18.446 47.4664C16.1329 47.4664 16.0735 47.4071 16.0735 45.3905C16.0735 43.3739 16.1329 43.3146 18.446 43.3146C20.7592 43.3146 20.8185 43.3739 20.8185 45.3905ZM84.2823 45.3905C84.2823 47.4071 84.223 47.4664 81.9099 47.4664C79.5967 47.4664 79.5374 47.4071 79.5374 45.3905C79.5374 43.3739 79.5967 43.3146 81.9099 43.3146C84.223 43.3146 84.2823 43.3739 84.2823 45.3905ZM89.6204 45.3905C89.6204 47.4071 89.5611 47.4664 87.2479 47.4664C84.9348 47.4664 84.8755 47.4071 84.8755 45.3905C84.8755 43.3739 84.9348 43.3146 87.2479 43.3146C89.5611 43.3146 89.6204 43.3739 89.6204 45.3905ZM10.1423 50.432V52.8045H7.76987H5.39739V50.432V48.0595H7.76987H10.1423V50.432ZM15.4804 50.432V52.8045H13.1079H10.7355V50.432V48.0595H13.1079H15.4804V50.432ZM20.8185 50.432V52.8045H18.446H16.0735V50.432V48.0595H18.446H20.8185V50.432ZM78.9443 50.432V52.8045H76.5718H74.1993V50.432V48.0595H76.5718H78.9443V50.432ZM84.2823 50.432V52.8045H81.9099H79.5374V50.432V48.0595H81.9099H84.2823V50.432ZM89.6204 50.432V52.8045H87.2479H84.8755V50.432V48.0595H87.2479H89.6204V50.432ZM4.80427 55.7701C4.80427 58.0833 4.74496 58.1426 2.72835 58.1426C0.711744 58.1426 0.652432 58.0833 0.652432 55.7701C0.652432 53.4569 0.711744 53.3976 2.72835 53.3976C4.74496 53.3976 4.80427 53.4569 4.80427 55.7701ZM10.1423 55.7701V58.1426H7.76987H5.39739V55.7701V53.3976H7.76987H10.1423V55.7701ZM15.4804 55.7701V58.1426H13.1079H10.7355V55.7701V53.3976H13.1079H15.4804V55.7701ZM20.8185 55.7701V58.1426H18.446H16.0735V55.7701V53.3976H18.446H20.8185V55.7701ZM78.9443 55.7701V58.1426H76.5718H74.1993V55.7701V53.3976H76.5718H78.9443V55.7701ZM84.2823 55.7701V58.1426H81.9099H79.5374V55.7701V53.3976H81.9099H84.2823V55.7701ZM89.6204 55.7701V58.1426H87.2479H84.8755V55.7701V53.3976H87.2479H89.6204V55.7701ZM4.80427 61.1082C4.80427 63.4213 4.74496 63.4807 2.72835 63.4807C0.711744 63.4807 0.652432 63.4213 0.652432 61.1082C0.652432 58.795 0.711744 58.7357 2.72835 58.7357C4.74496 58.7357 4.80427 58.795 4.80427 61.1082ZM10.1423 61.1082V63.4807H7.76987H5.39739V61.1082V58.7357H7.76987H10.1423V61.1082ZM15.4804 61.1082V63.4807H13.1079H10.7355V61.1082V58.7357H13.1079H15.4804V61.1082ZM20.8185 61.1082V63.4807H18.446H16.0735V61.1082V58.7357H18.446H20.8185V61.1082ZM73.6062 61.1082V63.4807H71.2337H68.8612V61.1082V58.7357H71.2337H73.6062V61.1082ZM78.9443 61.1082V63.4807H76.5718H74.1993V61.1082V58.7357H76.5718H78.9443V61.1082ZM84.2823 61.1082V63.4807H81.9099H79.5374V61.1082V58.7357H81.9099H84.2823V61.1082ZM4.80427 66.4463C4.80427 68.7594 4.74496 68.8187 2.72835 68.8187C0.711744 68.8187 0.652432 68.7594 0.652432 66.4463C0.652432 64.1331 0.711744 64.0738 2.72835 64.0738C4.74496 64.0738 4.80427 64.1331 4.80427 66.4463ZM10.1423 66.4463V68.8187H7.76987H5.39739V66.4463V64.0738H7.76987H10.1423V66.4463ZM15.4804 66.4463V68.8187H13.1079H10.7355V66.4463V64.0738H13.1079H15.4804V66.4463ZM73.6062 66.4463V68.8187H71.2337H68.8612V66.4463V64.0738H71.2337H73.6062V66.4463ZM78.9443 66.4463V68.8187H76.5718H74.1993V66.4463V64.0738H76.5718H78.9443V66.4463ZM4.80427 71.7843C4.80427 74.0975 4.74496 74.1568 2.72835 74.1568C0.711744 74.1568 0.652432 74.0975 0.652432 71.7843C0.652432 69.4712 0.711744 69.4119 2.72835 69.4119C4.74496 69.4119 4.80427 69.4712 4.80427 71.7843ZM10.1423 71.7843V74.1568H7.76987H5.39739V71.7843V69.4119H7.76987H10.1423V71.7843ZM15.4804 71.7843V74.1568H13.1079H10.7355V71.7843V69.4119H13.1079H15.4804V71.7843ZM68.2681 71.7843V74.1568H65.8956H63.5231V71.7843V69.4119H65.8956H68.2681V71.7843ZM73.6062 71.7843V74.1568H71.2337H68.8612V71.7843V69.4119H71.2337H73.6062V71.7843ZM78.9443 71.7843V74.1568H76.5718H74.1993V71.7843V69.4119H76.5718H78.9443V71.7843ZM4.80427 77.1224C4.80427 79.4356 4.74496 79.4949 2.72835 79.4949C0.711744 79.4949 0.652432 79.4356 0.652432 77.1224C0.652432 74.8092 0.711744 74.7499 2.72835 74.7499C4.74496 74.7499 4.80427 74.8092 4.80427 77.1224ZM10.1423 77.1224V79.4949H7.76987H5.39739V77.1224V74.7499H7.76987H10.1423V77.1224ZM15.4804 77.1224V79.4949H13.1079H10.7355V77.1224V74.7499H13.1079H15.4804V77.1224ZM68.2681 77.1224V79.4949H65.8956H63.5231V77.1224V74.7499H65.8956H68.2681V77.1224ZM73.6062 77.1224V79.4949H71.2337H68.8612V77.1224V74.7499H71.2337H73.6062V77.1224ZM4.80427 82.4605C4.80427 84.7737 4.74496 84.833 2.72835 84.833C0.711744 84.833 0.652432 84.7737 0.652432 82.4605C0.652432 80.1473 0.711744 80.088 2.72835 80.088C4.74496 80.088 4.80427 80.1473 4.80427 82.4605ZM10.1423 82.4605V84.833H7.76987H5.39739V82.4605V80.088H7.76987H10.1423V82.4605ZM15.4804 82.4605V84.833H13.1079H10.7355V82.4605V80.088H13.1079H15.4804V82.4605ZM62.93 82.4605V84.833H60.5575H58.1851V82.4605V80.088H60.5575H62.93V82.4605ZM68.2681 82.4605V84.833H65.8956H63.5231V82.4605V80.088H65.8956H68.2681V82.4605ZM4.80427 87.7986C4.80427 90.1117 4.74496 90.171 2.72835 90.171C0.711744 90.171 0.652432 90.1117 0.652432 87.7986C0.652432 85.4854 0.711744 85.4261 2.72835 85.4261C4.74496 85.4261 4.80427 85.4854 4.80427 87.7986ZM10.1423 87.7986V90.171H7.76987H5.39739V87.7986V85.4261H7.76987H10.1423V87.7986ZM15.4804 87.7986V90.171H13.1079H10.7355V87.7986V85.4261H13.1079H15.4804V87.7986ZM52.2539 87.7986C52.2539 90.1117 52.1945 90.171 50.1779 90.171C48.1613 90.171 48.102 90.1117 48.102 87.7986C48.102 85.4854 48.1613 85.4261 50.1779 85.4261C52.1945 85.4261 52.2539 85.4854 52.2539 87.7986ZM57.5919 87.7986V90.171H55.2195H52.847V87.7986V85.4261H55.2195H57.5919V87.7986ZM62.93 87.7986V90.171H60.5575H58.1851V87.7986V85.4261H60.5575H62.93V87.7986ZM68.2681 87.7986V90.171H65.8956H63.5231V87.7986V85.4261H65.8956H68.2681V87.7986ZM4.80427 93.1366C4.80427 95.4498 4.74496 95.5091 2.72835 95.5091C0.711744 95.5091 0.652432 95.4498 0.652432 93.1366C0.652432 90.8235 0.711744 90.7642 2.72835 90.7642C4.74496 90.7642 4.80427 90.8235 4.80427 93.1366ZM10.1423 93.1366V95.5091H7.76987H5.39739V93.1366V90.7642H7.76987H10.1423V93.1366ZM15.4804 93.1366V95.5091H13.1079H10.7355V93.1366V90.7642H13.1079H15.4804V93.1366ZM52.2539 93.1366C52.2539 95.4498 52.1945 95.5091 50.1779 95.5091C48.1613 95.5091 48.102 95.4498 48.102 93.1366C48.102 90.8235 48.1613 90.7642 50.1779 90.7642C52.1945 90.7642 52.2539 90.8235 52.2539 93.1366ZM57.5919 93.1366V95.5091H55.2195H52.847V93.1366V90.7642H55.2195H57.5919V93.1366ZM62.93 93.1366V95.5091H60.5575H58.1851V93.1366V90.7642H60.5575H62.93V93.1366ZM4.80427 98.1782C4.80427 100.135 4.68565 100.254 2.72835 100.254C0.771056 100.254 0.652432 100.135 0.652432 98.1782C0.652432 96.2209 0.771056 96.1022 2.72835 96.1022C4.68565 96.1022 4.80427 96.2209 4.80427 98.1782ZM10.1423 98.1782C10.1423 100.195 10.083 100.254 7.76987 100.254C5.4567 100.254 5.39739 100.195 5.39739 98.1782C5.39739 96.1616 5.4567 96.1022 7.76987 96.1022C10.083 96.1022 10.1423 96.1616 10.1423 98.1782ZM15.4804 98.1782C15.4804 100.195 15.4211 100.254 13.1079 100.254C10.7948 100.254 10.7355 100.195 10.7355 98.1782C10.7355 96.1616 10.7948 96.1022 13.1079 96.1022C15.4211 96.1022 15.4804 96.1616 15.4804 98.1782ZM47.5089 98.1782C47.5089 100.195 47.4496 100.254 45.1364 100.254C42.8232 100.254 42.7639 100.195 42.7639 98.1782C42.7639 96.1616 42.8232 96.1022 45.1364 96.1022C47.4496 96.1022 47.5089 96.1616 47.5089 98.1782ZM52.2539 98.1782C52.2539 100.135 52.1352 100.254 50.1779 100.254C48.2206 100.254 48.102 100.135 48.102 98.1782C48.102 96.2209 48.2206 96.1022 50.1779 96.1022C52.1352 96.1022 52.2539 96.2209 52.2539 98.1782ZM57.5919 98.1782C57.5919 100.195 57.5326 100.254 55.2195 100.254C52.9063 100.254 52.847 100.195 52.847 98.1782C52.847 96.1616 52.9063 96.1022 55.2195 96.1022C57.5326 96.1022 57.5919 96.1616 57.5919 98.1782ZM4.80427 103.22C4.80427 105.533 4.74496 105.592 2.72835 105.592C0.711744 105.592 0.652432 105.533 0.652432 103.22C0.652432 100.907 0.711744 100.847 2.72835 100.847C4.74496 100.847 4.80427 100.907 4.80427 103.22ZM10.1423 103.22V105.592H7.76987H5.39739V103.22V100.847H7.76987H10.1423V103.22ZM15.4804 103.22V105.592H13.1079H10.7355V103.22V100.847H13.1079H15.4804V103.22ZM47.5089 103.22V105.592H45.1364H42.7639V103.22V100.847H45.1364H47.5089V103.22ZM52.2539 103.22C52.2539 105.533 52.1945 105.592 50.1779 105.592C48.1613 105.592 48.102 105.533 48.102 103.22C48.102 100.907 48.1613 100.847 50.1779 100.847C52.1945 100.847 52.2539 100.907 52.2539 103.22ZM57.5919 103.22V105.592H55.2195H52.847V103.22V100.847H55.2195H57.5919V103.22ZM4.80427 108.558C4.80427 110.871 4.74496 110.93 2.72835 110.93C0.711744 110.93 0.652432 110.871 0.652432 108.558C0.652432 106.245 0.711744 106.185 2.72835 106.185C4.74496 106.185 4.80427 106.245 4.80427 108.558ZM10.1423 108.558V110.93H7.76987H5.39739V108.558V106.185H7.76987H10.1423V108.558ZM15.4804 108.558V110.93H13.1079H10.7355V108.558V106.185H13.1079H15.4804V108.558ZM36.8327 108.558V110.93H34.4603H32.0878V108.558V106.185H34.4603H36.8327V108.558ZM42.1708 108.558V110.93H39.7983H37.4259V108.558V106.185H39.7983H42.1708V108.558ZM47.5089 108.558V110.93H45.1364H42.7639V108.558V106.185H45.1364H47.5089V108.558ZM52.2539 108.558C52.2539 110.871 52.1945 110.93 50.1779 110.93C48.1613 110.93 48.102 110.871 48.102 108.558C48.102 106.245 48.1613 106.185 50.1779 106.185C52.1945 106.185 52.2539 106.245 52.2539 108.558ZM4.80427 113.896C4.80427 116.209 4.74496 116.268 2.72835 116.268C0.711744 116.268 0.652432 116.209 0.652432 113.896C0.652432 111.583 0.711744 111.523 2.72835 111.523C4.74496 111.523 4.80427 111.583 4.80427 113.896ZM10.1423 113.896V116.268H7.76987H5.39739V113.896V111.523H7.76987H10.1423V113.896ZM15.4804 113.896V116.268H13.1079H10.7355V113.896V111.523H13.1079H15.4804V113.896ZM20.8185 113.896V116.268H18.446H16.0735V113.896V111.523H18.446H20.8185V113.896ZM26.1566 113.896V116.268H23.7841H21.4116V113.896V111.523H23.7841H26.1566V113.896ZM31.4947 113.896V116.268H29.1222H26.7497V113.896V111.523H29.1222H31.4947V113.896ZM36.8327 113.896V116.268H34.4603H32.0878V113.896V111.523H34.4603H36.8327V113.896ZM42.1708 113.896V116.268H39.7983H37.4259V113.896V111.523H39.7983H42.1708V113.896ZM4.80427 119.234C4.80427 121.547 4.74496 121.606 2.72835 121.606C0.711744 121.606 0.652432 121.547 0.652432 119.234C0.652432 116.921 0.711744 116.861 2.72835 116.861C4.74496 116.861 4.80427 116.921 4.80427 119.234ZM10.1423 119.234V121.606H7.76987H5.39739V119.234V116.861H7.76987H10.1423V119.234ZM15.4804 119.234V121.606H13.1079H10.7355V119.234V116.861H13.1079H15.4804V119.234ZM20.8185 119.234V121.606H18.446H16.0735V119.234V116.861H18.446H20.8185V119.234ZM26.1566 119.234V121.606H23.7841H21.4116V119.234V116.861H23.7841H26.1566V119.234ZM31.4947 119.234V121.606H29.1222H26.7497V119.234V116.861H29.1222H31.4947V119.234ZM36.8327 119.234V121.606H34.4603H32.0878V119.234V116.861H34.4603H36.8327V119.234ZM10.1423 124.572V126.944H7.76987H5.39739V124.572V122.2H7.76987H10.1423V124.572ZM15.4804 124.572V126.944H13.1079H10.7355V124.572V122.2H13.1079H15.4804V124.572ZM20.8185 124.572V126.944H18.446H16.0735V124.572V122.2H18.446H20.8185V124.572ZM26.1566 124.572V126.944H23.7841H21.4116V124.572V122.2H23.7841H26.1566V124.572Z" fill="#BC286F"/>
</svg>
