<svg width="752" height="649" viewBox="0 0 752 649" fill="none" xmlns="http://www.w3.org/2000/svg">
<circle opacity="0.45" cx="614" cy="449" r="54" fill="#F4EBEF"/>
<path opacity="0.7" d="M652 192C652 196.418 648.413 200.033 644.008 199.68C633.614 198.847 623.396 196.391 613.732 192.388C601.599 187.362 590.575 179.997 581.289 170.711C572.003 161.425 564.638 150.401 559.612 138.268C555.609 128.604 553.153 118.386 552.32 107.992C551.967 103.587 555.582 100 560 100L644 100C648.418 100 652 103.582 652 108L652 192Z" fill="#F2E0E0"/>
<circle cx="65" cy="232" r="50" fill="#F963AB"/>
<g filter="url(#filter0_dd_2004_3584)">
<path d="M379.331 235.4C379.331 227.803 373.172 221.644 365.575 221.644H69.8254C62.2283 221.644 56.0696 227.803 56.0696 235.4V522.552C56.0696 530.149 62.2283 536.307 69.8254 536.307H379.331V235.4Z" fill="white"/>
</g>
<path d="M102.616 283.343C101.395 283.343 100.26 283.119 99.2111 282.672C98.1794 282.225 97.2853 281.606 96.5287 280.815C95.7894 280.007 95.2477 279.07 94.9038 278.004L97.8183 276.74C98.2826 277.84 98.9532 278.709 99.8301 279.345C100.707 279.964 101.696 280.274 102.796 280.274C103.415 280.274 103.948 280.179 104.395 279.99C104.86 279.783 105.212 279.508 105.453 279.164C105.711 278.821 105.84 278.408 105.84 277.926C105.84 277.359 105.668 276.895 105.324 276.534C104.997 276.155 104.499 275.863 103.828 275.657L100.14 274.47C98.6437 274.006 97.5174 273.31 96.7609 272.381C96.0043 271.453 95.626 270.361 95.626 269.106C95.626 268.005 95.8925 267.034 96.4256 266.191C96.9758 265.348 97.7324 264.695 98.6953 264.231C99.6754 263.749 100.793 263.509 102.048 263.509C103.2 263.509 104.258 263.715 105.221 264.128C106.184 264.523 107.009 265.082 107.697 265.804C108.402 266.509 108.926 267.343 109.27 268.306L106.381 269.596C106.003 268.633 105.436 267.893 104.679 267.377C103.922 266.844 103.046 266.578 102.048 266.578C101.464 266.578 100.948 266.681 100.501 266.887C100.054 267.077 99.7012 267.352 99.4433 267.713C99.2025 268.057 99.0822 268.469 99.0822 268.951C99.0822 269.484 99.2541 269.957 99.598 270.369C99.9419 270.765 100.466 271.074 101.171 271.298L104.705 272.407C106.235 272.906 107.379 273.593 108.135 274.47C108.909 275.347 109.296 276.431 109.296 277.72C109.296 278.821 109.012 279.792 108.445 280.635C107.877 281.477 107.095 282.139 106.098 282.621C105.1 283.102 103.94 283.343 102.616 283.343ZM112.171 283.033V263.509H115.549V276.302L114.26 275.915L120.863 269.002H125.067L119.882 274.651L125.17 283.033H121.301L116.71 275.76L118.722 275.347L114.492 279.887L115.549 277.823V283.033H112.171ZM127.057 283.033V269.002H130.435V283.033H127.057ZM127.057 267.429V263.818H130.435V267.429H127.057ZM133.555 283.033V263.509H136.934V283.033H133.555ZM140.053 283.033V263.509H143.432V283.033H140.053ZM151.891 283.343C150.395 283.343 149.088 282.99 147.97 282.285C146.87 281.563 146.113 280.592 145.701 279.371L148.228 278.159C148.589 278.95 149.088 279.569 149.724 280.016C150.378 280.463 151.1 280.686 151.891 280.686C152.51 280.686 153 280.549 153.361 280.274C153.722 279.998 153.902 279.637 153.902 279.19C153.902 278.915 153.825 278.692 153.67 278.52C153.533 278.331 153.335 278.176 153.077 278.055C152.836 277.918 152.57 277.806 152.278 277.72L149.982 277.075C148.796 276.731 147.893 276.207 147.274 275.502C146.672 274.797 146.371 273.963 146.371 273C146.371 272.14 146.586 271.392 147.016 270.756C147.463 270.103 148.073 269.596 148.847 269.235C149.638 268.873 150.541 268.693 151.555 268.693C152.879 268.693 154.049 269.011 155.063 269.647C156.078 270.283 156.8 271.178 157.23 272.33L154.65 273.542C154.41 272.906 154.006 272.398 153.438 272.02C152.871 271.642 152.235 271.453 151.53 271.453C150.962 271.453 150.515 271.582 150.188 271.84C149.862 272.097 149.698 272.433 149.698 272.845C149.698 273.103 149.767 273.327 149.905 273.516C150.042 273.705 150.231 273.86 150.472 273.98C150.73 274.101 151.022 274.212 151.349 274.316L153.593 274.986C154.745 275.33 155.631 275.846 156.25 276.534C156.886 277.221 157.204 278.064 157.204 279.061C157.204 279.904 156.98 280.652 156.533 281.305C156.086 281.941 155.467 282.44 154.676 282.801C153.885 283.162 152.957 283.343 151.891 283.343Z" fill="#040447"/>
<rect x="93.8975" y="312.776" width="247.604" height="51.5842" rx="6.87789" fill="#F5F8F7"/>
<g clip-path="url(#clip0_2004_3584)" filter="url(#filter1_d_2004_3584)">
<path d="M130.286 326.532H115.578C113.13 326.532 111.146 328.516 111.146 330.963V340.61C111.146 343.057 113.13 345.042 115.578 345.042H117.688C117.789 345.042 117.87 345.123 117.87 345.223V349.982C117.87 350.544 118.558 350.817 118.944 350.407L123.936 345.099C123.971 345.062 124.019 345.042 124.069 345.042H130.286C132.733 345.042 134.717 343.057 134.717 340.61V330.963C134.717 328.516 132.733 326.532 130.286 326.532Z" fill="#EC5569"/>
<path d="M119.735 343.388C119.735 343.282 119.656 343.196 119.559 343.196H117.515C115.146 343.196 113.225 341.107 113.225 338.529V328.371C113.225 327.935 113.28 327.513 113.383 327.112C112.047 327.876 111.146 329.314 111.146 330.963V340.61C111.146 343.057 113.13 345.042 115.578 345.042H117.688C117.789 345.042 117.87 345.123 117.87 345.223V349.982C117.87 350.544 118.558 350.817 118.944 350.407L119.735 349.566V343.388H119.735Z" fill="#E63950"/>
<path d="M127.913 332.282C126.788 331.157 124.964 331.157 123.839 332.282L123.203 332.918C123.051 333.07 122.806 333.07 122.654 332.918L122.029 332.293C120.904 331.167 119.079 331.167 117.954 332.293C116.829 333.418 116.829 335.242 117.954 336.367L122.655 341.068C122.806 341.219 123.052 341.219 123.203 341.068L127.913 336.357C129.038 335.232 129.038 333.408 127.913 332.282Z" fill="#EC5569"/>
<path d="M127.913 332.282C126.788 331.157 124.964 331.157 123.839 332.282L123.203 332.918C123.051 333.07 122.806 333.07 122.654 332.918L122.029 332.293C120.904 331.167 119.079 331.167 117.954 332.293C116.829 333.418 116.829 335.242 117.954 336.367L122.655 341.068C122.806 341.219 123.052 341.219 123.203 341.068L127.913 336.357C129.038 335.232 129.038 333.408 127.913 332.282Z" fill="#FFF5F5"/>
<path d="M119.46 336.368C118.335 335.243 118.335 333.418 119.46 332.293C119.829 331.924 120.274 331.677 120.744 331.55C119.781 331.29 118.709 331.537 117.953 332.293C116.828 333.418 116.828 335.243 117.953 336.368L122.654 341.068C122.805 341.22 123.051 341.22 123.202 341.068L123.681 340.589L119.46 336.368Z" fill="#DCE6EB"/>
</g>
<path d="M154.468 345.568L150.507 331.124H152.364L155.479 343.505L159.028 331.124H160.947L164.393 343.546L167.55 331.124H169.407L165.363 345.568H163.382L159.936 333.621L156.408 345.568H154.468ZM174.896 345.816C173.919 345.816 173.053 345.595 172.296 345.155C171.539 344.701 170.941 344.069 170.501 343.257C170.074 342.445 169.861 341.503 169.861 340.43C169.861 339.33 170.074 338.381 170.501 337.583C170.927 336.785 171.519 336.159 172.275 335.705C173.046 335.251 173.933 335.024 174.937 335.024C175.941 335.024 176.801 335.251 177.516 335.705C178.232 336.159 178.775 336.751 179.146 337.48C179.532 338.195 179.724 338.986 179.724 339.852C179.724 339.99 179.724 340.141 179.724 340.306C179.724 340.458 179.717 340.63 179.704 340.822H171.161V339.481H178.032C177.991 338.546 177.675 337.817 177.083 337.294C176.505 336.757 175.776 336.489 174.896 336.489C174.304 336.489 173.754 336.627 173.245 336.902C172.736 337.163 172.324 337.548 172.007 338.057C171.705 338.553 171.553 339.185 171.553 339.956V340.533C171.553 341.372 171.711 342.081 172.028 342.659C172.344 343.223 172.757 343.649 173.266 343.938C173.775 344.213 174.318 344.351 174.896 344.351C175.611 344.351 176.21 344.186 176.691 343.855C177.172 343.525 177.516 343.085 177.723 342.535H179.435C179.27 343.154 178.981 343.711 178.569 344.206C178.156 344.701 177.64 345.093 177.021 345.382C176.416 345.671 175.707 345.816 174.896 345.816ZM182.042 345.568V330.712H183.775V345.568H182.042ZM191.321 345.816C190.344 345.816 189.464 345.595 188.68 345.155C187.909 344.701 187.297 344.069 186.843 343.257C186.403 342.445 186.183 341.503 186.183 340.43C186.183 339.343 186.403 338.401 186.843 337.603C187.297 336.792 187.909 336.159 188.68 335.705C189.464 335.251 190.344 335.024 191.321 335.024C192.545 335.024 193.57 335.347 194.395 335.994C195.22 336.627 195.743 337.473 195.963 338.532H194.189C194.051 337.899 193.714 337.404 193.178 337.046C192.641 336.689 192.015 336.51 191.3 336.51C190.722 336.51 190.179 336.661 189.67 336.964C189.161 337.253 188.748 337.686 188.432 338.264C188.116 338.841 187.957 339.564 187.957 340.43C187.957 341.063 188.047 341.627 188.226 342.122C188.418 342.617 188.666 343.03 188.968 343.36C189.285 343.69 189.642 343.938 190.041 344.103C190.454 344.268 190.874 344.351 191.3 344.351C191.781 344.351 192.222 344.275 192.621 344.124C193.019 343.959 193.356 343.725 193.632 343.422C193.907 343.106 194.092 342.734 194.189 342.308H195.963C195.743 343.353 195.22 344.199 194.395 344.846C193.57 345.492 192.545 345.816 191.321 345.816ZM203.067 345.816C202.104 345.816 201.238 345.595 200.467 345.155C199.697 344.715 199.085 344.089 198.631 343.278C198.191 342.466 197.971 341.517 197.971 340.43C197.971 339.33 198.198 338.381 198.652 337.583C199.105 336.771 199.718 336.145 200.488 335.705C201.272 335.251 202.146 335.024 203.108 335.024C204.085 335.024 204.952 335.251 205.708 335.705C206.479 336.145 207.084 336.771 207.524 337.583C207.978 338.381 208.205 339.33 208.205 340.43C208.205 341.517 207.978 342.466 207.524 343.278C207.07 344.089 206.458 344.715 205.688 345.155C204.917 345.595 204.044 345.816 203.067 345.816ZM203.067 344.33C203.659 344.33 204.209 344.186 204.718 343.897C205.227 343.608 205.639 343.174 205.956 342.597C206.272 342.005 206.43 341.283 206.43 340.43C206.43 339.55 206.272 338.828 205.956 338.264C205.653 337.686 205.247 337.253 204.738 336.964C204.243 336.661 203.7 336.51 203.108 336.51C202.531 336.51 201.98 336.661 201.458 336.964C200.949 337.253 200.536 337.686 200.22 338.264C199.903 338.841 199.745 339.564 199.745 340.43C199.745 341.283 199.903 342.005 200.22 342.597C200.536 343.174 200.942 343.608 201.437 343.897C201.946 344.186 202.489 344.33 203.067 344.33ZM210.615 345.568V335.272H212.183L212.307 336.757C212.637 336.221 213.077 335.801 213.627 335.499C214.178 335.182 214.797 335.024 215.484 335.024C216.021 335.024 216.502 335.1 216.929 335.251C217.369 335.389 217.754 335.609 218.084 335.911C218.428 336.2 218.703 336.572 218.91 337.026C219.267 336.393 219.762 335.905 220.395 335.561C221.028 335.203 221.702 335.024 222.417 335.024C223.215 335.024 223.917 335.189 224.522 335.519C225.127 335.836 225.595 336.331 225.925 337.005C226.255 337.665 226.42 338.498 226.42 339.502V345.568H224.708V339.687C224.708 338.642 224.494 337.851 224.068 337.315C223.642 336.778 223.029 336.51 222.232 336.51C221.695 336.51 221.207 336.654 220.767 336.943C220.34 337.232 220.003 337.652 219.756 338.202C219.508 338.738 219.384 339.399 219.384 340.183V345.568H217.651V339.687C217.651 338.642 217.438 337.851 217.011 337.315C216.585 336.778 215.973 336.51 215.175 336.51C214.652 336.51 214.171 336.654 213.731 336.943C213.304 337.232 212.967 337.652 212.72 338.202C212.472 338.738 212.348 339.399 212.348 340.183V345.568H210.615ZM233.654 345.816C232.677 345.816 231.81 345.595 231.054 345.155C230.297 344.701 229.699 344.069 229.259 343.257C228.832 342.445 228.619 341.503 228.619 340.43C228.619 339.33 228.832 338.381 229.259 337.583C229.685 336.785 230.276 336.159 231.033 335.705C231.803 335.251 232.691 335.024 233.695 335.024C234.699 335.024 235.559 335.251 236.274 335.705C236.989 336.159 237.533 336.751 237.904 337.48C238.289 338.195 238.482 338.986 238.482 339.852C238.482 339.99 238.482 340.141 238.482 340.306C238.482 340.458 238.475 340.63 238.461 340.822H229.919V339.481H236.79C236.749 338.546 236.432 337.817 235.841 337.294C235.263 336.757 234.534 336.489 233.654 336.489C233.062 336.489 232.512 336.627 232.003 336.902C231.494 337.163 231.081 337.548 230.765 338.057C230.462 338.553 230.311 339.185 230.311 339.956V340.533C230.311 341.372 230.469 342.081 230.785 342.659C231.102 343.223 231.515 343.649 232.023 343.938C232.532 344.213 233.076 344.351 233.654 344.351C234.369 344.351 234.967 344.186 235.449 343.855C235.93 343.525 236.274 343.085 236.48 342.535H238.193C238.028 343.154 237.739 343.711 237.326 344.206C236.914 344.701 236.398 345.093 235.779 345.382C235.174 345.671 234.465 345.816 233.654 345.816Z" fill="#43525A"/>
<rect x="93.8975" y="381.555" width="247.604" height="51.5842" rx="6.87789" fill="#F5F8F7"/>
<g clip-path="url(#clip1_2004_3584)" filter="url(#filter2_d_2004_3584)">
<path d="M122.934 394.867C119.434 394.867 116.587 397.819 116.587 401.448C116.587 405.077 119.434 408.029 122.934 408.029C126.434 408.029 129.281 405.077 129.281 401.448C129.281 397.819 126.434 394.867 122.934 394.867Z" fill="#725BFF"/>
<path d="M130.831 412.329C129.093 410.499 126.79 409.492 124.344 409.492H121.523C119.078 409.492 116.774 410.499 115.037 412.329C113.307 414.149 112.355 416.552 112.355 419.095C112.355 419.499 112.671 419.827 113.06 419.827H132.807C133.197 419.827 133.513 419.499 133.513 419.095C133.513 416.552 132.56 414.149 130.831 412.329Z" fill="#725BFF"/>
</g>
<path d="M151.497 414.347V399.903H153.23V414.347H151.497ZM156.21 414.347V404.051H157.778L157.881 405.887C158.211 405.241 158.686 404.732 159.305 404.36C159.924 403.989 160.625 403.803 161.409 403.803C162.221 403.803 162.923 403.968 163.514 404.298C164.106 404.615 164.566 405.11 164.896 405.784C165.227 406.444 165.392 407.276 165.392 408.281V414.347H163.658V408.466C163.658 407.421 163.425 406.63 162.957 406.093C162.503 405.557 161.856 405.289 161.017 405.289C160.426 405.289 159.896 405.433 159.429 405.722C158.975 406.011 158.61 406.424 158.335 406.96C158.074 407.497 157.943 408.164 157.943 408.962V414.347H156.21ZM172.103 414.347C171.484 414.347 170.947 414.251 170.493 414.058C170.039 413.865 169.688 413.542 169.441 413.088C169.207 412.621 169.09 411.995 169.09 411.211V405.516H167.295V404.051H169.09L169.317 401.575H170.823V404.051H173.836V405.516H170.823V411.211C170.823 411.857 170.954 412.297 171.215 412.531C171.477 412.751 171.938 412.861 172.598 412.861H173.691V414.347H172.103ZM176.058 414.347V404.051H177.626L177.77 406.032C177.99 405.564 178.279 405.165 178.637 404.835C179.008 404.505 179.441 404.25 179.937 404.071C180.446 403.893 181.016 403.803 181.649 403.803V405.619H181.133C180.679 405.619 180.246 405.681 179.833 405.805C179.435 405.915 179.077 406.1 178.761 406.362C178.458 406.623 178.217 406.981 178.038 407.435C177.873 407.889 177.791 408.453 177.791 409.127V414.347H176.058ZM187.874 414.595C186.911 414.595 186.044 414.374 185.274 413.934C184.504 413.494 183.892 412.868 183.438 412.057C182.998 411.245 182.777 410.296 182.777 409.209C182.777 408.109 183.004 407.16 183.458 406.362C183.912 405.55 184.524 404.924 185.295 404.484C186.079 404.03 186.952 403.803 187.915 403.803C188.892 403.803 189.759 404.03 190.515 404.484C191.285 404.924 191.891 405.55 192.331 406.362C192.785 407.16 193.012 408.109 193.012 409.209C193.012 410.296 192.785 411.245 192.331 412.057C191.877 412.868 191.265 413.494 190.494 413.934C189.724 414.374 188.851 414.595 187.874 414.595ZM187.874 413.109C188.466 413.109 189.016 412.964 189.525 412.676C190.034 412.387 190.446 411.953 190.763 411.376C191.079 410.784 191.237 410.062 191.237 409.209C191.237 408.329 191.079 407.607 190.763 407.043C190.46 406.465 190.054 406.032 189.545 405.743C189.05 405.44 188.507 405.289 187.915 405.289C187.338 405.289 186.787 405.44 186.265 405.743C185.756 406.032 185.343 406.465 185.027 407.043C184.71 407.62 184.552 408.343 184.552 409.209C184.552 410.062 184.71 410.784 185.027 411.376C185.343 411.953 185.749 412.387 186.244 412.676C186.753 412.964 187.296 413.109 187.874 413.109ZM200.044 414.595C199.04 414.595 198.152 414.361 197.382 413.893C196.625 413.425 196.034 412.786 195.607 411.974C195.195 411.149 194.988 410.22 194.988 409.188C194.988 408.143 195.195 407.221 195.607 406.424C196.034 405.612 196.632 404.972 197.403 404.505C198.173 404.037 199.06 403.803 200.064 403.803C200.917 403.803 201.667 403.975 202.313 404.319C202.96 404.663 203.455 405.144 203.799 405.763V399.491H205.532V414.347H203.964L203.799 412.655C203.579 412.985 203.297 413.301 202.953 413.604C202.609 413.893 202.196 414.134 201.715 414.326C201.234 414.505 200.676 414.595 200.044 414.595ZM200.25 413.088C200.938 413.088 201.543 412.93 202.066 412.614C202.589 412.284 202.994 411.83 203.283 411.252C203.586 410.66 203.737 409.979 203.737 409.209C203.737 408.425 203.586 407.744 203.283 407.166C202.994 406.589 202.589 406.135 202.066 405.805C201.543 405.474 200.938 405.309 200.25 405.309C199.576 405.309 198.971 405.474 198.434 405.805C197.912 406.135 197.499 406.589 197.196 407.166C196.907 407.744 196.763 408.425 196.763 409.209C196.763 409.979 196.907 410.66 197.196 411.252C197.499 411.83 197.912 412.284 198.434 412.614C198.971 412.93 199.576 413.088 200.25 413.088ZM212.134 414.595C211.336 414.595 210.634 414.436 210.029 414.12C209.437 413.79 208.977 413.295 208.646 412.634C208.33 411.974 208.172 411.135 208.172 410.117V404.051H209.905V409.931C209.905 410.99 210.125 411.788 210.565 412.325C211.019 412.848 211.673 413.109 212.526 413.109C213.103 413.109 213.626 412.964 214.094 412.676C214.561 412.387 214.926 411.974 215.187 411.438C215.462 410.901 215.6 410.241 215.6 409.457V404.051H217.333V414.347H215.765L215.662 412.511C215.346 413.157 214.871 413.666 214.238 414.037C213.619 414.409 212.918 414.595 212.134 414.595ZM224.891 414.595C223.914 414.595 223.034 414.374 222.25 413.934C221.479 413.48 220.867 412.848 220.413 412.036C219.973 411.224 219.753 410.282 219.753 409.209C219.753 408.122 219.973 407.18 220.413 406.382C220.867 405.571 221.479 404.938 222.25 404.484C223.034 404.03 223.914 403.803 224.891 403.803C226.115 403.803 227.14 404.126 227.965 404.773C228.79 405.406 229.313 406.252 229.533 407.311H227.759C227.621 406.678 227.284 406.183 226.748 405.825C226.211 405.468 225.585 405.289 224.87 405.289C224.292 405.289 223.749 405.44 223.24 405.743C222.731 406.032 222.318 406.465 222.002 407.043C221.686 407.62 221.527 408.343 221.527 409.209C221.527 409.842 221.617 410.406 221.796 410.901C221.988 411.396 222.236 411.809 222.538 412.139C222.855 412.469 223.212 412.717 223.611 412.882C224.024 413.047 224.444 413.13 224.87 413.13C225.351 413.13 225.792 413.054 226.191 412.903C226.59 412.737 226.927 412.504 227.202 412.201C227.477 411.885 227.662 411.513 227.759 411.087H229.533C229.313 412.132 228.79 412.978 227.965 413.625C227.14 414.271 226.115 414.595 224.891 414.595ZM235.757 414.347C235.138 414.347 234.601 414.251 234.147 414.058C233.693 413.865 233.343 413.542 233.095 413.088C232.861 412.621 232.744 411.995 232.744 411.211V405.516H230.949V404.051H232.744L232.971 401.575H234.477V404.051H237.49V405.516H234.477V411.211C234.477 411.857 234.608 412.297 234.869 412.531C235.131 412.751 235.592 412.861 236.252 412.861H237.346V414.347H235.757ZM239.897 414.347V404.051H241.631V414.347H239.897ZM240.764 401.802C240.42 401.802 240.131 401.692 239.897 401.471C239.677 401.238 239.567 400.949 239.567 400.605C239.567 400.261 239.677 399.986 239.897 399.78C240.131 399.559 240.42 399.449 240.764 399.449C241.094 399.449 241.376 399.559 241.61 399.78C241.844 399.986 241.961 400.261 241.961 400.605C241.961 400.949 241.844 401.238 241.61 401.471C241.376 401.692 241.094 401.802 240.764 401.802ZM249.312 414.595C248.349 414.595 247.482 414.374 246.712 413.934C245.941 413.494 245.329 412.868 244.875 412.057C244.435 411.245 244.215 410.296 244.215 409.209C244.215 408.109 244.442 407.16 244.896 406.362C245.35 405.55 245.962 404.924 246.732 404.484C247.516 404.03 248.39 403.803 249.353 403.803C250.33 403.803 251.196 404.03 251.953 404.484C252.723 404.924 253.328 405.55 253.768 406.362C254.222 407.16 254.449 408.109 254.449 409.209C254.449 410.296 254.222 411.245 253.768 412.057C253.315 412.868 252.702 413.494 251.932 413.934C251.162 414.374 250.288 414.595 249.312 414.595ZM249.312 413.109C249.903 413.109 250.453 412.964 250.962 412.676C251.471 412.387 251.884 411.953 252.2 411.376C252.517 410.784 252.675 410.062 252.675 409.209C252.675 408.329 252.517 407.607 252.2 407.043C251.898 406.465 251.492 406.032 250.983 405.743C250.488 405.44 249.944 405.289 249.353 405.289C248.775 405.289 248.225 405.44 247.702 405.743C247.193 406.032 246.781 406.465 246.464 407.043C246.148 407.62 245.99 408.343 245.99 409.209C245.99 410.062 246.148 410.784 246.464 411.376C246.781 411.953 247.186 412.387 247.682 412.676C248.19 412.964 248.734 413.109 249.312 413.109ZM256.859 414.347V404.051H258.427L258.531 405.887C258.861 405.241 259.335 404.732 259.954 404.36C260.573 403.989 261.275 403.803 262.059 403.803C262.871 403.803 263.572 403.968 264.164 404.298C264.755 404.615 265.216 405.11 265.546 405.784C265.876 406.444 266.041 407.276 266.041 408.281V414.347H264.308V408.466C264.308 407.421 264.074 406.63 263.607 406.093C263.153 405.557 262.506 405.289 261.667 405.289C261.075 405.289 260.546 405.433 260.078 405.722C259.624 406.011 259.26 406.424 258.985 406.96C258.723 407.497 258.593 408.164 258.593 408.962V414.347H256.859Z" fill="#43525A"/>
<rect x="93.8975" y="450.334" width="247.604" height="51.5842" rx="6.87789" fill="#F5F8F7"/>
<g filter="url(#filter3_d_2004_3584)">
<path d="M134.752 468.118L131.777 471.41H129.55H128.33L127.787 472.012L125.719 474.301L124.43 475.728L123.34 476.934C123.177 477.114 122.964 477.204 122.75 477.204C122.529 477.204 122.307 477.107 122.142 476.913C121.829 476.545 121.862 475.958 122.185 475.6L124.353 473.2L124.519 473.016L126.596 470.717L127.15 470.104V468.789V466.289L128.178 465.151L130.125 462.996C130.15 462.968 130.177 462.943 130.205 462.92C130.212 462.914 130.218 462.909 130.225 462.903C130.253 462.882 130.281 462.862 130.31 462.845C130.312 462.844 130.314 462.843 130.317 462.841C130.344 462.826 130.372 462.813 130.4 462.802C130.407 462.799 130.414 462.796 130.421 462.794C130.451 462.783 130.482 462.774 130.512 462.768C130.516 462.767 130.521 462.767 130.525 462.766C130.552 462.761 130.58 462.758 130.607 462.756C130.614 462.756 130.621 462.755 130.628 462.755C130.659 462.754 130.69 462.755 130.72 462.759C130.725 462.759 130.73 462.76 130.735 462.761C130.762 462.765 130.788 462.77 130.813 462.777C130.821 462.779 130.828 462.78 130.835 462.782C130.865 462.791 130.894 462.801 130.922 462.813C130.926 462.815 130.93 462.818 130.934 462.819C130.959 462.831 130.983 462.844 131.007 462.858C131.013 462.862 131.02 462.866 131.027 462.871C131.053 462.888 131.079 462.906 131.103 462.927C131.106 462.929 131.108 462.932 131.111 462.934C131.133 462.953 131.154 462.974 131.173 462.995C131.179 463.001 131.185 463.007 131.19 463.014C131.211 463.039 131.232 463.065 131.25 463.092C131.252 463.095 131.253 463.097 131.254 463.1C131.271 463.126 131.287 463.154 131.301 463.182C131.304 463.19 131.308 463.198 131.312 463.206C131.326 463.238 131.339 463.27 131.35 463.305C131.351 463.307 131.351 463.308 131.351 463.31C131.361 463.343 131.369 463.378 131.375 463.413C131.377 463.423 131.378 463.432 131.38 463.442C131.385 463.479 131.389 463.518 131.39 463.558L131.45 466.651L131.509 466.652L134.243 466.717C134.391 466.72 134.52 466.769 134.628 466.847C134.669 466.876 134.709 466.908 134.743 466.946C134.793 467 134.836 467.061 134.87 467.128C134.904 467.195 134.93 467.266 134.947 467.341C135.006 467.601 134.954 467.894 134.752 468.118ZM122.603 469.226C118.959 469.226 115.995 472.507 115.995 476.54C115.995 480.574 118.959 483.855 122.603 483.855C126.246 483.855 129.211 480.574 129.211 476.54C129.211 475.546 129.029 474.598 128.702 473.733L126.314 476.376C126.316 476.431 126.32 476.485 126.32 476.541C126.32 478.809 124.652 480.655 122.603 480.655C120.553 480.655 118.886 478.809 118.886 476.541C118.886 474.28 120.542 472.44 122.581 472.427L125.016 469.732C124.268 469.406 123.454 469.226 122.603 469.226ZM133.012 472.777C132.684 473.14 132.24 473.343 131.777 473.343H130.441C130.774 474.34 130.957 475.417 130.957 476.54C130.957 481.639 127.21 485.788 122.603 485.788C117.996 485.788 114.249 481.639 114.249 476.54C114.249 471.441 117.996 467.293 122.603 467.293C123.585 467.293 124.528 467.484 125.403 467.83V466.289C125.403 465.776 125.587 465.285 125.915 464.922L126.467 464.311C125.257 463.841 123.957 463.584 122.603 463.584C116.148 463.584 110.897 469.396 110.897 476.54C110.897 483.685 116.149 489.497 122.603 489.497C129.057 489.497 134.308 483.685 134.308 476.54C134.308 474.989 134.06 473.5 133.605 472.12L133.012 472.777Z" fill="#ABABBB"/>
</g>
<path d="M151.497 483.126V468.682H156.573C157.591 468.682 158.43 468.847 159.09 469.177C159.764 469.494 160.266 469.934 160.596 470.498C160.927 471.048 161.092 471.667 161.092 472.355C161.092 473.098 160.927 473.717 160.596 474.212C160.28 474.707 159.861 475.086 159.338 475.347C158.829 475.608 158.285 475.766 157.708 475.822L157.997 475.615C158.616 475.629 159.186 475.794 159.709 476.11C160.232 476.427 160.645 476.853 160.947 477.39C161.264 477.926 161.422 478.525 161.422 479.185C161.422 479.914 161.243 480.581 160.885 481.186C160.528 481.778 159.998 482.252 159.297 482.61C158.609 482.954 157.756 483.126 156.738 483.126H151.497ZM153.23 481.681H156.552C157.529 481.681 158.285 481.455 158.822 481.001C159.372 480.533 159.647 479.886 159.647 479.061C159.647 478.249 159.365 477.603 158.801 477.121C158.251 476.626 157.488 476.379 156.511 476.379H153.23V481.681ZM153.23 474.996H156.449C157.384 474.996 158.093 474.776 158.574 474.336C159.07 473.896 159.317 473.297 159.317 472.541C159.317 471.812 159.07 471.227 158.574 470.787C158.093 470.347 157.364 470.127 156.387 470.127H153.23V474.996ZM167.211 483.373C166.358 483.373 165.65 483.229 165.086 482.94C164.522 482.651 164.102 482.266 163.827 481.785C163.552 481.289 163.414 480.76 163.414 480.196C163.414 479.494 163.593 478.903 163.951 478.421C164.322 477.94 164.838 477.575 165.498 477.328C166.172 477.066 166.963 476.936 167.871 476.936H170.636C170.636 476.289 170.533 475.76 170.327 475.347C170.12 474.921 169.824 474.597 169.439 474.377C169.068 474.157 168.607 474.047 168.057 474.047C167.383 474.047 166.798 474.219 166.303 474.563C165.821 474.893 165.526 475.381 165.416 476.028H163.641C163.724 475.285 163.978 474.659 164.405 474.15C164.831 473.641 165.368 473.256 166.014 472.995C166.661 472.72 167.342 472.582 168.057 472.582C169.006 472.582 169.797 472.761 170.43 473.119C171.076 473.462 171.558 473.951 171.874 474.583C172.204 475.203 172.369 475.938 172.369 476.791V483.126H170.822L170.719 481.289C170.581 481.578 170.402 481.853 170.182 482.115C169.976 482.362 169.728 482.582 169.439 482.775C169.164 482.954 168.841 483.098 168.469 483.208C168.098 483.318 167.679 483.373 167.211 483.373ZM167.479 481.908C167.974 481.908 168.414 481.812 168.8 481.62C169.199 481.413 169.536 481.138 169.811 480.794C170.086 480.45 170.292 480.065 170.43 479.639C170.567 479.212 170.636 478.765 170.636 478.298V478.277H168.016C167.342 478.277 166.798 478.359 166.385 478.525C165.973 478.676 165.677 478.889 165.498 479.164C165.319 479.439 165.23 479.756 165.23 480.113C165.23 480.471 165.313 480.787 165.478 481.062C165.656 481.338 165.911 481.551 166.241 481.702C166.585 481.84 166.998 481.908 167.479 481.908ZM178.93 483.373C178.105 483.373 177.369 483.236 176.722 482.961C176.076 482.672 175.56 482.273 175.175 481.764C174.79 481.241 174.549 480.629 174.453 479.928H176.227C176.31 480.285 176.461 480.615 176.681 480.918C176.915 481.221 177.218 481.461 177.589 481.64C177.974 481.819 178.428 481.908 178.951 481.908C179.446 481.908 179.845 481.84 180.147 481.702C180.464 481.551 180.698 481.358 180.849 481.124C181.014 480.877 181.097 480.609 181.097 480.32C181.097 479.907 180.993 479.597 180.787 479.391C180.595 479.171 180.306 478.999 179.921 478.875C179.535 478.738 179.068 478.621 178.517 478.525C178.091 478.442 177.665 478.332 177.238 478.194C176.812 478.057 176.42 477.878 176.062 477.658C175.718 477.438 175.443 477.17 175.237 476.853C175.03 476.523 174.927 476.117 174.927 475.636C174.927 475.044 175.078 474.522 175.381 474.068C175.684 473.6 176.11 473.235 176.66 472.974C177.224 472.713 177.885 472.582 178.641 472.582C179.742 472.582 180.636 472.85 181.324 473.387C182.025 473.923 182.431 474.7 182.541 475.718H180.828C180.773 475.196 180.553 474.79 180.168 474.501C179.797 474.198 179.281 474.047 178.621 474.047C177.988 474.047 177.506 474.178 177.176 474.439C176.846 474.7 176.681 475.044 176.681 475.471C176.681 475.746 176.77 475.987 176.949 476.193C177.142 476.386 177.417 476.557 177.775 476.709C178.146 476.846 178.586 476.97 179.095 477.08C179.755 477.204 180.368 477.369 180.932 477.575C181.496 477.782 181.956 478.084 182.314 478.483C182.685 478.868 182.871 479.432 182.871 480.175C182.871 480.808 182.706 481.365 182.376 481.847C182.06 482.328 181.606 482.706 181.014 482.981C180.436 483.243 179.742 483.373 178.93 483.373ZM185.532 483.126V472.83H187.266V483.126H185.532ZM186.399 470.581C186.055 470.581 185.766 470.471 185.532 470.25C185.312 470.017 185.202 469.728 185.202 469.384C185.202 469.04 185.312 468.765 185.532 468.558C185.766 468.338 186.055 468.228 186.399 468.228C186.729 468.228 187.011 468.338 187.245 468.558C187.479 468.765 187.596 469.04 187.596 469.384C187.596 469.728 187.479 470.017 187.245 470.25C187.011 470.471 186.729 470.581 186.399 470.581ZM194.988 483.373C194.011 483.373 193.131 483.153 192.347 482.713C191.577 482.259 190.964 481.626 190.51 480.815C190.07 480.003 189.85 479.061 189.85 477.988C189.85 476.901 190.07 475.959 190.51 475.161C190.964 474.35 191.577 473.717 192.347 473.263C193.131 472.809 194.011 472.582 194.988 472.582C196.212 472.582 197.237 472.905 198.062 473.552C198.888 474.185 199.41 475.031 199.631 476.09H197.856C197.718 475.457 197.381 474.962 196.845 474.604C196.309 474.246 195.683 474.068 194.967 474.068C194.39 474.068 193.846 474.219 193.337 474.522C192.828 474.81 192.416 475.244 192.099 475.822C191.783 476.399 191.625 477.121 191.625 477.988C191.625 478.621 191.714 479.185 191.893 479.68C192.085 480.175 192.333 480.588 192.636 480.918C192.952 481.248 193.31 481.496 193.709 481.661C194.121 481.826 194.541 481.908 194.967 481.908C195.449 481.908 195.889 481.833 196.288 481.681C196.687 481.516 197.024 481.283 197.299 480.98C197.574 480.664 197.76 480.292 197.856 479.866H199.631C199.41 480.911 198.888 481.757 198.062 482.404C197.237 483.05 196.212 483.373 194.988 483.373Z" fill="#43525A"/>
<g filter="url(#filter4_dd_2004_3584)">
<path d="M289.855 144.187C289.855 136.338 296.219 129.975 304.068 129.975H623.844V447.975H304.068C296.219 447.975 289.855 441.612 289.855 433.763V144.187Z" fill="white"/>
</g>
<path d="M330.858 193.506V173.653H344.049V176.851H334.482V181.941H343.516V185.138H334.482V190.308H344.049V193.506H330.858ZM345.107 193.506L350.171 186.231L345.081 179.009H349.185L353.155 184.872H351.316L355.287 179.009H359.364L354.301 186.231L359.337 193.506H355.26L351.343 187.67H353.128L349.211 193.506H345.107ZM361.273 198.835V179.009H364.55V181.887L364.231 181.168C364.728 180.386 365.403 179.782 366.256 179.356C367.108 178.912 368.094 178.689 369.214 178.689C370.582 178.689 371.816 179.027 372.918 179.702C374.019 180.377 374.89 181.283 375.529 182.42C376.187 183.557 376.515 184.836 376.515 186.258C376.515 187.661 376.195 188.94 375.556 190.095C374.916 191.25 374.046 192.165 372.944 192.84C371.843 193.497 370.591 193.826 369.187 193.826C368.139 193.826 367.171 193.621 366.282 193.213C365.412 192.786 364.719 192.182 364.204 191.401L364.763 190.708V198.835H361.273ZM368.787 190.628C369.587 190.628 370.297 190.441 370.919 190.068C371.541 189.695 372.021 189.18 372.358 188.523C372.713 187.865 372.891 187.11 372.891 186.258C372.891 185.405 372.713 184.659 372.358 184.019C372.021 183.362 371.541 182.847 370.919 182.474C370.297 182.083 369.587 181.887 368.787 181.887C368.023 181.887 367.331 182.074 366.709 182.447C366.105 182.82 365.625 183.344 365.27 184.019C364.932 184.676 364.763 185.423 364.763 186.258C364.763 187.11 364.932 187.865 365.27 188.523C365.625 189.18 366.105 189.695 366.709 190.068C367.331 190.441 368.023 190.628 368.787 190.628ZM386.052 193.826C384.56 193.826 383.254 193.488 382.135 192.813C381.015 192.138 380.145 191.223 379.523 190.068C378.901 188.913 378.59 187.634 378.59 186.231C378.59 184.774 378.901 183.486 379.523 182.367C380.163 181.23 381.024 180.333 382.108 179.675C383.209 179.018 384.435 178.689 385.785 178.689C386.922 178.689 387.917 178.876 388.77 179.249C389.641 179.622 390.378 180.137 390.982 180.795C391.586 181.452 392.048 182.207 392.368 183.06C392.687 183.895 392.847 184.801 392.847 185.778C392.847 186.027 392.829 186.284 392.794 186.551C392.776 186.817 392.732 187.048 392.661 187.244H381.468V184.579H390.689L389.036 185.831C389.196 185.014 389.152 184.286 388.903 183.646C388.672 183.006 388.281 182.5 387.731 182.127C387.198 181.754 386.549 181.567 385.785 181.567C385.057 181.567 384.409 181.754 383.84 182.127C383.272 182.482 382.836 183.015 382.534 183.726C382.25 184.419 382.144 185.263 382.215 186.258C382.144 187.146 382.259 187.936 382.561 188.629C382.881 189.304 383.343 189.828 383.947 190.201C384.569 190.575 385.279 190.761 386.079 190.761C386.878 190.761 387.553 190.592 388.104 190.255C388.672 189.917 389.116 189.464 389.436 188.896L392.261 190.281C391.977 190.974 391.533 191.587 390.929 192.12C390.324 192.653 389.605 193.071 388.77 193.373C387.953 193.675 387.047 193.826 386.052 193.826ZM395.493 193.506V179.009H398.771V182.234L398.505 181.754C398.842 180.67 399.366 179.915 400.077 179.489C400.805 179.063 401.676 178.849 402.688 178.849H403.541V181.941H402.289C401.294 181.941 400.494 182.251 399.89 182.873C399.286 183.477 398.984 184.33 398.984 185.431V193.506H395.493ZM405.46 193.506V179.009H408.951V193.506H405.46ZM405.46 177.384V173.653H408.951V177.384H405.46ZM419.05 193.826C417.557 193.826 416.252 193.488 415.132 192.813C414.013 192.138 413.143 191.223 412.521 190.068C411.899 188.913 411.588 187.634 411.588 186.231C411.588 184.774 411.899 183.486 412.521 182.367C413.16 181.23 414.022 180.333 415.106 179.675C416.207 179.018 417.433 178.689 418.783 178.689C419.92 178.689 420.915 178.876 421.768 179.249C422.638 179.622 423.376 180.137 423.98 180.795C424.584 181.452 425.045 182.207 425.365 183.06C425.685 183.895 425.845 184.801 425.845 185.778C425.845 186.027 425.827 186.284 425.792 186.551C425.774 186.817 425.729 187.048 425.658 187.244H414.466V184.579H423.686L422.034 185.831C422.194 185.014 422.15 184.286 421.901 183.646C421.67 183.006 421.279 182.5 420.729 182.127C420.196 181.754 419.547 181.567 418.783 181.567C418.055 181.567 417.406 181.754 416.838 182.127C416.269 182.482 415.834 183.015 415.532 183.726C415.248 184.419 415.141 185.263 415.212 186.258C415.141 187.146 415.257 187.936 415.559 188.629C415.879 189.304 416.34 189.828 416.944 190.201C417.566 190.575 418.277 190.761 419.076 190.761C419.876 190.761 420.551 190.592 421.102 190.255C421.67 189.917 422.114 189.464 422.434 188.896L425.259 190.281C424.974 190.974 424.53 191.587 423.926 192.12C423.322 192.653 422.603 193.071 421.768 193.373C420.951 193.675 420.045 193.826 419.05 193.826ZM428.491 193.506V179.009H431.769V181.861L431.502 181.354C431.84 180.484 432.391 179.826 433.155 179.382C433.936 178.92 434.842 178.689 435.873 178.689C436.939 178.689 437.88 178.92 438.697 179.382C439.532 179.844 440.181 180.493 440.643 181.328C441.105 182.145 441.336 183.095 441.336 184.179V193.506H437.845V185.005C437.845 184.366 437.72 183.815 437.472 183.353C437.223 182.891 436.876 182.536 436.432 182.287C436.006 182.02 435.5 181.887 434.913 181.887C434.345 181.887 433.839 182.02 433.394 182.287C432.95 182.536 432.604 182.891 432.355 183.353C432.106 183.815 431.982 184.366 431.982 185.005V193.506H428.491ZM451.269 193.826C449.83 193.826 448.533 193.497 447.379 192.84C446.242 192.165 445.345 191.258 444.687 190.121C444.03 188.967 443.701 187.67 443.701 186.231C443.701 184.792 444.03 183.504 444.687 182.367C445.345 181.23 446.242 180.333 447.379 179.675C448.533 179.018 449.83 178.689 451.269 178.689C452.3 178.689 453.259 178.876 454.147 179.249C455.036 179.604 455.799 180.102 456.439 180.741C457.096 181.363 457.567 182.109 457.851 182.98L454.787 184.312C454.52 183.584 454.067 182.998 453.428 182.553C452.806 182.109 452.086 181.887 451.269 181.887C450.505 181.887 449.821 182.074 449.217 182.447C448.631 182.82 448.169 183.335 447.832 183.992C447.494 184.65 447.325 185.405 447.325 186.258C447.325 187.11 447.494 187.865 447.832 188.523C448.169 189.18 448.631 189.695 449.217 190.068C449.821 190.441 450.505 190.628 451.269 190.628C452.104 190.628 452.833 190.406 453.454 189.962C454.076 189.517 454.52 188.922 454.787 188.176L457.851 189.562C457.567 190.379 457.105 191.116 456.466 191.774C455.826 192.413 455.062 192.92 454.174 193.293C453.286 193.648 452.317 193.826 451.269 193.826ZM467.375 193.826C465.883 193.826 464.577 193.488 463.458 192.813C462.339 192.138 461.468 191.223 460.847 190.068C460.225 188.913 459.914 187.634 459.914 186.231C459.914 184.774 460.225 183.486 460.847 182.367C461.486 181.23 462.348 180.333 463.431 179.675C464.533 179.018 465.759 178.689 467.109 178.689C468.246 178.689 469.241 178.876 470.093 179.249C470.964 179.622 471.701 180.137 472.305 180.795C472.909 181.452 473.371 182.207 473.691 183.06C474.011 183.895 474.171 184.801 474.171 185.778C474.171 186.027 474.153 186.284 474.117 186.551C474.099 186.817 474.055 187.048 473.984 187.244H462.792V184.579H472.012L470.36 185.831C470.52 185.014 470.475 184.286 470.227 183.646C469.996 183.006 469.605 182.5 469.054 182.127C468.521 181.754 467.873 181.567 467.109 181.567C466.38 181.567 465.732 181.754 465.163 182.127C464.595 182.482 464.16 183.015 463.858 183.726C463.573 184.419 463.467 185.263 463.538 186.258C463.467 187.146 463.582 187.936 463.884 188.629C464.204 189.304 464.666 189.828 465.27 190.201C465.892 190.575 466.602 190.761 467.402 190.761C468.201 190.761 468.876 190.592 469.427 190.255C469.996 189.917 470.44 189.464 470.76 188.896L473.584 190.281C473.3 190.974 472.856 191.587 472.252 192.12C471.648 192.653 470.928 193.071 470.093 193.373C469.276 193.675 468.37 193.826 467.375 193.826Z" fill="#040447"/>
<path d="M392.894 263.216C392.894 260.272 395.281 257.886 398.224 257.886H483.498C486.441 257.886 488.827 260.272 488.827 263.216C488.827 266.159 486.441 268.545 483.498 268.545H398.224C395.281 268.545 392.894 266.159 392.894 263.216Z" fill="#EDF7F3"/>
<path d="M398.395 243.632C397.438 243.632 396.594 243.419 395.865 242.993C395.145 242.557 394.581 241.955 394.174 241.188C393.766 240.411 393.562 239.511 393.562 238.487C393.562 237.474 393.766 236.583 394.174 235.815C394.581 235.038 395.145 234.432 395.865 233.996C396.594 233.56 397.438 233.342 398.395 233.342C399.371 233.342 400.219 233.56 400.939 233.996C401.668 234.432 402.232 235.038 402.63 235.815C403.028 236.583 403.227 237.474 403.227 238.487C403.227 239.511 403.028 240.411 402.63 241.188C402.232 241.955 401.668 242.557 400.939 242.993C400.219 243.419 399.371 243.632 398.395 243.632ZM398.395 242.58C399.115 242.58 399.745 242.419 400.285 242.097C400.834 241.766 401.256 241.297 401.55 240.69C401.853 240.074 402.005 239.34 402.005 238.487C402.005 237.635 401.853 236.905 401.55 236.299C401.256 235.683 400.834 235.214 400.285 234.892C399.745 234.569 399.115 234.408 398.395 234.408C397.684 234.408 397.054 234.569 396.504 234.892C395.964 235.214 395.543 235.683 395.239 236.299C394.936 236.905 394.785 237.635 394.785 238.487C394.785 239.34 394.936 240.074 395.239 240.69C395.543 241.297 395.964 241.766 396.504 242.097C397.054 242.419 397.684 242.58 398.395 242.58ZM404.895 243.462V236.313H405.975L406.046 237.549C406.274 237.113 406.596 236.772 407.013 236.526C407.439 236.27 407.922 236.142 408.462 236.142C409.021 236.142 409.505 236.251 409.912 236.469C410.32 236.687 410.637 237.023 410.864 237.478C411.092 237.924 411.205 238.492 411.205 239.184V243.462H410.012V239.312C410.012 238.601 409.851 238.066 409.528 237.706C409.216 237.346 408.77 237.166 408.192 237.166C407.795 237.166 407.434 237.26 407.112 237.45C406.8 237.639 406.549 237.919 406.359 238.288C406.179 238.658 406.089 239.108 406.089 239.639V243.462H404.895ZM413.042 243.462V233.229H414.236V243.462H413.042ZM416.335 243.462V236.313H417.528V243.462H416.335ZM416.932 234.778C416.695 234.778 416.496 234.702 416.335 234.551C416.183 234.389 416.107 234.19 416.107 233.954C416.107 233.717 416.183 233.527 416.335 233.385C416.496 233.234 416.695 233.158 416.932 233.158C417.159 233.158 417.353 233.234 417.514 233.385C417.675 233.527 417.756 233.717 417.756 233.954C417.756 234.19 417.675 234.389 417.514 234.551C417.353 234.702 417.159 234.778 416.932 234.778ZM419.607 243.462V236.313H420.687L420.758 237.549C420.986 237.113 421.308 236.772 421.725 236.526C422.151 236.27 422.634 236.142 423.174 236.142C423.733 236.142 424.217 236.251 424.624 236.469C425.031 236.687 425.349 237.023 425.576 237.478C425.804 237.924 425.917 238.492 425.917 239.184V243.462H424.724V239.312C424.724 238.601 424.562 238.066 424.24 237.706C423.928 237.346 423.482 237.166 422.904 237.166C422.506 237.166 422.146 237.26 421.824 237.45C421.512 237.639 421.26 237.919 421.071 238.288C420.891 238.658 420.801 239.108 420.801 239.639V243.462H419.607ZM430.909 243.632C430.246 243.632 429.654 243.476 429.133 243.163C428.612 242.85 428.2 242.415 427.896 241.856C427.603 241.297 427.456 240.638 427.456 239.88C427.456 239.122 427.603 238.464 427.896 237.905C428.19 237.346 428.597 236.914 429.119 236.611C429.649 236.299 430.256 236.142 430.938 236.142C431.639 236.142 432.236 236.299 432.729 236.611C433.221 236.914 433.595 237.322 433.851 237.834C434.117 238.345 434.249 238.899 434.249 239.496C434.249 239.591 434.249 239.691 434.249 239.795C434.249 239.899 434.244 240.018 434.235 240.15H428.351V239.226H433.07C433.041 238.573 432.823 238.066 432.416 237.706C432.018 237.336 431.516 237.151 430.909 237.151C430.511 237.151 430.137 237.241 429.787 237.421C429.436 237.601 429.152 237.871 428.934 238.232C428.725 238.582 428.621 239.023 428.621 239.553V239.951C428.621 240.548 428.73 241.046 428.948 241.443C429.166 241.832 429.445 242.126 429.787 242.325C430.137 242.524 430.511 242.623 430.909 242.623C431.412 242.623 431.824 242.514 432.146 242.296C432.477 242.069 432.719 241.761 432.871 241.372H434.05C433.927 241.808 433.723 242.197 433.439 242.538C433.155 242.869 432.8 243.135 432.373 243.334C431.956 243.533 431.468 243.632 430.909 243.632Z" fill="#44686C"/>
<circle cx="447.967" cy="240.121" r="5.32961" fill="#FB615F"/>
<circle cx="588.314" cy="243.674" r="1.77654" fill="#567C82"/>
<circle cx="588.314" cy="249.003" r="1.77654" fill="#567C82"/>
<circle cx="588.314" cy="254.333" r="1.77654" fill="#567C82"/>
<g filter="url(#filter5_d_2004_3584)">
<circle cx="352.034" cy="247.227" r="22.2067" stroke="white" stroke-width="1.77654"/>
</g>
<path d="M392.894 334.277C392.894 331.334 395.281 328.948 398.224 328.948H483.498C486.441 328.948 488.827 331.334 488.827 334.277C488.827 337.221 486.441 339.607 483.498 339.607H398.224C395.281 339.607 392.894 337.221 392.894 334.277Z" fill="#EDF7F3"/>
<path d="M398.395 314.694C397.438 314.694 396.594 314.48 395.865 314.054C395.145 313.618 394.581 313.017 394.174 312.249C393.766 311.472 393.562 310.572 393.562 309.549C393.562 308.535 393.766 307.644 394.174 306.877C394.581 306.1 395.145 305.494 395.865 305.058C396.594 304.622 397.438 304.404 398.395 304.404C399.371 304.404 400.219 304.622 400.939 305.058C401.668 305.494 402.232 306.1 402.63 306.877C403.028 307.644 403.227 308.535 403.227 309.549C403.227 310.572 403.028 311.472 402.63 312.249C402.232 313.017 401.668 313.618 400.939 314.054C400.219 314.48 399.371 314.694 398.395 314.694ZM398.395 313.642C399.115 313.642 399.745 313.481 400.285 313.159C400.834 312.827 401.256 312.358 401.55 311.752C401.853 311.136 402.005 310.402 402.005 309.549C402.005 308.696 401.853 307.966 401.55 307.36C401.256 306.744 400.834 306.275 400.285 305.953C399.745 305.631 399.115 305.47 398.395 305.47C397.684 305.47 397.054 305.631 396.504 305.953C395.964 306.275 395.543 306.744 395.239 307.36C394.936 307.966 394.785 308.696 394.785 309.549C394.785 310.402 394.936 311.136 395.239 311.752C395.543 312.358 395.964 312.827 396.504 313.159C397.054 313.481 397.684 313.642 398.395 313.642ZM404.895 314.523V307.374H405.975L406.046 308.611C406.274 308.175 406.596 307.834 407.013 307.587C407.439 307.332 407.922 307.204 408.462 307.204C409.021 307.204 409.505 307.313 409.912 307.531C410.32 307.749 410.637 308.085 410.864 308.54C411.092 308.985 411.205 309.554 411.205 310.245V314.523H410.012V310.373C410.012 309.662 409.851 309.127 409.528 308.767C409.216 308.407 408.77 308.227 408.192 308.227C407.795 308.227 407.434 308.322 407.112 308.511C406.8 308.701 406.549 308.98 406.359 309.35C406.179 309.719 406.089 310.169 406.089 310.7V314.523H404.895ZM413.042 314.523V304.29H414.236V314.523H413.042ZM416.335 314.523V307.374H417.528V314.523H416.335ZM416.932 305.839C416.695 305.839 416.496 305.764 416.335 305.612C416.183 305.451 416.107 305.252 416.107 305.015C416.107 304.778 416.183 304.589 416.335 304.447C416.496 304.295 416.695 304.219 416.932 304.219C417.159 304.219 417.353 304.295 417.514 304.447C417.675 304.589 417.756 304.778 417.756 305.015C417.756 305.252 417.675 305.451 417.514 305.612C417.353 305.764 417.159 305.839 416.932 305.839ZM419.607 314.523V307.374H420.687L420.758 308.611C420.986 308.175 421.308 307.834 421.725 307.587C422.151 307.332 422.634 307.204 423.174 307.204C423.733 307.204 424.217 307.313 424.624 307.531C425.031 307.749 425.349 308.085 425.576 308.54C425.804 308.985 425.917 309.554 425.917 310.245V314.523H424.724V310.373C424.724 309.662 424.562 309.127 424.24 308.767C423.928 308.407 423.482 308.227 422.904 308.227C422.506 308.227 422.146 308.322 421.824 308.511C421.512 308.701 421.26 308.98 421.071 309.35C420.891 309.719 420.801 310.169 420.801 310.7V314.523H419.607ZM430.909 314.694C430.246 314.694 429.654 314.537 429.133 314.225C428.612 313.912 428.2 313.476 427.896 312.917C427.603 312.358 427.456 311.7 427.456 310.942C427.456 310.184 427.603 309.525 427.896 308.966C428.19 308.407 428.597 307.976 429.119 307.673C429.649 307.36 430.256 307.204 430.938 307.204C431.639 307.204 432.236 307.36 432.729 307.673C433.221 307.976 433.595 308.383 433.851 308.895C434.117 309.407 434.249 309.961 434.249 310.558C434.249 310.653 434.249 310.752 434.249 310.856C434.249 310.961 434.244 311.079 434.235 311.212H428.351V310.288H433.07C433.041 309.634 432.823 309.127 432.416 308.767C432.018 308.398 431.516 308.213 430.909 308.213C430.511 308.213 430.137 308.303 429.787 308.483C429.436 308.663 429.152 308.933 428.934 309.293C428.725 309.644 428.621 310.084 428.621 310.615V311.013C428.621 311.61 428.73 312.107 428.948 312.505C429.166 312.893 429.445 313.187 429.787 313.386C430.137 313.585 430.511 313.685 430.909 313.685C431.412 313.685 431.824 313.576 432.146 313.358C432.477 313.13 432.719 312.822 432.871 312.434H434.05C433.927 312.87 433.723 313.258 433.439 313.599C433.155 313.931 432.8 314.196 432.373 314.395C431.956 314.594 431.468 314.694 430.909 314.694Z" fill="#44686C"/>
<circle cx="447.967" cy="311.182" r="5.32961" fill="#FB615F"/>
<circle cx="588.314" cy="314.735" r="1.77654" fill="#567C82"/>
<circle cx="588.314" cy="320.065" r="1.77654" fill="#567C82"/>
<circle cx="588.314" cy="325.394" r="1.77654" fill="#567C82"/>
<g filter="url(#filter6_d_2004_3584)">
<circle cx="352.034" cy="318.288" r="22.2067" stroke="white" stroke-width="1.77654"/>
</g>
<path d="M392.894 405.339C392.894 402.395 395.281 400.009 398.224 400.009H483.498C486.441 400.009 488.827 402.395 488.827 405.339C488.827 408.282 486.441 410.668 483.498 410.668H398.224C395.281 410.668 392.894 408.282 392.894 405.339Z" fill="#EDF7F3"/>
<path d="M398.394 385.755C397.437 385.755 396.594 385.541 395.865 385.115C395.145 384.679 394.581 384.078 394.173 383.31C393.766 382.533 393.562 381.633 393.562 380.61C393.562 379.596 393.766 378.705 394.173 377.938C394.581 377.161 395.145 376.555 395.865 376.119C396.594 375.683 397.437 375.465 398.394 375.465C399.37 375.465 400.218 375.683 400.938 376.119C401.668 376.555 402.232 377.161 402.63 377.938C403.028 378.705 403.227 379.596 403.227 380.61C403.227 381.633 403.028 382.533 402.63 383.31C402.232 384.078 401.668 384.679 400.938 385.115C400.218 385.541 399.37 385.755 398.394 385.755ZM398.394 384.703C399.114 384.703 399.745 384.542 400.285 384.22C400.834 383.888 401.256 383.419 401.55 382.813C401.853 382.197 402.004 381.463 402.004 380.61C402.004 379.757 401.853 379.028 401.55 378.421C401.256 377.805 400.834 377.336 400.285 377.014C399.745 376.692 399.114 376.531 398.394 376.531C397.684 376.531 397.054 376.692 396.504 377.014C395.964 377.336 395.542 377.805 395.239 378.421C394.936 379.028 394.784 379.757 394.784 380.61C394.784 381.463 394.936 382.197 395.239 382.813C395.542 383.419 395.964 383.888 396.504 384.22C397.054 384.542 397.684 384.703 398.394 384.703ZM404.895 385.584V378.435H405.975L406.046 379.672C406.274 379.236 406.596 378.895 407.013 378.649C407.439 378.393 407.922 378.265 408.462 378.265C409.021 378.265 409.504 378.374 409.912 378.592C410.319 378.81 410.637 379.146 410.864 379.601C411.092 380.046 411.205 380.615 411.205 381.306V385.584H410.011V381.434C410.011 380.724 409.85 380.188 409.528 379.828C409.215 379.468 408.77 379.288 408.192 379.288C407.794 379.288 407.434 379.383 407.112 379.572C406.799 379.762 406.548 380.041 406.359 380.411C406.179 380.78 406.089 381.23 406.089 381.761V385.584H404.895ZM413.042 385.584V375.351H414.236V385.584H413.042ZM416.334 385.584V378.435H417.528V385.584H416.334ZM416.931 376.9C416.694 376.9 416.495 376.825 416.334 376.673C416.183 376.512 416.107 376.313 416.107 376.076C416.107 375.839 416.183 375.65 416.334 375.508C416.495 375.356 416.694 375.28 416.931 375.28C417.159 375.28 417.353 375.356 417.514 375.508C417.675 375.65 417.756 375.839 417.756 376.076C417.756 376.313 417.675 376.512 417.514 376.673C417.353 376.825 417.159 376.9 416.931 376.9ZM419.607 385.584V378.435H420.687L420.758 379.672C420.985 379.236 421.308 378.895 421.725 378.649C422.151 378.393 422.634 378.265 423.174 378.265C423.733 378.265 424.216 378.374 424.624 378.592C425.031 378.81 425.349 379.146 425.576 379.601C425.803 380.046 425.917 380.615 425.917 381.306V385.584H424.723V381.434C424.723 380.724 424.562 380.188 424.24 379.828C423.927 379.468 423.482 379.288 422.904 379.288C422.506 379.288 422.146 379.383 421.824 379.572C421.511 379.762 421.26 380.041 421.071 380.411C420.891 380.78 420.801 381.23 420.801 381.761V385.584H419.607ZM430.909 385.755C430.246 385.755 429.654 385.598 429.133 385.286C428.611 384.973 428.199 384.537 427.896 383.978C427.602 383.419 427.456 382.761 427.456 382.003C427.456 381.245 427.602 380.586 427.896 380.027C428.19 379.468 428.597 379.037 429.118 378.734C429.649 378.421 430.255 378.265 430.938 378.265C431.639 378.265 432.236 378.421 432.728 378.734C433.221 379.037 433.595 379.444 433.851 379.956C434.116 380.468 434.249 381.022 434.249 381.619C434.249 381.714 434.249 381.813 434.249 381.917C434.249 382.022 434.244 382.14 434.235 382.273H428.351V381.349H433.069C433.041 380.695 432.823 380.188 432.416 379.828C432.018 379.459 431.515 379.274 430.909 379.274C430.511 379.274 430.137 379.364 429.786 379.544C429.436 379.724 429.152 379.994 428.934 380.354C428.725 380.705 428.621 381.145 428.621 381.676V382.074C428.621 382.671 428.73 383.168 428.948 383.566C429.166 383.954 429.445 384.248 429.786 384.447C430.137 384.646 430.511 384.746 430.909 384.746C431.411 384.746 431.823 384.637 432.146 384.419C432.477 384.191 432.719 383.883 432.87 383.495H434.05C433.927 383.931 433.723 384.319 433.439 384.66C433.155 384.992 432.799 385.257 432.373 385.456C431.956 385.655 431.468 385.755 430.909 385.755Z" fill="#44686C"/>
<circle cx="447.967" cy="382.243" r="5.32961" fill="#FB615F"/>
<circle cx="588.314" cy="385.796" r="1.77654" fill="#567C82"/>
<circle cx="588.314" cy="391.126" r="1.77654" fill="#567C82"/>
<circle cx="588.314" cy="396.456" r="1.77654" fill="#567C82"/>
<g filter="url(#filter7_d_2004_3584)">
<circle cx="352.034" cy="389.349" r="22.2067" stroke="white" stroke-width="1.77654"/>
</g>
<defs>
<filter id="filter0_dd_2004_3584" x="0.0695801" y="221.644" width="435.261" height="426.664" filterUnits="userSpaceOnUse" color-interpolation-filters="sRGB">
<feFlood flood-opacity="0" result="BackgroundImageFix"/>
<feColorMatrix in="SourceAlpha" type="matrix" values="0 0 0 0 0 0 0 0 0 0 0 0 0 0 0 0 0 0 127 0" result="hardAlpha"/>
<feOffset dy="24"/>
<feGaussianBlur stdDeviation="12"/>
<feComposite in2="hardAlpha" operator="out"/>
<feColorMatrix type="matrix" values="0 0 0 0 0.847194 0 0 0 0 0.847194 0 0 0 0 0.847194 0 0 0 0.1 0"/>
<feBlend mode="normal" in2="BackgroundImageFix" result="effect1_dropShadow_2004_3584"/>
<feColorMatrix in="SourceAlpha" type="matrix" values="0 0 0 0 0 0 0 0 0 0 0 0 0 0 0 0 0 0 127 0" result="hardAlpha"/>
<feOffset dy="56"/>
<feGaussianBlur stdDeviation="28"/>
<feComposite in2="hardAlpha" operator="out"/>
<feColorMatrix type="matrix" values="0 0 0 0 0.621281 0 0 0 0 0.621281 0 0 0 0 0.621281 0 0 0 0.1 0"/>
<feBlend mode="normal" in2="effect1_dropShadow_2004_3584" result="effect2_dropShadow_2004_3584"/>
<feBlend mode="normal" in="SourceGraphic" in2="effect2_dropShadow_2004_3584" result="shape"/>
</filter>
<filter id="filter1_d_2004_3584" x="83.3859" y="302.459" width="92.8516" height="92.8516" filterUnits="userSpaceOnUse" color-interpolation-filters="sRGB">
<feFlood flood-opacity="0" result="BackgroundImageFix"/>
<feColorMatrix in="SourceAlpha" type="matrix" values="0 0 0 0 0 0 0 0 0 0 0 0 0 0 0 0 0 0 127 0" result="hardAlpha"/>
<feOffset dx="6.87789" dy="10.3168"/>
<feGaussianBlur stdDeviation="17.1947"/>
<feColorMatrix type="matrix" values="0 0 0 0 0.92549 0 0 0 0 0.333333 0 0 0 0 0.411765 0 0 0 0.27 0"/>
<feBlend mode="normal" in2="BackgroundImageFix" result="effect1_dropShadow_2004_3584"/>
<feBlend mode="normal" in="SourceGraphic" in2="effect1_dropShadow_2004_3584" result="shape"/>
</filter>
<filter id="filter2_d_2004_3584" x="93.7027" y="384.55" width="58.4621" height="59.349" filterUnits="userSpaceOnUse" color-interpolation-filters="sRGB">
<feFlood flood-opacity="0" result="BackgroundImageFix"/>
<feColorMatrix in="SourceAlpha" type="matrix" values="0 0 0 0 0 0 0 0 0 0 0 0 0 0 0 0 0 0 127 0" result="hardAlpha"/>
<feOffset dy="6.87789"/>
<feGaussianBlur stdDeviation="8.59737"/>
<feColorMatrix type="matrix" values="0 0 0 0 0.208284 0 0 0 0 0.172933 0 0 0 0 0.425 0 0 0 0.2 0"/>
<feBlend mode="normal" in2="BackgroundImageFix" result="effect1_dropShadow_2004_3584"/>
<feBlend mode="normal" in="SourceGraphic" in2="effect1_dropShadow_2004_3584" result="shape"/>
</filter>
<filter id="filter3_d_2004_3584" x="93.7027" y="452.438" width="58.4621" height="61.1318" filterUnits="userSpaceOnUse" color-interpolation-filters="sRGB">
<feFlood flood-opacity="0" result="BackgroundImageFix"/>
<feColorMatrix in="SourceAlpha" type="matrix" values="0 0 0 0 0 0 0 0 0 0 0 0 0 0 0 0 0 0 127 0" result="hardAlpha"/>
<feOffset dy="6.87789"/>
<feGaussianBlur stdDeviation="8.59737"/>
<feColorMatrix type="matrix" values="0 0 0 0 0.245833 0 0 0 0 0.245833 0 0 0 0 0.245833 0 0 0 0.25 0"/>
<feBlend mode="normal" in2="BackgroundImageFix" result="effect1_dropShadow_2004_3584"/>
<feBlend mode="normal" in="SourceGraphic" in2="effect1_dropShadow_2004_3584" result="shape"/>
</filter>
<filter id="filter4_dd_2004_3584" x="233.855" y="58.9751" width="445.989" height="430" filterUnits="userSpaceOnUse" color-interpolation-filters="sRGB">
<feFlood flood-opacity="0" result="BackgroundImageFix"/>
<feColorMatrix in="SourceAlpha" type="matrix" values="0 0 0 0 0 0 0 0 0 0 0 0 0 0 0 0 0 0 127 0" result="hardAlpha"/>
<feOffset dx="7" dy="15"/>
<feGaussianBlur stdDeviation="12"/>
<feComposite in2="hardAlpha" operator="out"/>
<feColorMatrix type="matrix" values="0 0 0 0 0.881988 0 0 0 0 0.881988 0 0 0 0 0.881988 0 0 0 0.1 0"/>
<feBlend mode="normal" in2="BackgroundImageFix" result="effect1_dropShadow_2004_3584"/>
<feColorMatrix in="SourceAlpha" type="matrix" values="0 0 0 0 0 0 0 0 0 0 0 0 0 0 0 0 0 0 127 0" result="hardAlpha"/>
<feOffset dy="-15"/>
<feGaussianBlur stdDeviation="28"/>
<feComposite in2="hardAlpha" operator="out"/>
<feColorMatrix type="matrix" values="0 0 0 0 0.477352 0 0 0 0 0.477352 0 0 0 0 0.477352 0 0 0 0.1 0"/>
<feBlend mode="normal" in2="effect1_dropShadow_2004_3584" result="effect2_dropShadow_2004_3584"/>
<feBlend mode="normal" in="SourceGraphic" in2="effect2_dropShadow_2004_3584" result="shape"/>
</filter>
<filter id="filter5_d_2004_3584" x="307.621" y="213.472" width="88.8268" height="88.8268" filterUnits="userSpaceOnUse" color-interpolation-filters="sRGB">
<feFlood flood-opacity="0" result="BackgroundImageFix"/>
<feColorMatrix in="SourceAlpha" type="matrix" values="0 0 0 0 0 0 0 0 0 0 0 0 0 0 0 0 0 0 127 0" result="hardAlpha"/>
<feOffset dy="10.6592"/>
<feGaussianBlur stdDeviation="10.6592"/>
<feColorMatrix type="matrix" values="0 0 0 0 0 0 0 0 0 0 0 0 0 0 0 0 0 0 0.05 0"/>
<feBlend mode="normal" in2="BackgroundImageFix" result="effect1_dropShadow_2004_3584"/>
<feBlend mode="normal" in="SourceGraphic" in2="effect1_dropShadow_2004_3584" result="shape"/>
</filter>
<filter id="filter6_d_2004_3584" x="307.621" y="284.534" width="88.8268" height="88.8268" filterUnits="userSpaceOnUse" color-interpolation-filters="sRGB">
<feFlood flood-opacity="0" result="BackgroundImageFix"/>
<feColorMatrix in="SourceAlpha" type="matrix" values="0 0 0 0 0 0 0 0 0 0 0 0 0 0 0 0 0 0 127 0" result="hardAlpha"/>
<feOffset dy="10.6592"/>
<feGaussianBlur stdDeviation="10.6592"/>
<feColorMatrix type="matrix" values="0 0 0 0 0 0 0 0 0 0 0 0 0 0 0 0 0 0 0.05 0"/>
<feBlend mode="normal" in2="BackgroundImageFix" result="effect1_dropShadow_2004_3584"/>
<feBlend mode="normal" in="SourceGraphic" in2="effect1_dropShadow_2004_3584" result="shape"/>
</filter>
<filter id="filter7_d_2004_3584" x="307.621" y="355.595" width="88.8268" height="88.8268" filterUnits="userSpaceOnUse" color-interpolation-filters="sRGB">
<feFlood flood-opacity="0" result="BackgroundImageFix"/>
<feColorMatrix in="SourceAlpha" type="matrix" values="0 0 0 0 0 0 0 0 0 0 0 0 0 0 0 0 0 0 127 0" result="hardAlpha"/>
<feOffset dy="10.6592"/>
<feGaussianBlur stdDeviation="10.6592"/>
<feColorMatrix type="matrix" values="0 0 0 0 0 0 0 0 0 0 0 0 0 0 0 0 0 0 0.05 0"/>
<feBlend mode="normal" in2="BackgroundImageFix" result="effect1_dropShadow_2004_3584"/>
<feBlend mode="normal" in="SourceGraphic" in2="effect1_dropShadow_2004_3584" result="shape"/>
</filter>
<clipPath id="clip0_2004_3584">
<rect width="24.0726" height="24.0726" fill="white" transform="translate(110.897 326.532)"/>
</clipPath>
<clipPath id="clip1_2004_3584">
<rect width="24.0726" height="24.9595" fill="white" transform="translate(110.897 394.867)"/>
</clipPath>
</defs>
</svg>
